<?xml version="1.0" encoding="UTF-8" standalone="no"?><!DOCTYPE svg PUBLIC "-//W3C//DTD SVG 1.1//EN" "http://www.w3.org/Graphics/SVG/1.1/DTD/svg11.dtd"><svg width="100%" height="100%" viewBox="0 0 48 48" version="1.1" xmlns="http://www.w3.org/2000/svg" xmlns:xlink="http://www.w3.org/1999/xlink" xml:space="preserve" xmlns:serif="http://www.serif.com/" style="fill-rule:evenodd;clip-rule:evenodd;stroke-linejoin:round;stroke-miterlimit:2;"><path d="M7,13.26c1.76,-2.76 4.16,-5.06 7.02,-6.66c4.14,1.36 8.64,4 12.1,7.94c-5.8,2.12 -12.6,2.14 -19.12,-1.28Zm5.86,27.44c-5.42,-3.58 -9,-9.72 -9,-16.7c0,-2.52 0.46,-4.94 1.34,-7.16c4.22,2.2 8.54,3.18 12.72,3.18c3.76,0 7.38,-0.78 10.68,-2.14c0.74,1.2 1.38,2.52 1.9,3.92c-1.9,0.68 -3.78,1.58 -5.56,2.68c-6.14,3.84 -10.46,9.64 -12.08,16.22Zm6.56,-36.2c1.42,-0.32 2.92,-0.5 4.44,-0.5c4.56,0 8.74,1.52 12.1,4.08c-1.7,1.84 -3.76,3.46 -6.06,4.74c-2.96,-3.68 -6.72,-6.44 -10.48,-8.32Zm12.46,23.28c0.92,9.32 -3.2,15.06 -3.7,15.74c-0.02,0 -0.02,0.02 -0.02,0.02c-1.38,0.3 -2.82,0.46 -4.3,0.46c-2.6,-0 -5.06,-0.5 -7.34,-1.4c1.18,-5.96 4.98,-11.28 10.52,-14.72c1.46,-0.92 2.98,-1.66 4.54,-2.22c0.12,0.68 0.22,1.4 0.3,2.12Zm11.96,-3.1c-0.24,7.08 -4.14,13.24 -9.9,16.6c1.32,-3.2 2.52,-7.92 1.92,-13.9c-0.1,-0.96 -0.24,-1.9 -0.42,-2.8c2.88,-0.56 5.74,-0.54 8.4,0.1Zm-9.46,-3.96c-0.6,-1.64 -1.32,-3.18 -2.18,-4.6c2.54,-1.46 4.82,-3.26 6.68,-5.32c2.38,2.7 4.04,6.04 4.68,9.74c-2.96,-0.52 -6.08,-0.46 -9.18,0.18Z" style="fill:#fff;fill-rule:nonzero;"/></svg>