<?xml version="1.0" encoding="UTF-8" standalone="no"?><!DOCTYPE svg PUBLIC "-//W3C//DTD SVG 1.1//EN" "http://www.w3.org/Graphics/SVG/1.1/DTD/svg11.dtd"><svg width="100%" height="100%" viewBox="0 0 48 48" version="1.1" xmlns="http://www.w3.org/2000/svg" xmlns:xlink="http://www.w3.org/1999/xlink" xml:space="preserve" xmlns:serif="http://www.serif.com/" style="fill-rule:evenodd;clip-rule:evenodd;stroke-linejoin:round;stroke-miterlimit:2;"><path d="M24,4c-11.047,0 -20,8.953 -20,20c0,11.047 8.953,20 20,20c11.047,0 20,-8.953 20,-20c0,-11.047 -8.953,-20 -20,-20Zm0,4c8.82,0 16,7.18 16,16c0,0.938 -0.094,1.859 -0.25,2.75c-0.492,-0.109 -1.219,-0.242 -2.063,-0.25c-0.624,-0.008 -1.406,0.094 -2.062,0.188c0.227,-0.696 0.375,-1.461 0.375,-2.25c0,-1.922 -0.938,-3.711 -2.438,-5.188c0.415,-1.539 0.821,-4.18 -0.249,-5.25c-3.165,0 -4.915,2.258 -5,2.375c-0.977,-0.234 -1.985,-0.375 -3.063,-0.375c-1.383,0 -2.703,0.25 -3.937,0.625l0.375,-0.313c-0,0 -1.758,-2.437 -5,-2.437c-1.133,1.141 -0.618,4.031 -0.188,5.5c-1.531,1.461 -2.5,3.188 -2.5,5.063c0,0.656 0.156,1.281 0.313,1.875c-0.555,-0.063 -2.555,-0.25 -3.375,-0.25c-0.727,-0 -1.852,0.171 -2.75,0.375c-0.125,-0.797 -0.188,-1.61 -0.188,-2.438c0,-8.82 7.18,-16 16,-16Zm-13.062,18.563c0.789,-0 3.187,0.281 3.5,0.312c0.039,0.109 0.078,0.211 0.125,0.313c-0.86,-0.079 -2.524,-0.196 -3.625,-0.063c-0.735,0.086 -1.672,0.352 -2.5,0.563c-0.063,-0.25 -0.141,-0.493 -0.188,-0.75c0.875,-0.188 2.023,-0.375 2.688,-0.375Zm26.75,0.437c0.796,0.008 1.523,0.141 2,0.25c-0.024,0.133 -0.094,0.242 -0.125,0.375c-0.508,-0.117 -1.344,-0.289 -2.313,-0.313c-0.469,-0.007 -1.219,0.016 -1.875,0.063c0.031,-0.063 0.039,-0.125 0.063,-0.188c0.679,-0.093 1.546,-0.195 2.25,-0.187Zm-25.5,0.563c1.125,0.007 2.179,0.085 2.625,0.125c1.046,1.953 3.164,3.398 6.437,4c-0.805,0.445 -1.523,1.07 -2.062,1.812c-0.469,0.039 -0.961,0.063 -1.438,0.063c-1.391,-0.001 -2.258,-1.243 -3,-2.313c-0.75,-1.07 -1.672,-1.188 -2.187,-1.25c-0.524,-0.063 -0.704,0.234 -0.438,0.437c1.523,1.172 2.07,2.563 2.688,3.813c0.554,1.125 1.718,1.75 3,1.75l0.25,-0c-0.04,0.219 -0.063,0.422 -0.063,0.625l0,2.187c-4.617,-1.867 -8.133,-5.812 -9.437,-10.687c0.82,-0.203 1.742,-0.414 2.437,-0.5c0.32,-0.039 0.727,-0.07 1.188,-0.063Zm25.062,0.25c0.898,0.024 1.695,0.196 2.188,0.313c-1.102,4.141 -3.821,7.586 -7.438,9.687l0,-1.187c0,-1.703 -1.344,-3.891 -3.25,-4.938c3.164,-0.578 5.227,-1.96 6.313,-3.812c0.757,-0.055 1.648,-0.078 2.187,-0.063Zm-12.25,8.188c0.547,-0 1,0.453 1,1l0,2.875c-0.656,0.086 -1.32,0.125 -2,0.125l0,-3c0,-0.547 0.453,-1 1,-1Zm-4,2c0.547,-0 1,0.453 1,1l0,0.875c-0.672,-0.086 -1.352,-0.211 -2,-0.375l0,-0.5c0,-0.547 0.453,-1 1,-1Zm8,-0c0.484,-0 0.906,0.352 1,0.812c-0.648,0.266 -1.313,0.508 -2,0.688l0,-0.5c0,-0.547 0.453,-1 1,-1Z" style="fill:#fff;fill-rule:nonzero;"/></svg>