<?xml version="1.0" encoding="UTF-8" standalone="no"?><!DOCTYPE svg PUBLIC "-//W3C//DTD SVG 1.1//EN" "http://www.w3.org/Graphics/SVG/1.1/DTD/svg11.dtd"><svg width="100%" height="100%" viewBox="0 0 48 48" version="1.1" xmlns="http://www.w3.org/2000/svg" xmlns:xlink="http://www.w3.org/1999/xlink" xml:space="preserve" xmlns:serif="http://www.serif.com/" style="fill-rule:evenodd;clip-rule:evenodd;stroke-linejoin:round;stroke-miterlimit:2;"><path d="M16,6c-5.522,0 -10,4.478 -10,10l0,16c0,5.522 4.478,10 10,10l16,0c5.522,0 10,-4.478 10,-10l0,-16c0,-5.522 -4.478,-10 -10,-10l-16,0Zm20,4c1.104,0 2,0.896 2,2c0,1.104 -0.896,2 -2,2c-1.104,0 -2,-0.896 -2,-2c0,-1.104 0.896,-2 2,-2Zm-12,4c5.522,0 10,4.478 10,10c0,5.522 -4.478,10 -10,10c-5.522,0 -10,-4.478 -10,-10c0,-5.522 4.478,-10 10,-10Zm0,4c-3.292,0 -6,2.708 -6,6c0,3.292 2.708,6 6,6c3.292,0 6,-2.708 6,-6c0,-3.292 -2.708,-6 -6,-6Z" style="fill:#fff;fill-rule:nonzero;"/></svg>