<?xml version="1.0" encoding="UTF-8" standalone="no"?><!DOCTYPE svg PUBLIC "-//W3C//DTD SVG 1.1//EN" "http://www.w3.org/Graphics/SVG/1.1/DTD/svg11.dtd"><svg width="100%" height="100%" viewBox="0 0 48 48" version="1.1" xmlns="http://www.w3.org/2000/svg" xmlns:xlink="http://www.w3.org/1999/xlink" xml:space="preserve" xmlns:serif="http://www.serif.com/" style="fill-rule:evenodd;clip-rule:evenodd;stroke-linejoin:round;stroke-miterlimit:2;"><path d="M42,6l-36,0l0,36l36,0l0,-36Zm-24,28l-5.046,0l0,-14l5.046,0l0,14Zm-2.612,-16.566c-1.542,0 -2.572,-1.028 -2.572,-2.4c0,-1.372 1.028,-2.4 2.742,-2.4c1.542,0 2.572,1.028 2.572,2.4c0,1.372 -1.028,2.4 -2.742,2.4Zm20.612,16.566l-4.884,0l0,-7.652c0,-2.116 -1.302,-2.604 -1.79,-2.604c-0.488,0 -2.116,0.326 -2.116,2.604l0,7.652l-5.046,0l0,-14l5.046,0l0,1.954c0.65,-1.14 1.952,-1.954 4.394,-1.954c2.442,0 4.396,1.954 4.396,6.348l0,7.652Z" style="fill:#fff;fill-rule:nonzero;"/></svg>