<svg width="207" height="203" viewBox="0 0 207 203" fill="none" xmlns="http://www.w3.org/2000/svg">
<path fill-rule="evenodd" clip-rule="evenodd" d="M105.188 175.23C99.2103 175.281 78.8125 175.337 57.6545 162.874C40.6444 152.855 28.7869 137.849 23.6561 121.388C22.2292 116.81 16.566 98.1082 25.9628 76.1493C37.7752 48.5467 67.9539 28.7185 103.596 28.7065C138.15 28.6945 167.701 47.6174 179.658 74.263C182.405 80.3827 186.413 91.6334 185.188 106.516C184.845 110.679 183.661 120.685 177.671 132.078C171.773 143.296 164.102 150.456 161.277 152.996C158.01 155.934 151.772 161.095 142.239 165.846C134.726 169.59 123.078 174.042 107.874 175.137C107.156 175.188 105.404 175.242 105.189 175.248L105.188 175.23ZM105.03 169.523L105.029 169.504C105.951 169.476 105.951 169.474 108.052 169.387C125.399 168.668 137.771 163.128 143.374 160.303C146.262 158.847 148.903 157.198 149.371 156.907C165.771 146.671 172.939 134.006 175.092 130.009C178.964 122.823 180.808 116.266 181.732 110.844C182.342 107.266 183.227 100.368 181.928 91.6117C176.635 55.9315 140.671 29.2945 98.7296 31.6158C57.1649 33.916 23.9943 64.4733 24.0562 101.551C24.0795 115.488 28.782 130.318 40.3551 143.404C45.9804 149.764 52.0471 153.978 52.6957 154.44C67.4491 164.955 85.4551 169.992 103.517 169.572C104.312 169.553 104.99 169.524 105.03 169.523Z" fill="#C9F299"/>
<path fill-rule="evenodd" clip-rule="evenodd" d="M175.731 129.6C175.728 129.603 175.728 129.603 175.731 129.6ZM175.746 129.586C175.794 129.546 175.934 129.432 176.089 129.37C176.149 129.347 176.496 129.209 176.9 129.372C177.099 129.453 177.1 129.456 177.254 129.603C177.568 129.901 177.567 130.287 177.567 130.351C177.567 130.486 177.54 130.624 177.487 130.749C177.388 130.986 177.377 130.983 177.187 131.158C176.284 131.994 175.065 132.765 174.869 132.889C171.603 134.956 165.609 137.514 156.809 137.003C151.123 136.672 147.043 136.036 146.2 135.904C136.4 134.374 132.922 132.183 120.768 131.428C118.404 131.281 117.075 131.206 111.679 131.113C111.335 131.107 110.551 131.094 107.382 131.064C106.989 131.061 105.171 131.044 102.467 131.052C90.3249 131.086 84.2108 132.102 82.0795 132.465C78.5457 133.066 75.8061 133.75 75.2657 133.885C70.4265 135.093 65.5666 136.471 56.9754 136.746C38.6656 137.331 29.5581 130.561 25.7427 125.243C24.824 123.963 24.4571 123.093 24.4571 123.092C24.4491 122.906 24.3834 122.706 24.4552 122.534C24.4564 122.531 24.8576 122.134 24.8595 122.134C25.4641 122.131 25.6082 122.013 25.8474 122.557C26.0354 122.985 31.4337 134.908 53.1707 135.519C54.0447 135.544 59.044 135.669 64.3907 134.916C68.6926 134.31 71.9482 133.368 75.7625 132.4C76.8983 132.112 80.1989 131.136 86.125 130.125C86.2653 130.101 94.1009 128.648 106.273 128.223C107.474 128.181 109.337 128.108 112.941 128.115C112.999 128.115 117.608 128.15 121.668 128.461C135.534 129.525 137.832 132.31 151.661 133.964C152.11 134.017 154.888 134.349 157.284 134.517C158.916 134.632 166.452 135.168 173.177 131.372C174.848 130.429 175.679 129.655 175.746 129.586ZM175.746 129.586C175.739 129.593 175.734 129.597 175.731 129.6C175.751 129.581 175.756 129.577 175.746 129.586Z" fill="#C9F299"/>
<path fill-rule="evenodd" clip-rule="evenodd" d="M46.1287 119.787C46.0569 119.588 45.4428 117.837 40.2963 115.774C38.9633 115.239 37.7939 114.876 37.3044 114.735C37.1596 114.693 37.1569 114.701 37.0205 114.637C36.5042 114.396 36.3754 113.931 36.3536 113.853C36.2951 113.642 36.31 113.466 36.3131 113.432C36.7014 108.868 38.4486 88.7906 38.457 88.7418C38.4963 88.5131 38.4768 88.5071 38.5747 88.2952C38.8365 87.7297 39.3573 87.5823 39.4456 87.5572C39.6772 87.4916 39.8801 87.5047 39.918 87.507C39.9974 87.5122 40.0762 87.5261 40.1541 87.5422C40.5527 87.6255 46.4073 89.0628 46.9507 89.1963C52.0464 90.4477 79.43 97.1587 86.9145 100.074C87.7965 100.418 89.8071 101.496 91.7511 106.719C91.8245 106.916 91.8917 107.104 91.9517 107.277L128.589 108.856C128.445 107.032 128.286 105.21 128.149 103.386C128.145 103.335 128.207 102.974 128.531 102.787C128.801 102.632 129.119 102.698 129.172 102.704C134.617 103.261 138.825 103.072 140.096 103.018C149.206 102.631 156.191 100.994 158.632 100.397C164.25 99.0217 168.44 97.2671 169.265 96.9217C172.48 95.5755 174.304 94.4853 174.47 94.428C174.911 94.2757 175.371 94.6413 175.31 95.0958C175.282 95.3043 175.142 95.4423 175.118 95.466C175.11 95.4742 167.543 102.534 162.963 107.119C161.078 109.007 160.518 109.661 160.325 109.918C161.412 117.843 161.681 124.792 157.528 131.793C156.349 133.781 155.076 135.336 154.312 136.231C154.114 136.463 153.849 136.485 153.804 136.488C153.8 136.489 153.258 136.319 153.258 136.317C153.171 136.152 153.015 136.006 152.999 135.821C152.968 135.468 153.017 135.465 153.25 135.195C159.795 127.597 160.404 120.6 158.995 110.139C158.927 109.635 158.83 109.539 159.827 108.451C160.908 107.272 163.003 105.232 164.224 104.052C166.452 101.899 169.121 99.3742 171.159 97.4565C167.57 99.0547 161.612 101.266 153.287 102.805C145.302 104.282 139.02 104.408 135.904 104.437C133.147 104.464 131.011 104.35 129.791 104.265C130.334 109.713 130.362 109.725 130.324 109.924C130.26 110.26 129.972 110.542 129.626 110.612C129.574 110.622 129.522 110.631 129.47 110.63L97.0076 110.241C94.9386 110.214 92.8696 110.18 90.8007 110.143C90.7101 110.141 90.185 110.131 89.7566 109.711C89.5923 109.549 89.5021 109.369 89.4857 109.336C89.3798 109.123 89.1467 108.212 88.4718 106.686C87.5653 104.635 86.5179 103.179 85.7711 102.885C80.0927 100.651 56.1775 94.3897 41.0434 90.5737L38.8987 112.687C40.7365 113.307 44.5607 114.762 46.7681 116.82C48.182 118.138 48.552 119.282 48.7163 120.87C48.7377 121.074 49.1974 124.254 47.7242 132.581C47.6103 133.224 47.3925 134.409 47.3845 134.428C47.3302 134.556 47.2996 134.697 47.2213 134.812C47.185 134.865 46.9779 135.171 46.5479 135.257C46.1039 135.346 45.7833 135.136 45.7275 135.1C45.3629 134.861 45.2876 134.501 45.2746 134.439C45.2184 134.17 45.2425 134.168 45.2945 133.898C45.81 131.231 47.172 122.652 46.1341 119.801C46.1325 119.797 46.131 119.792 46.1287 119.787Z" fill="#C9F299"/>
<path fill-rule="evenodd" clip-rule="evenodd" d="M65.0007 109.154C65.0736 109.153 68.7267 108.874 71.4216 111.676C74.7964 115.185 73.6393 120.658 69.0675 122.91C64.9376 124.944 59.6994 123.471 57.6277 119.629C55.7754 116.195 57.1344 112.017 60.8527 110.045C60.9754 109.98 61.6446 109.625 62.4666 109.388C62.7062 109.319 63.2057 109.254 63.2706 109.245C64.2283 109.121 64.544 109.224 64.7958 109.218L64.8489 109.217C64.8948 109.199 64.9441 109.178 64.9968 109.154C64.9968 109.154 64.9984 109.155 65.0007 109.155V109.154ZM64.2039 110.699C64.1377 110.716 64.0483 110.738 63.9253 110.768C63.4097 110.894 63.2343 110.984 62.8495 111.11C60.5264 111.87 59.0222 113.668 58.7154 115.644C59.3528 115.595 60.1354 115.54 60.5432 115.522C60.855 115.509 62.3405 115.493 64.1297 115.48C64.1102 113.936 64.0992 112.665 64.1068 112.394C64.1179 112.012 64.1649 111.272 64.2039 110.699ZM58.7333 117.252C58.8483 117.892 59.0952 118.527 59.4858 119.129C60.5291 120.736 62.3248 121.707 64.2405 121.931C64.218 121.18 64.1836 119.255 64.1553 117.325C62.3619 117.343 60.8722 117.353 60.5593 117.344C60.1481 117.333 59.3662 117.29 58.7333 117.252ZM66.0455 121.919C67.1805 121.772 68.2891 121.353 69.2426 120.642C70.4865 119.715 71.2019 118.496 71.417 117.225C70.6298 117.246 68.32 117.279 66.0267 117.305C66.042 119.243 66.0512 121.175 66.0455 121.919ZM71.3983 115.457C71.1579 114.189 70.4307 112.979 69.2449 112.066C67.9948 111.104 66.6592 110.785 65.8303 110.678C65.8823 111.255 65.9446 111.996 65.9637 112.373C65.9778 112.645 65.9954 113.92 66.0107 115.468C68.3009 115.455 70.608 115.449 71.3983 115.457Z" fill="#C9F299"/>
<path fill-rule="evenodd" clip-rule="evenodd" d="M86.6585 113.384C86.6738 113.384 88.6499 113.205 90.1881 114.835C91.6154 116.348 91.8749 118.725 90.5664 120.576C90.3619 120.864 89.6989 121.625 88.7057 122.034C87.2955 122.614 85.8869 122.41 84.9082 121.925C84.8379 121.89 83.863 121.485 83.062 120.36C81.6171 118.332 82.164 115.456 84.3575 114.105C85.4482 113.433 86.4823 113.448 86.6573 113.444C86.6581 113.424 86.6585 113.404 86.6585 113.384ZM86.4342 114.793C86.0107 114.819 85.0798 114.967 84.3155 115.789C83.4014 116.772 83.1316 118.439 84.1882 119.761C84.3931 120.017 84.9403 120.532 85.7581 120.707C87.1178 120.998 88.069 120.256 88.1145 120.226C88.5708 119.92 88.8089 119.564 88.8658 119.483H88.8654C88.8666 119.481 88.8677 119.48 88.8689 119.478C89.2927 118.914 89.4154 118.448 89.4517 117.838V117.85C89.4635 117.321 89.3867 116.877 89.0668 116.316L89.0672 116.316C88.9789 116.169 88.3358 114.996 86.7368 114.855C86.6 114.843 86.5022 114.823 86.4342 114.793Z" fill="#C9F299"/>
<path fill-rule="evenodd" clip-rule="evenodd" d="M105.914 113.513C105.929 113.513 107.905 113.334 109.443 114.964C110.87 116.477 111.13 118.855 109.821 120.705C109.617 120.994 108.954 121.754 107.961 122.163C106.55 122.743 105.142 122.539 104.163 122.054C104.093 122.019 103.118 121.614 102.317 120.489C100.872 118.461 101.419 115.585 103.612 114.234C104.703 113.562 105.738 113.577 105.912 113.573C105.913 113.553 105.914 113.534 105.914 113.513ZM105.689 114.923C105.266 114.948 104.335 115.096 103.571 115.918C102.657 116.902 102.387 118.568 103.443 119.89C103.648 120.146 104.196 120.662 105.013 120.836C106.373 121.127 107.324 120.386 107.37 120.355C107.826 120.05 108.064 119.693 108.121 119.612L108.121 119.612C108.122 119.61 108.123 119.609 108.124 119.607C108.548 119.043 108.671 118.577 108.707 117.967V117.979C108.719 117.45 108.642 117.006 108.322 116.445C108.234 116.298 107.591 115.125 105.992 114.984C105.855 114.972 105.757 114.952 105.689 114.923Z" fill="#C9F299"/>
<path fill-rule="evenodd" clip-rule="evenodd" d="M124.99 112.945C125.005 112.944 126.981 112.765 128.519 114.396C129.947 115.908 130.206 118.286 128.898 120.136C128.694 120.425 128.03 121.186 127.037 121.594C125.627 122.175 124.218 121.97 123.239 121.486C123.169 121.451 122.194 121.045 121.393 119.92C119.948 117.892 120.496 115.017 122.689 113.666C123.78 112.994 124.814 113.008 124.989 113.005C124.989 112.985 124.99 112.965 124.99 112.945ZM124.765 114.354C124.342 114.379 123.411 114.528 122.647 115.35C121.733 116.333 121.463 118 122.519 119.321C122.724 119.577 123.272 120.093 124.089 120.268C125.449 120.558 126.401 119.817 126.446 119.787C126.902 119.481 127.14 119.125 127.197 119.043H127.197C127.198 119.042 127.199 119.04 127.2 119.039C127.624 118.475 127.747 118.008 127.783 117.398V117.411C127.795 116.881 127.718 116.438 127.398 115.877L127.398 115.876C127.31 115.729 126.667 114.556 125.068 114.415C124.932 114.403 124.833 114.383 124.765 114.354Z" fill="#C9F299"/>
<path fill-rule="evenodd" clip-rule="evenodd" d="M140.943 112.434C140.958 112.433 142.934 112.254 144.472 113.885C145.899 115.397 146.159 117.775 144.85 119.625C144.646 119.914 143.983 120.675 142.99 121.083C141.579 121.664 140.171 121.459 139.192 120.975C139.122 120.94 138.147 120.534 137.346 119.409C135.901 117.381 136.448 114.506 138.641 113.155C139.732 112.483 140.766 112.497 140.941 112.494C140.942 112.474 140.943 112.454 140.943 112.434ZM140.718 113.843C140.295 113.868 139.364 114.017 138.6 114.839C137.686 115.822 137.416 117.489 138.473 118.81C138.677 119.066 139.225 119.582 140.042 119.757C141.402 120.048 142.353 119.306 142.398 119.276C142.855 118.97 143.093 118.614 143.15 118.533V118.532C143.151 118.531 143.152 118.529 143.153 118.528C143.577 117.964 143.7 117.498 143.736 116.887V116.9C143.748 116.37 143.671 115.927 143.351 115.366C143.263 115.218 142.62 114.045 141.021 113.904C140.884 113.892 140.786 113.872 140.718 113.843Z" fill="#C9F299"/>
<path fill-rule="evenodd" clip-rule="evenodd" d="M134.93 96.6614C135.205 96.6678 135.219 96.6682 135.416 96.856C135.533 96.9678 135.596 97.1399 135.601 97.2997C135.611 97.6098 135.478 97.6068 135.496 101.176C135.506 103.123 135.586 103.132 135.519 103.288C135.446 103.458 135.434 103.671 135.298 103.798C135.296 103.8 134.755 104.002 134.753 104.001C134.215 103.772 134.042 103.828 134.026 103.254C134.007 102.55 134.113 101.848 134.15 101.146C134.18 100.585 134.215 100.025 134.227 99.4638C134.25 98.3395 133.749 98.2885 134.23 97.2682C134.299 97.1234 134.314 96.9397 134.436 96.8335C134.642 96.655 134.656 96.6554 134.93 96.6614Z" fill="#C9F299"/>
<path fill-rule="evenodd" clip-rule="evenodd" d="M81.7348 91.1679C82.0084 91.1896 82.0222 91.1911 82.2075 91.3895C82.3176 91.5072 82.3722 91.6831 82.3669 91.8429C82.3554 92.1961 82.2224 92.1856 81.9909 96.2469C81.8728 98.3225 82.0184 98.348 81.8663 98.6491C81.7826 98.8152 81.7581 99.0267 81.6144 99.1464C81.6121 99.1482 81.0615 99.3189 81.0599 99.3181C80.888 99.233 80.6697 99.2052 80.5448 99.0612C80.4225 98.9202 80.3713 98.7159 80.3778 98.531C80.4064 97.7296 80.5627 96.9376 80.6491 96.14C80.7179 95.5044 80.7924 94.8687 80.8436 94.2312C80.9453 92.954 80.3827 92.8632 81.0003 91.7341C81.0775 91.5935 81.1043 91.4109 81.2323 91.3119C81.4478 91.1454 81.4616 91.1461 81.7348 91.1679Z" fill="#C9F299"/>
<path fill-rule="evenodd" clip-rule="evenodd" d="M71.3188 88.9946C71.5924 89.0163 71.6058 89.0175 71.7911 89.2162C71.9012 89.334 71.9555 89.5098 71.9505 89.6696C71.9402 90.0108 71.8072 90 71.5871 93.9228C71.4755 95.9163 71.6215 95.9415 71.4694 96.2433C71.3857 96.4091 71.3612 96.6206 71.2175 96.7406C71.2152 96.7425 70.6646 96.9131 70.663 96.9123C70.4911 96.8272 70.2725 96.7995 70.1475 96.6555C70.0252 96.5145 69.9744 96.3101 69.9809 96.1248C70.0072 95.3508 70.1613 94.5862 70.2453 93.8163C70.3122 93.2021 70.3852 92.5882 70.4341 91.9725L70.5843 89.5608C70.6611 89.4198 70.6879 89.2376 70.8159 89.1386C71.0314 88.9717 71.0452 88.9728 71.3188 88.9946Z" fill="#C9F299"/>
<path fill-rule="evenodd" clip-rule="evenodd" d="M62.8732 86.5253C63.1468 86.547 63.1606 86.5482 63.3459 86.7469C63.456 86.8647 63.5099 87.0405 63.5049 87.2003C63.4953 87.528 63.3623 87.5172 63.1556 91.2829C63.0513 93.1834 63.1976 93.2085 63.0452 93.5108C62.9619 93.6765 62.9378 93.888 62.7941 94.008C62.7918 94.0099 62.2407 94.1805 62.2392 94.1798C61.7153 93.9207 61.5379 93.9679 61.5571 93.3923C61.5815 92.6494 61.7321 91.9155 61.8135 91.1764C61.8784 90.5869 61.9495 89.9978 61.9965 89.4068C62.0909 88.2222 61.567 88.1385 62.1387 87.0915C62.2155 86.9509 62.2423 86.7683 62.3699 86.6693C62.5858 86.5028 62.5996 86.5035 62.8732 86.5253Z" fill="#C9F299"/>
<path fill-rule="evenodd" clip-rule="evenodd" d="M55.2439 83.7255C55.5175 83.7472 55.5313 83.7487 55.717 83.9471C55.827 84.0652 55.8805 84.2407 55.876 84.4005C55.8664 84.7297 55.7334 84.7188 55.5251 88.503C55.4197 90.4136 55.566 90.4387 55.4139 90.741C55.3302 90.9071 55.3062 91.1186 55.1625 91.2382C55.1602 91.2405 54.6091 91.4107 54.6076 91.41C54.0836 91.1508 53.9063 91.1985 53.9254 90.6228C53.9503 89.8762 54.1012 89.1386 54.183 88.3961C54.2484 87.804 54.3194 87.2122 54.3668 86.6182C54.5373 84.4758 54.4199 84.4563 54.5098 84.2921C54.5866 84.1511 54.6129 83.9685 54.741 83.8698C54.9569 83.703 54.9703 83.7037 55.2439 83.7255Z" fill="#C9F299"/>
<path fill-rule="evenodd" clip-rule="evenodd" d="M46.6672 79.9205C46.9408 79.931 46.9542 79.9321 47.1475 80.1222C47.2626 80.2355 47.3272 80.4087 47.3275 80.5688C47.3279 81.026 47.1934 81.0207 47.0887 86.2808C47.0333 89.0671 47.1785 89.087 47.039 89.3915C46.9618 89.5606 46.9454 89.7728 46.8067 89.8988C46.8044 89.9007 46.2636 90.0938 46.2621 90.0935C46.0874 90.0155 45.8689 89.9963 45.7385 89.858C45.6101 89.7218 45.5467 89.5201 45.5467 89.3348C45.5482 88.2976 45.682 87.2648 45.7435 86.2298C45.7924 85.4037 45.8475 84.578 45.8784 83.7515C45.9545 81.7253 45.3957 81.6496 45.9575 80.5163C46.029 80.3723 46.0485 80.1893 46.1723 80.0851C46.3802 79.91 46.3936 79.91 46.6672 79.9205Z" fill="#C9F299"/>
<path fill-rule="evenodd" clip-rule="evenodd" d="M141.813 96.901C142.088 96.9073 142.102 96.9073 142.299 97.096C142.606 97.3888 142.443 97.462 142.385 99.541C142.371 100.067 142.407 102.725 142.411 103.003C142.415 103.297 142.407 103.312 142.19 103.515C142.188 103.517 141.646 103.718 141.645 103.717C141.107 103.488 140.935 103.544 140.918 102.969C140.898 102.327 141.002 101.687 141.039 101.046C141.067 100.534 141.102 100.023 141.113 99.511C141.157 97.4316 140.998 97.351 141.319 97.0727C141.525 96.8938 141.539 96.8942 141.813 96.901Z" fill="#C9F299"/>
<path fill-rule="evenodd" clip-rule="evenodd" d="M148.725 96.166C149 96.1678 149.014 96.1678 149.214 96.3527C149.526 96.6407 149.365 96.7165 149.343 98.8356C149.337 99.3722 149.419 102.082 149.427 102.364C149.436 102.658 149.428 102.674 149.215 102.88C149.213 102.883 148.675 103.092 148.673 103.092C148.131 102.872 147.961 102.931 147.934 102.356C147.903 101.701 147.996 101.047 148.021 100.393C148.042 99.871 148.068 99.349 148.07 98.8266C148.078 96.7075 147.918 96.6295 148.234 96.346C148.436 96.1637 148.451 96.1637 148.725 96.166Z" fill="#C9F299"/>
<path fill-rule="evenodd" clip-rule="evenodd" d="M155.65 95.3363C155.925 95.3314 155.939 95.331 156.144 95.511C156.463 95.7915 156.304 95.8706 156.333 97.8821C156.341 98.3903 156.489 100.954 156.504 101.221C156.521 101.514 156.514 101.531 156.307 101.742C156.304 101.744 155.771 101.967 155.769 101.967C155.222 101.76 155.054 101.823 155.011 101.249C154.965 100.63 155.042 100.008 155.051 99.3881C155.058 98.8935 155.071 98.3989 155.061 97.9043C155.017 95.8931 154.854 95.8196 155.163 95.5283C155.361 95.3411 155.375 95.3411 155.65 95.3363Z" fill="#C9F299"/>
<path fill-rule="evenodd" clip-rule="evenodd" d="M162.192 93.187C162.466 93.2005 162.48 93.2009 162.672 93.394C162.971 93.6947 162.807 93.7641 162.688 95.9541C162.659 96.5091 162.617 99.3179 162.613 99.6104C162.609 99.9047 162.601 99.9201 162.379 100.117C162.376 100.119 161.83 100.306 161.828 100.306C161.296 100.063 161.122 100.115 161.121 99.5395C161.12 98.8607 161.243 98.1872 161.298 97.5107C161.342 96.9715 161.391 96.4322 161.417 95.8919C161.521 93.7007 161.365 93.616 161.693 93.3464C161.904 93.1727 161.918 93.1735 162.192 93.187Z" fill="#C9F299"/>
<path fill-rule="evenodd" clip-rule="evenodd" d="M86.6688 91.9426C86.6417 92.2123 86.6344 92.2246 86.4208 92.3964C86.2863 92.5048 86.0925 92.5141 85.9217 92.5453C85.8797 92.5531 84.2624 92.3698 84.1183 92.3533C80.3468 91.9254 73.94 91.0576 66.1364 88.8568C56.5868 86.1628 48.4052 82.2883 41.7725 78.8476C41.5008 78.7066 41.4236 78.4569 41.4103 78.4138C41.4095 78.4108 41.4657 77.855 41.4672 77.8543C41.6136 77.7369 41.7263 77.5569 41.9074 77.5033C42.0894 77.4493 42.2911 77.5081 42.4753 77.5546C42.5854 77.5828 48.7717 81.0305 56.0942 84.0219C65.0671 87.6875 71.9712 89.0746 74.749 89.6109C80.9728 90.8128 86.0153 91.1848 86.0574 91.2069C86.4816 91.43 86.4903 91.4176 86.5167 91.4495C86.6917 91.6591 86.6963 91.673 86.6688 91.9426Z" fill="#C9F299"/>
<path fill-rule="evenodd" clip-rule="evenodd" d="M170.639 90.5095C170.745 90.7592 170.744 90.7738 170.64 91.0243C170.573 91.1822 170.411 91.2861 170.272 91.3885C170.272 91.3885 169.608 91.6592 168.86 91.9506C166.179 92.9961 160.961 94.9345 154.084 96.3598C144.675 98.3098 136.61 98.1741 131.89 97.9506C131.584 97.9359 131.406 97.741 131.375 97.7072C131.373 97.705 131.184 97.1781 131.185 97.1766C131.267 97.009 131.292 96.7986 131.433 96.6748C131.575 96.5503 131.784 96.523 131.97 96.4873C132.081 96.466 137.698 96.9576 144.722 96.3954C152.819 95.7474 158.786 93.9565 160.306 93.508C165.625 91.9378 169.699 90.1472 169.744 90.1472C170.226 90.1476 170.228 90.1326 170.267 90.1483C170.521 90.2507 170.533 90.2601 170.639 90.5095Z" fill="#C9F299"/>
<path fill-rule="evenodd" clip-rule="evenodd" d="M105.765 52.6503C105.759 52.6436 105.752 52.6364 105.744 52.6293C105.743 52.6271 105.531 52.0728 105.532 52.0713C105.767 51.5028 105.718 51.2928 106.339 51.3547C107.693 51.4889 108.065 51.5351 108.88 51.5924C109.419 51.5838 109.958 51.574 110.497 51.5662C110.507 51.5662 110.664 51.5564 110.798 51.6161C111.047 51.7271 111.155 51.9873 111.164 52.1291C111.203 52.7733 111.229 53.4183 111.266 54.0626C111.31 54.8321 111.363 55.6008 111.409 56.3699C111.41 56.3891 111.411 56.4074 111.411 56.4258C111.436 56.7899 111.195 57.037 111.143 57.0884C111.142 57.0899 111.14 57.0914 111.139 57.0925C111.056 57.1739 110.955 57.2418 110.847 57.2861C110.491 57.4319 110.187 57.3078 110.135 57.2861C110.083 57.2651 109.789 57.1447 109.645 56.8061C109.633 56.7779 109.558 56.6002 109.571 56.4333C109.571 56.4112 109.572 56.395 109.573 56.3872C109.658 55.1594 109.748 53.9321 109.834 52.7043L108.626 52.6499C108.296 52.6555 107.967 52.6634 107.639 52.6792C107.352 52.693 107.067 52.7253 106.782 52.7579C106.818 53.5893 106.839 54.4214 106.886 55.2521C106.925 55.9608 106.991 56.6681 107.043 57.3761C107.089 57.9911 106.89 57.9494 106.307 58.1797C106.305 58.1804 105.761 57.9689 105.759 57.9667C105.516 57.7312 105.543 57.7004 105.56 57.3656C105.606 56.4798 105.659 55.5948 105.696 54.7091C105.726 54.0228 105.743 53.3366 105.765 52.6503ZM105.795 96.1961C105.851 96.1994 106.173 96.2189 106.426 96.4994C106.466 96.5441 106.71 96.8155 106.651 97.2104C106.336 99.313 106.313 99.3097 106.042 101.418C106.006 101.694 105.761 103.596 105.713 104.883C105.683 105.658 105.692 106.435 105.694 107.211C105.696 107.828 105.715 108.444 105.726 109.061C105.736 109.675 105.533 109.616 104.938 109.806C104.936 109.807 104.399 109.56 104.397 109.558C104.18 109.317 104.199 109.29 104.245 108.971C104.334 108.36 104.43 107.751 104.51 107.139C104.61 106.369 104.716 105.6 104.784 104.826C104.898 103.543 104.894 101.626 104.893 101.348C104.889 99.223 104.867 99.2238 104.818 97.0991C104.809 96.6997 105.086 96.4601 105.131 96.4207C105.417 96.1728 105.739 96.1923 105.795 96.1961ZM111.345 110.142C111.289 110.142 110.966 110.143 110.696 109.879C110.653 109.837 110.391 109.58 110.425 109.184C110.604 107.121 110.627 107.123 110.762 105.056C110.78 104.785 110.902 102.921 110.867 101.667C110.847 100.911 110.788 100.156 110.736 99.4019C110.694 98.8023 110.635 98.2038 110.585 97.6049C110.533 96.9926 110.741 97.0402 111.324 96.814C111.325 96.8133 111.877 97.0263 111.88 97.0282C112.111 97.2551 112.094 97.2832 112.068 97.603C112.019 98.2019 111.962 98.8004 111.922 99.4C111.872 100.155 111.816 100.91 111.797 101.666C111.766 102.92 111.894 104.784 111.913 105.054C112.054 107.121 112.076 107.119 112.261 109.182C112.297 109.578 112.035 109.835 111.993 109.877C111.724 110.142 111.401 110.142 111.345 110.142Z" fill="#C9F299"/>
<path fill-rule="evenodd" clip-rule="evenodd" d="M104.826 98.2749C102.583 97.943 97.6206 97.0865 91.2069 93.8041C91.1778 93.7891 90.9272 93.6609 90.853 93.605C90.7869 93.5555 90.3784 93.248 90.4506 92.6652C90.4904 92.3442 90.7196 92.0967 91.3334 90.7025C95.5864 81.0376 93.8709 69.8532 86.2836 58.2605C86.2691 58.2384 86.1414 58.043 86.1128 57.9785C85.9248 57.5555 86.1044 57.0417 86.5175 56.8209C86.5492 56.804 86.7219 56.7114 86.955 56.7106C87.1507 56.7095 88.841 57.0391 91.5799 57.311C98.7258 58.0205 103.329 57.4051 104.226 57.293C107.546 56.8782 117.302 55.4082 120.651 47.8662C120.66 47.8464 120.742 47.5711 121.011 47.4875C121.217 47.4234 121.357 47.4946 121.736 47.6592C127.735 50.264 130.419 54.6886 131.692 57.1362C133.072 59.7901 135.964 66.3819 134.999 79.1945C134.933 80.0622 134.673 83.51 133.817 88.139C133.812 88.1656 133.766 88.4157 133.746 88.4682C133.695 88.6051 133.59 88.7015 133.573 88.718C133.151 89.1072 132.331 89.7792 132.221 89.8692C124.151 96.4861 115.254 99.2277 105.859 98.2599C105.352 98.2077 105.354 98.1999 104.849 98.1327L104.826 98.2749ZM105.116 96.326C106.932 96.5679 111.515 97.2327 117.289 95.9C125.039 94.1109 130.396 89.7627 132.58 87.926C133.554 83.0341 135.395 72.4869 132.992 63.0646C131.745 58.1727 129.843 55.5339 129.026 54.4636C126.26 50.837 123.075 49.2969 121.445 48.6275C120.458 50.8347 117.181 56.6971 105.21 58.7086C101.159 59.3892 97.2449 59.3476 96.3771 59.3394C93.4819 59.3116 90.8889 59.0626 88.8135 58.7941C92.5246 64.727 99.5451 78.1966 92.8796 92.3296C94.2519 92.9997 96.7156 94.121 99.7572 95.015C102.428 95.7995 104.423 96.08 105.137 96.1835L105.116 96.326Z" fill="#C9F299"/>
<path fill-rule="evenodd" clip-rule="evenodd" d="M93.3011 43.0054L93.3217 42.9484C93.3225 42.9488 95.3036 43.7104 98.8649 44.2043C103.766 44.8838 107.103 44.4402 107.645 43.5454C107.718 43.4239 107.716 43.2597 107.867 43.0999C108.173 42.777 108.725 42.8397 108.946 43.2233C108.959 43.2465 109.032 43.3729 109.033 43.5462C109.041 45.2427 109.045 46.9392 109.047 48.636C109.047 48.918 108.823 49.3065 108.327 49.2837C107.761 49.2574 104.364 48.8352 98.6436 49.5143C94.918 49.9564 92.8945 50.4698 92.189 50.2448C91.6945 50.0873 91.3265 49.4472 92.0396 48.8333C92.2899 48.6177 93.6332 47.6798 94.3967 46.9594C93.6546 46.9035 92.6663 46.6178 92.6354 45.3173C92.6235 44.8328 92.7439 44.277 92.596 44.1244C92.5184 44.0374 92.51 44.0434 92.4577 43.941C92.2521 43.5413 92.5074 43.0478 92.9571 42.9747C93.0343 42.9619 93.0642 42.9645 93.0737 42.9653C93.1895 42.9758 93.1861 42.9949 93.3011 43.0054ZM94.0279 44.7012C94.0268 44.7169 94.026 44.7327 94.0249 44.7488C94.0012 45.0972 93.9576 45.4752 94.06 45.537C94.3425 45.7069 95.0173 45.6102 95.3533 45.6612C96.058 45.768 96.5032 46.4243 95.9284 47.2407C95.586 47.7267 94.8588 48.3338 94.1946 48.8449C95.4866 48.6585 97.4333 48.3495 100.035 48.1084C102.98 47.835 105.301 47.7867 107.72 47.9419L107.699 45.1695C106.762 45.6259 105.135 45.9799 102.274 45.8989C100.672 45.8535 98.9214 45.6724 97.2709 45.3987C95.8577 45.1643 94.7743 44.9063 94.0279 44.7012Z" fill="#C9F299"/>
<path fill-rule="evenodd" clip-rule="evenodd" d="M108.338 52.8435C108.062 52.8405 108.048 52.8416 107.847 52.6549C107.534 52.3635 107.701 52.29 107.724 50.9002C107.729 50.5552 107.647 48.8123 107.638 48.6308C107.624 48.3379 107.632 48.321 107.846 48.1155C107.848 48.1136 108.393 47.9055 108.395 47.9063C108.935 48.1256 109.097 48.072 109.131 48.645C109.157 49.0658 109.069 49.4861 109.044 49.9073C109.024 50.2425 108.998 50.5778 108.996 50.9138C108.989 52.3039 109.153 52.3807 108.834 52.6654C108.629 52.848 108.615 52.8465 108.338 52.8435Z" fill="#C9F299"/>
<path fill-rule="evenodd" clip-rule="evenodd" d="M110.175 85.1693C108.715 84.8775 105.201 83.8841 102.675 80.6385C98.9975 75.9139 99.769 69.2865 104.606 65.22C109.82 60.8366 117.892 61.068 122.596 65.8065C127.132 70.3744 126.858 77.4739 121.965 81.9143C122.223 82.3166 122.53 82.9504 122.694 83.8729C123.088 86.094 122.193 88.1306 120.614 88.0429C120.308 88.026 120.039 87.9263 119.814 87.7984C119.555 88.1816 119.153 88.5604 118.555 88.6466C118.076 88.7153 117.664 88.5645 117.344 88.3628C117.08 88.7025 116.686 89.0258 116.123 89.0865C115.653 89.1379 115.134 88.986 114.651 88.5619C114.629 88.5424 114.607 88.5225 114.585 88.5023C114.375 88.8656 114.073 89.2043 113.642 89.3981C112.193 90.0499 110.537 88.563 110.218 85.9643C110.175 85.6181 110.175 85.2855 110.175 85.2263C110.175 85.2075 110.175 85.1884 110.175 85.1693ZM120.316 86.5324C120.433 86.6378 120.585 86.736 120.744 86.7248C121.35 86.5984 121.769 84.7939 121.132 83.1799C120.846 82.455 120.554 82.2844 120.465 82.0879C120.273 81.6626 120.597 81.3705 120.643 81.3281C120.749 81.2325 124.343 78.5659 124.528 73.8428C124.729 68.7139 120.79 64.3271 115.196 63.4958C111.076 62.8838 106.232 64.4246 103.487 68.4116C100.195 73.1925 101.654 79.6414 107.157 82.5949C109.214 83.6981 110.977 83.8316 111.181 83.8988C111.46 83.9906 111.664 84.2591 111.676 84.5471C111.681 84.6653 111.516 85.4603 111.813 86.5103C112.1 87.5265 112.652 88.1164 112.965 88.0935L112.982 88.0901C113.033 88.074 113.179 88.0144 113.334 87.7076C113.521 87.3375 113.568 86.8958 113.579 86.8144L113.636 86.8208C113.647 86.7653 113.659 86.6996 113.669 86.6183C113.695 86.406 113.714 86.0618 113.692 85.9163C113.556 84.9979 113.253 84.6071 113.253 84.5629C113.255 84.3761 113.185 84.1755 113.258 84.003C113.259 84 113.658 83.6063 113.659 83.6063C113.85 83.6059 114.054 83.5354 114.231 83.6066C114.589 83.7521 114.573 83.799 114.686 84.1639C114.943 84.9919 114.963 85.8105 114.978 85.9496C115.017 86.3033 115.018 86.5841 115.011 86.7716C115.1 86.9618 115.284 87.3071 115.544 87.5468C115.825 87.8048 115.992 87.7549 115.995 87.7545L115.975 87.7571C116.246 87.7103 116.411 87.3341 116.499 87.1125C116.506 87.0705 116.512 87.051 116.507 87.0664C116.516 87.0409 116.598 86.7893 116.621 86.6921C116.766 86.0655 116.707 85.6043 116.695 85.5105C116.672 85.329 116.556 84.3581 115.955 83.5916C115.743 83.3209 115.689 83.3175 115.74 82.98C115.741 82.977 116.047 82.4888 116.048 82.4884C116.236 82.4408 116.42 82.3193 116.612 82.347C116.965 82.3988 116.961 82.4423 117.155 82.7366C117.994 84.0101 117.989 85.6613 117.993 85.7186C118.004 85.893 118.039 86.4686 117.906 87.1114C118.029 87.2295 118.192 87.3435 118.361 87.3323C118.655 87.2693 118.822 86.8519 118.909 86.6021C118.915 86.5433 118.924 86.5129 118.918 86.5309C118.926 86.5061 118.998 86.2504 119.014 86.1686C119.142 85.5368 119.078 85.0943 119.065 85.002C119.041 84.8366 118.925 83.9723 118.404 83.253C118.156 82.9095 118.04 82.929 118.092 82.5109C118.092 82.5075 118.37 82.0234 118.372 82.0226C118.985 81.855 119.114 81.7061 119.471 82.2229C120.287 83.4064 120.346 84.8426 120.375 85.3155C120.405 85.7981 120.371 86.2088 120.316 86.5324ZM116.507 87.0664C116.507 87.069 116.507 87.069 116.507 87.0664ZM118.918 86.5309C118.918 86.5335 118.918 86.5335 118.918 86.5309ZM118.89 69.2119C118.929 69.2085 120.116 68.9051 120.801 71.3483C121.224 72.8603 121.214 74.7049 120.734 75.5209C120.27 76.3099 119.303 76.4404 118.587 75.3713C117.528 73.7906 117.015 69.63 118.763 69.1763C118.772 69.174 118.771 69.1744 118.881 69.1523L118.89 69.2119ZM118.988 69.8775L119.037 70.2165C119.038 70.2173 119.038 70.218 119.038 70.2188C119.022 70.1051 119.004 69.9911 118.988 69.8775ZM119.154 70.8154C118.957 71.5556 119.017 73.1794 119.515 74.3115C119.585 74.4709 119.649 74.5864 119.703 74.6704C119.86 74.175 119.893 73.1798 119.622 72.0589C119.486 71.4998 119.31 71.0798 119.154 70.8154ZM109.545 77.2339C108.535 75.5783 108.084 71.5935 109.792 71.1495C109.801 71.1473 109.801 71.148 109.91 71.1259L109.919 71.1851C109.959 71.1821 111.145 70.8784 111.83 73.3219C111.876 73.4843 111.916 73.6508 111.952 73.8191C112.08 74.1889 112.115 74.4165 112.129 74.5058C112.347 75.9383 112.126 76.785 112.112 76.8551L112.052 76.8413C112.046 76.8638 111.81 78.0683 110.864 78.1298C110.321 78.165 109.882 77.802 109.545 77.2339ZM110.123 73.0965C110.007 73.9178 110.107 75.291 110.544 76.2848C110.588 76.3845 110.63 76.467 110.667 76.5353C110.68 76.5555 110.691 76.5746 110.703 76.593C110.708 76.5743 110.713 76.5536 110.719 76.5315C110.699 76.527 110.679 76.5218 110.659 76.5176C110.657 76.5173 110.739 76.2593 110.762 75.7658C110.788 75.1879 110.715 74.6745 110.708 74.616C110.641 74.2155 110.392 73.6054 110.123 73.0965Z" fill="#C9F299"/>
<path fill-rule="evenodd" clip-rule="evenodd" d="M68.3843 57.4159C68.9502 56.1154 69.8968 54.2865 71.2711 53.04C73.6511 50.8811 76.1443 51.4305 77.3156 51.7871C77.585 51.8693 77.6977 52.0845 77.7169 52.1213C77.7184 52.1239 77.7608 52.6346 77.7597 52.6358C77.6469 52.7659 77.5755 52.947 77.4207 53.0246C77.105 53.1836 77.0848 53.1221 76.745 53.0209C73.872 52.1663 71.9146 53.6239 70.3841 56.2485C69.7784 57.2873 69.259 58.6961 69.178 58.9155C69.1669 58.9459 69.0966 59.2365 68.8463 59.3801C68.6265 59.5061 68.2088 59.5361 67.9562 59.157C67.5206 58.5038 65.4998 54.9675 63.0154 54.9225C61.6259 54.8978 60.3697 55.9515 59.4846 56.8324C59.271 57.045 59.0024 57.0454 58.9569 57.0454C58.9534 57.0454 58.4288 56.8331 58.428 56.8316C58.355 56.6599 58.2109 56.5013 58.2105 56.3153C58.2102 55.9718 58.2484 55.968 58.4991 55.7284C59.4976 54.774 61.5353 53.046 63.9425 53.6636C65.8953 54.1646 67.3807 55.9369 68.3843 57.4159Z" fill="#C9F299"/>
<path fill-rule="evenodd" clip-rule="evenodd" d="M77.0626 76.0609C77.0576 75.4062 77.0767 74.6228 77.157 73.8582C77.3725 71.8002 78.1865 68.5515 81.8961 68.6445C82.1781 68.6517 82.3463 68.8294 82.3749 68.8598C82.3772 68.862 82.5587 69.3424 82.558 69.3439C82.4854 69.4988 82.4663 69.6919 82.3386 69.8082C82.0486 70.0722 82.0019 69.9803 81.6056 69.9848C80.3961 69.9987 78.647 70.4967 78.3692 74.6948C78.2962 75.7965 78.4028 77.2084 78.4192 77.4263C78.4208 77.4454 78.4968 77.8133 78.2358 78.0645C78.0585 78.2355 77.6618 78.3728 77.3167 78.0627C76.8975 77.6862 73.7933 74.5099 72.0885 75.5318C71.0719 76.1412 70.6172 77.9697 70.5793 78.0128C70.4555 78.1542 70.3764 78.3518 70.2075 78.4365C70.2044 78.438 69.6389 78.4823 69.6373 78.4812C69.4929 78.3604 69.2911 78.2832 69.2051 78.117C69.0278 77.7765 69.0889 77.754 69.2173 77.3922C69.5934 76.3365 70.7337 73.3425 73.6717 74.061C74.8954 74.3603 76.1355 75.2629 77.0626 76.0609Z" fill="#C9F299"/>
<path fill-rule="evenodd" clip-rule="evenodd" d="M152.498 69.0438C152.644 68.4888 152.838 67.8404 153.08 67.2146C154.616 63.2399 157.108 63.2426 158.64 63.6247C158.913 63.6926 159.037 63.9026 159.058 63.9386C159.06 63.9412 159.128 64.4489 159.127 64.4504C159.021 64.5854 158.959 64.7699 158.808 64.8554C158.473 65.0459 158.448 64.9529 158.07 64.8719C156.808 64.6016 155.221 64.8719 154.058 68.2593C153.74 69.1822 153.509 70.4384 153.473 70.6304C153.471 70.6443 153.45 71.0062 153.142 71.1851C152.943 71.3009 152.529 71.3594 152.258 70.9796C151.961 70.5644 149.899 67.2236 148.13 67.7362C147.064 68.0452 146.228 69.5411 146.183 69.5711C146.025 69.6753 145.897 69.8459 145.711 69.8842C145.707 69.8846 145.15 69.7818 145.149 69.7807C145.042 69.6266 144.867 69.5006 144.829 69.3179C144.751 68.9504 144.81 68.9433 145.026 68.6343C145.811 67.5149 147.781 65.0276 150.607 67.0814C151.327 67.6053 151.997 68.3816 152.498 69.0438Z" fill="#C9F299"/>
<path fill-rule="evenodd" clip-rule="evenodd" d="M138.961 150.725C134.139 151.905 133.49 151.533 133.354 151.479C133.24 151.434 132.728 151.212 132.976 150.503C133.101 150.146 133.424 149.437 135.97 146.634C136.168 146.416 136.235 146.343 136.347 146.224C133.643 142.2 133.702 141.402 133.698 141.361C133.688 141.279 133.579 140.44 134.659 140.52C134.868 140.535 135.86 140.592 139.674 142.25C140.378 141.367 141.858 139.556 142.904 138.689C143.693 138.035 144.048 138.168 144.268 138.239C144.252 138.276 144.237 138.313 144.22 138.35C144.522 138.502 144.734 138.718 144.816 139.732C144.92 141.022 144.715 143.321 144.619 144.282C148.891 146.238 149.105 146.945 149.16 147.317C149.278 148.099 148.344 148.552 146.595 149.038C145.776 149.266 144.855 149.467 144.289 149.584C144.07 154.584 143.505 155.199 143.002 155.403C142.265 155.702 141.578 154.932 140.63 153.528C140.044 152.659 139.319 151.373 138.961 150.725ZM143.793 139.356C143.762 139.431 143.735 139.494 143.715 139.542C142.89 140.154 141.354 141.869 140.289 143.156C140.288 143.156 140.14 143.382 139.87 143.399C139.849 143.4 139.74 143.407 139.613 143.351C139.609 143.349 137.775 142.464 136.16 141.875C135.306 141.564 134.866 141.466 134.645 141.438C134.973 142.688 137.251 146.051 137.271 146.095C137.322 146.207 137.334 146.396 137.194 146.549C137.14 146.608 135.403 148.386 134.32 149.937C134.077 150.286 133.948 150.522 133.882 150.667C134.229 150.676 135.158 150.601 137.494 149.994C138.909 149.626 139.106 149.521 139.283 149.531C139.533 149.546 139.667 149.71 139.69 149.739C139.723 149.781 141.088 152.118 142.175 153.511C142.301 153.673 142.405 153.797 142.49 153.892C142.559 153.606 142.647 153.129 142.747 152.331C142.876 151.304 142.967 150.057 143.013 149.1C143.014 149.078 143.022 148.927 143.061 148.83C143.187 148.514 143.494 148.449 143.543 148.439C143.584 148.43 144.024 148.357 144.846 148.183C144.917 148.168 146.902 147.757 147.755 147.356C147.509 147.153 146.995 146.793 145.926 146.202C145.231 145.818 144.445 145.422 143.84 145.132C143.838 145.131 143.593 145.043 143.504 144.8C143.428 144.597 143.505 144.504 143.67 142.921C143.885 140.869 143.86 139.911 143.809 139.475C143.781 139.494 143.751 139.515 143.72 139.538C143.738 139.496 143.763 139.439 143.794 139.366C143.794 139.363 143.794 139.359 143.793 139.356ZM143.72 139.538C143.658 139.68 143.666 139.66 143.715 139.542C143.717 139.54 143.718 139.539 143.72 139.538Z" fill="#C9F299"/>
<path fill-rule="evenodd" clip-rule="evenodd" d="M109.743 161.231C109.722 161.503 110.08 161.666 110.164 162.361C110.317 163.612 109.183 164.605 108.875 164.893C107.819 165.881 106.028 166.637 104.708 165.742C104.272 165.448 104.384 165.344 104.541 164.847C104.542 164.846 104.946 164.639 104.949 164.639C105.196 164.617 105.358 164.747 105.386 164.77C105.391 164.774 105.4 164.776 105.402 164.783C105.404 164.796 105.392 164.808 105.394 164.821L105.416 164.794C105.638 164.987 105.897 165.13 106.421 165.119C106.915 165.082 107.221 164.953 107.537 164.81L107.538 164.809C107.913 164.605 108.276 164.374 108.565 164.017C108.948 163.546 109.042 163.19 109.054 162.867H109.053C109.047 162.305 108.695 162.314 108.479 161.678C107.991 160.243 109.894 159.332 109.953 159.301C110.115 159.214 110.806 158.847 112.133 158.547C112.175 158.537 112.255 158.521 112.255 158.521C112.376 158.53 112.51 158.51 112.616 158.57C112.618 158.571 112.838 158.853 112.838 158.854C112.822 158.972 112.85 159.105 112.789 159.208C112.669 159.413 112.631 159.379 112.405 159.46C112.252 159.515 111.418 159.817 110.565 160.337C110.112 160.615 109.935 160.831 109.891 160.884C109.722 161.09 109.74 161.201 109.743 161.227C109.743 161.229 109.744 161.23 109.744 161.231H109.743Z" fill="#C9F299"/>
<path fill-rule="evenodd" clip-rule="evenodd" d="M112.984 160.14C111.343 158.05 109.692 155.967 108.05 153.877C107.943 153.74 106.782 152.261 106.719 152.15C106.538 151.832 106.723 151.548 106.752 151.504C106.904 151.269 107.319 150.764 107.37 150.702C108.694 149.091 109.975 148.113 110.229 147.92C114.325 144.795 116.373 145.182 116.987 145.302C117.949 145.49 119.015 146.09 120.242 147.759C120.452 148.045 122.061 150.086 119.846 154.117C118.087 157.317 115.103 159.428 114.789 159.687C114.746 159.723 114.711 159.753 114.682 159.779C114.679 159.793 114.675 159.807 114.67 159.821C114.588 160.065 114.376 160.198 114.151 160.22C113.83 160.314 113.673 160.382 113.565 160.414C113.129 160.544 112.904 160.226 112.886 160.212L112.984 160.14ZM113.686 159.138C113.977 158.824 114.534 158.49 115.242 157.929C118.831 155.088 120.67 151.54 120.037 149.218C119.882 148.65 119.524 148.202 119.054 147.679C117.451 145.896 115.853 145.738 113.044 147.52C112.994 147.552 111.784 148.275 110.15 149.702C109.118 150.603 108.426 151.409 108.052 151.877L113.471 159.203C113.55 159.178 113.621 159.157 113.686 159.138Z" fill="#C9F299"/>
<path fill-rule="evenodd" clip-rule="evenodd" d="M104.697 155.977C104.774 156.093 105.366 156.895 104.596 157.735C104.533 157.803 104.282 158.077 103.627 158.388C103.349 158.52 102.751 158.741 102.537 158.809C102.138 158.936 100.427 159.438 99.2004 159.02C98.8733 158.908 98.6921 158.768 98.6891 158.764C98.61 158.636 98.4816 158.523 98.4617 158.375C98.4613 158.371 98.5794 157.939 98.5809 157.938C98.7124 157.864 98.8259 157.735 98.9765 157.716C99.2719 157.678 99.27 157.73 99.5122 157.9C100.095 158.31 101.586 158.31 102.772 157.851C102.792 157.844 103.264 157.626 103.508 157.412C103.792 157.162 103.833 156.999 103.84 156.968L103.839 156.968C103.875 156.801 103.681 156.819 103.483 156.394C103.404 156.224 103.153 155.583 103.719 154.945C104.544 154.016 106.542 153.607 106.553 153.604C107.181 153.458 107.69 153.382 107.691 153.383C107.812 153.399 107.947 153.385 108.049 153.45C108.051 153.452 108.257 153.744 108.256 153.745C108.235 153.863 108.255 153.997 108.189 154.097C108.055 154.299 108.018 154.261 107.782 154.332C107.622 154.38 106.814 154.622 105.831 155.067C105.151 155.376 104.791 155.673 104.709 155.835C104.698 155.857 104.689 155.882 104.664 155.879C104.653 155.893 104.693 155.97 104.697 155.977Z" fill="#C9F299"/>
<path fill-rule="evenodd" clip-rule="evenodd" d="M107.214 158.778C107.093 159.036 107.212 159.037 107.361 159.303C107.617 159.758 107.7 160.53 106.642 161.236C106.467 161.353 106.354 161.452 105.462 161.875C104.535 162.315 101.951 163.264 101.148 162.209C100.983 161.992 101.021 161.779 101.028 161.741C101.029 161.737 101.274 161.36 101.276 161.36C101.424 161.328 101.571 161.239 101.721 161.265C101.909 161.298 102.049 161.439 102.095 161.49C102.077 161.476 102.072 161.508 102.049 161.538C102.062 161.526 102.075 161.513 102.093 161.495C102.094 161.493 102.093 161.499 102.094 161.501C102.148 161.571 102.724 161.814 104.195 161.444C104.404 161.391 105.085 161.172 105.442 160.961C106.199 160.514 106.344 160.204 106.393 160.03H106.392C106.396 159.936 106.356 159.954 106.287 159.889C105.987 159.608 105.718 159.043 105.932 158.378C106.243 157.416 107.744 156.549 107.865 156.475C108.416 156.141 109.653 155.614 109.705 155.61C109.826 155.601 109.955 155.559 110.069 155.601C110.072 155.602 110.336 155.844 110.336 155.846C110.34 155.965 110.389 156.091 110.346 156.203C110.26 156.429 110.215 156.399 110 156.517C109.856 156.597 109.161 156.98 108.275 157.638C107.395 158.292 107.257 158.661 107.214 158.778L107.214 158.778ZM102.095 161.49C102.099 161.493 102.104 161.498 102.11 161.506C102.115 161.512 102.109 161.505 102.095 161.49Z" fill="#C9F299"/>
<path fill-rule="evenodd" clip-rule="evenodd" d="M57.8914 150.191C56.8245 150.424 55.3876 150.547 53.7672 149.871C51.0616 148.741 49.7997 145.921 49.7997 145.866C49.8005 145.716 49.7439 145.555 49.8027 145.417C49.8039 145.414 50.1276 145.099 50.1291 145.099C50.6251 145.101 50.7337 145.025 50.932 145.471C51.0761 145.794 52.9785 150.213 57.664 149.314C57.105 146.934 57.0396 144.771 57.0511 144.737C57.09 144.625 57.0977 144.49 57.1806 144.404C57.1829 144.402 57.5127 144.255 57.5142 144.255C57.6277 144.297 57.7653 144.301 57.854 144.382C58.037 144.55 57.9961 144.579 58.013 144.824C58.076 145.728 58.2782 147.356 58.7429 149.057C59.9367 148.755 61.9159 148.267 63.8932 148.052C65.3423 147.894 68.7844 147.49 70.0199 149.911C70.9221 151.678 70.3451 153.866 68.7863 155.148C67.1518 156.491 65.0492 156.486 64.6021 156.493C63.7972 156.505 60.4706 156.635 58.4612 151.837C58.2388 151.305 58.0504 150.749 57.8914 150.191ZM58.9939 149.9C59.6405 151.893 60.6712 153.84 62.2805 154.709C62.9397 155.065 63.7854 155.325 65.3511 155.137C67.3937 154.891 68.1534 154.046 68.4232 153.76C68.424 153.759 68.4248 153.759 68.4255 153.757C68.4767 153.704 69.2884 152.879 69.3201 151.579C69.3209 151.559 69.4107 150.114 68.1955 149.366C67.6639 149.039 66.6321 148.618 64.1049 148.852C63.5263 148.905 61.661 149.169 59.1128 149.867C59.0746 149.877 59.0348 149.888 58.9939 149.9Z" fill="#C9F299"/>
<path fill-rule="evenodd" clip-rule="evenodd" d="M80.2975 145.203C79.5237 145.63 78.5125 146.048 77.2036 146.101C73.7199 146.242 71.3016 143.398 71.2886 143.354C71.1698 142.958 71.1568 142.959 71.1606 142.924C71.1644 142.888 71.1873 142.675 71.3792 142.528C71.5695 142.382 71.5802 142.376 71.8198 142.401C72.1217 142.433 72.1049 142.487 72.3044 142.711C72.6479 143.097 74.9156 145.64 78.125 145.025C78.7853 144.898 79.3196 144.683 79.8206 144.424C79.4679 143.816 79.1308 143.161 78.8098 142.461C78.2194 141.176 77.9106 140.218 77.911 140.216C77.9156 140.097 77.8842 139.967 77.9385 139.86C77.9396 139.857 78.2136 139.625 78.2152 139.625C78.3359 139.633 78.4693 139.598 78.5774 139.651C78.8018 139.761 78.7708 139.8 78.8579 140.03C79.589 141.955 80.5539 143.511 80.7316 143.797C80.7477 143.823 80.7641 143.85 80.7802 143.876C80.9208 143.792 81.0634 143.707 81.2101 143.622C81.5025 143.452 83.9666 141.968 86.3031 141.096C88.3163 140.343 90.926 139.838 92.3633 142.173C93.2082 143.545 93.462 146.289 90.8461 148.221C89.6611 149.097 88.095 149.541 87.1797 149.621C84.5987 149.844 82.2419 148.21 80.2975 145.203ZM81.2667 144.613C83.4396 147.739 85.2682 148.152 85.6442 148.247C86.477 148.456 87.3892 148.448 88.7898 147.859C89.5957 147.52 91.2394 146.718 91.6716 144.945C92.0369 143.444 91.3299 141.864 89.9347 141.489C89.3439 141.33 88.2352 141.21 85.8651 142.157C85.3014 142.382 83.5921 143.167 81.374 144.546C81.3389 144.567 81.3034 144.59 81.2667 144.613Z" fill="#C9F299"/>
</svg>
