<svg width="203" height="203" viewBox="0 0 203 203" fill="none" xmlns="http://www.w3.org/2000/svg">
<path fill-rule="evenodd" clip-rule="evenodd" d="M113.099 41.0108C112.991 41.2625 112.908 41.5261 112.776 41.7657C112.657 41.9813 111.981 43.2106 110.376 43.6928C109.596 43.9276 108.93 43.8605 108.804 43.8481C108.282 43.7952 108.284 43.778 107.786 43.6152C85.2064 36.2427 62.5571 36.4148 45.6581 43.9853C28.5949 51.6297 19.7869 65.7721 19.0815 81.6012C18.1972 101.432 29.7983 124.167 51.0746 142.183C68.6168 157.037 88.2326 164.886 102.767 168.263C114.736 171.044 123.889 171.175 129.078 171.018C133.434 170.885 141.783 170.325 150.768 167.34C157.456 165.117 161.977 162.449 164.906 160.447C174.518 153.876 178.508 146.274 180.039 143.009C183.452 135.727 184.004 129.105 184.069 125.183C184.134 121.2 183.54 117.431 183.435 116.764C182.649 111.783 181.272 107.548 180.119 104.53C178.687 100.785 176.83 97.3066 176.505 96.698C171.346 87.0361 164.905 79.8841 161.141 76.028C159.158 73.997 156.91 71.9806 156.532 71.6405C150.829 66.5251 145.999 63.2952 145.89 63.1928C145.691 63.0057 145.472 62.8373 145.292 62.6311C145.13 62.4455 144.204 61.3861 144.293 59.7162C144.337 58.9032 144.625 58.3021 144.679 58.1885C144.788 57.9612 145.417 56.6491 147.034 56.0986C148.618 55.559 149.886 56.1672 150.108 56.2741C150.588 56.5047 150.583 56.516 150.996 56.8531C155.332 60.4006 161.218 65.6018 167.664 73.3392C179.184 87.167 183.356 99.0912 184.999 104.416C186.815 110.302 188.557 118.623 187.556 128.102C186.613 137.035 183.374 144.588 178.743 150.85C172.25 159.629 163.825 164.395 157.747 167.057C146.935 171.792 136.297 172.713 131.802 173C116.509 173.976 103.427 170.896 98.5774 169.677C78.7241 164.684 60.6716 154.749 47.0393 143.219C22.539 122.499 9.49725 94.5222 15.5205 70.4765C19.7719 53.5043 33.2179 39.7677 54.6214 33.9248C62.3486 31.8155 82.4175 27.6215 110.423 35.9093C110.605 35.9633 111.588 36.2543 112.387 37.2533C113.431 38.5613 113.288 39.9601 113.264 40.2053L113.099 41.0108Z" fill="#C9F299"/>
<path fill-rule="evenodd" clip-rule="evenodd" d="M136.645 42.4207L137.376 42.2902C137.855 44.6606 134.862 46.7047 132.236 47.7461C129.739 48.7364 126.762 49.2382 124.479 49.0574C120.778 48.7646 119.094 47.1434 118.991 45.2962C118.875 43.2142 120.843 41.7716 121.285 41.4453C121.606 41.2076 123.285 40.1021 125.949 39.4514C131.189 38.1708 136.654 39.0828 137.522 41.8799C137.594 42.1136 137.6 42.1721 137.613 42.2332L136.645 42.4207ZM135.915 42.5621L135.677 42.6082C135.549 42.0251 134.369 41.6842 134.236 41.6456C131.459 40.8431 126.667 41.7074 123.84 43.4156C123.572 43.5772 122.796 44.0808 122.372 44.5477C122.334 44.5889 122.018 44.9369 122.018 45.1481C122.098 45.4061 122.995 46.0976 125.224 46.2914C125.228 46.2918 128.049 46.6792 131.429 45.7023C133.333 45.1522 134.316 44.5151 134.709 44.2361C135.954 43.3522 135.914 42.6933 135.917 42.6524C135.917 42.6059 135.918 42.6022 135.915 42.5621Z" fill="#C9F299"/>
<path fill-rule="evenodd" clip-rule="evenodd" d="M136.182 43.3257C136.093 43.0928 136.161 43.0643 136.136 43.0572C135.896 42.9863 136.11 42.9045 136.202 42.6732C136.351 42.2997 136.666 42.1632 136.721 42.1395C136.77 42.1185 137.044 41.9993 137.379 42.09C137.419 42.1009 137.584 42.1635 137.597 42.171C138.129 42.4823 138.148 43.011 138.176 43.5525C138.431 48.3912 138.36 75.435 138.116 101.337C138.037 109.779 138.03 110.459 137.996 112.377C137.715 128.068 137.692 129.199 137.536 135.884L137.224 149.196C137.217 149.459 137.114 149.688 137.096 149.728C134.304 155.972 131.513 162.216 128.712 168.455C128.679 168.529 128.487 168.955 127.938 169.104C127.849 169.129 127.292 169.281 126.813 168.82C126.607 168.621 126.524 168.364 126.51 168.319C123.467 158.901 120.075 148.252 119.519 146.506C119.448 146.283 119.49 146.275 119.669 132.23C119.67 132.165 119.679 131.418 119.679 131.418C119.753 131.244 119.768 131.029 119.902 130.895C119.904 130.893 120.423 130.677 120.425 130.678C120.598 130.75 120.811 130.764 120.943 130.897C121.077 131.031 121.132 131.233 121.165 131.42C121.21 131.67 121.171 131.927 121.173 132.181C121.326 146.054 121.324 146.054 121.326 146.066C123.424 155.982 125.721 156.468 127.863 164.271C130.023 159.081 132.367 153.966 134.43 148.737C134.436 148.724 134.624 132.923 134.64 131.548L134.932 112.327C134.982 109.02 135.003 109.021 135.329 93.9072C135.494 86.2752 136.266 54.3927 136.239 45.6083C136.234 43.9073 136.205 43.5383 136.182 43.3257ZM137.06 43.9838L137.058 44.0232L137.134 44.028C137.11 44.0119 137.086 43.9973 137.06 43.9838ZM120.445 112.861C120.385 112.861 120.038 112.86 119.749 112.57C119.66 112.481 119.586 112.373 119.537 112.256C119.488 112.137 119.474 112.004 119.46 111.875C119.448 111.764 119.463 111.652 119.46 111.541C119.192 98.9558 119.174 98.9569 119.052 91.7888C118.923 84.2569 118.908 84.2573 118.983 76.725C119.008 74.1555 119.041 71.586 119.099 69.0173C119.142 67.1292 119.264 61.7145 119.786 45.4193C119.795 45.12 119.802 45.1065 120.014 44.895C120.145 44.7638 120.356 44.7495 120.527 44.6775C121.004 44.4769 121.248 45.3383 121.271 45.4193C121.271 45.42 121.585 56.3307 121.587 56.4259C121.699 60.624 121.815 64.8222 121.899 69.0207C121.951 71.5898 121.978 74.1593 121.997 76.7288C122.052 84.261 122.038 84.261 121.891 91.7922C121.831 94.8173 121.764 97.8424 121.694 100.867C121.612 104.426 121.518 107.985 121.433 111.543C121.43 111.654 121.433 111.765 121.433 111.876C121.433 111.936 121.432 112.283 121.142 112.572C120.852 112.861 120.506 112.861 120.445 112.861Z" fill="#C9F299"/>
<path fill-rule="evenodd" clip-rule="evenodd" d="M121.555 60.2535H121.555C121.557 60.4177 121.477 61.1096 123.228 61.5041C124.344 61.7557 125.492 61.6965 126.019 61.6961C126.33 61.6957 126.558 61.7081 128.165 61.5765C129.12 61.4981 129.383 61.4194 129.922 61.365C130.197 61.3372 131.951 61.1542 133.314 60.6461C133.639 60.525 134.858 60.0626 135.149 59.3479C135.161 59.3197 135.159 59.2954 135.168 59.2672C135.21 59.1442 135.232 59.0122 135.298 58.9005C135.502 58.5547 135.834 58.4685 135.891 58.4535C135.951 58.4377 136.293 58.3485 136.65 58.56C136.73 58.6069 137.225 58.9005 137.111 59.6149C137.033 60.1065 136.829 62.2624 132.352 63.8366C131.794 64.0327 130.555 64.3676 130.031 64.4385C128.581 64.6335 127.695 64.6162 127.491 64.6125C127.341 64.6095 126.428 64.5915 125.613 64.4887C125.164 64.4321 124.514 64.2791 124.419 64.257C120.139 63.2516 119.739 61.1471 120.091 59.9329C120.105 59.8856 120.184 59.6107 120.447 59.4364C120.45 59.4345 120.977 59.3205 120.978 59.3212C121.121 59.424 121.309 59.484 121.407 59.6306C121.59 59.9066 121.566 59.9242 121.555 60.2535Z" fill="#C9F299"/>
<path fill-rule="evenodd" clip-rule="evenodd" d="M135.743 69.825C135.783 69.8708 136.009 70.1318 135.98 70.5416C135.971 70.6673 135.938 70.794 135.881 70.9069C135.759 71.1521 135.722 71.1244 135.531 71.3213C133.781 73.1273 132.358 73.8866 131.591 74.2669C131.308 74.4075 130.243 74.853 129.592 74.97C128.604 75.1478 127.746 75.1268 127.722 75.1268C127.26 75.1219 126.132 74.9861 125.384 74.7353C123.199 74.0025 121.724 72.7294 121.032 72.1001C120.99 72.0619 120.54 71.6524 120.517 71.6115C120.423 71.4465 120.263 71.304 120.238 71.1161C120.238 71.1131 120.382 70.5705 120.383 70.5698C120.548 70.4741 120.689 70.3088 120.878 70.284C121.235 70.2371 121.224 70.3226 121.538 70.4996C124.178 71.9884 126.011 72.0379 126.242 72.0679C126.748 72.1335 127.153 72.1391 127.891 72.1039C128.572 72.0716 128.921 71.9666 129.251 71.9201C129.634 71.8658 131.65 71.5924 134.241 69.8104C134.461 69.6589 134.439 69.6165 134.693 69.5333C134.749 69.5149 135.075 69.408 135.434 69.5869C135.611 69.675 135.613 69.6758 135.743 69.825Z" fill="#C9F299"/>
<path fill-rule="evenodd" clip-rule="evenodd" d="M121.235 119.736C120.95 120.038 120.697 120.446 120.442 121.54C120.098 123.018 120.429 124.272 120.885 124.87C121.204 125.288 121.568 125.443 121.687 125.539C121.768 125.604 122.245 125.984 122.266 126.697C122.269 126.8 122.287 127.409 121.758 127.887C121.667 127.968 121.115 128.466 120.264 128.211C119.838 128.084 114.509 126.113 111.642 125.136C109.45 124.389 107.506 123.716 107.286 123.626C104.564 122.51 103.55 117.489 104.956 114.666C105.768 113.037 107.058 112.716 107.334 112.635L107.39 112.835C108.18 112.631 110.101 112.026 115.089 113.685C116.722 114.229 119.973 115.581 122.303 116.913C122.394 116.965 122.922 117.267 123.042 117.983C123.156 118.67 122.778 119.13 122.714 119.208C122.271 119.746 121.677 119.763 121.575 119.766C121.442 119.77 121.335 119.754 121.314 119.751C121.281 119.746 121.256 119.741 121.235 119.736ZM107.697 114.518C107.501 114.604 106.671 114.938 106.43 116.625C106.135 118.685 107.065 121.12 108.09 121.517C108.252 121.579 112.585 122.894 113.471 123.144C115.395 123.686 116.097 123.884 117.131 124.167C117.03 123.655 116.977 123.082 116.993 122.441C117.018 121.381 117.27 120.481 117.27 120.48C117.289 120.403 117.469 119.767 117.822 119.08C118.005 118.724 118.212 118.396 118.439 118.105C117.359 117.459 115.204 116.225 113 115.306C112.285 115.008 109.8 113.989 108.052 114.208C107.962 114.219 107.963 114.221 107.875 114.243C107.845 114.25 107.817 114.257 107.79 114.262L107.847 114.465C107.851 114.477 107.837 114.465 107.697 114.518Z" fill="#C9F299"/>
<path fill-rule="evenodd" clip-rule="evenodd" d="M112.623 144.644C112.846 144.255 112.948 142.858 113.131 141.419C113.351 139.692 113.578 138.276 114.446 136.574C115.446 134.613 116.998 133.17 117.269 132.918C118.317 131.944 119.182 131.405 119.675 131.088C120.006 130.875 120.343 130.951 120.4 130.965C120.52 130.992 120.637 131.042 120.738 131.113C120.787 131.147 121.069 131.346 121.137 131.745C121.147 131.802 121.203 132.132 120.978 132.452C120.82 132.675 120.786 132.64 120.568 132.804C119.918 133.291 117.357 135.494 116.515 138.709C116.223 139.824 116.201 140.787 116.137 142.872C116.079 144.745 115.818 145.503 115.743 145.72C114.742 148.624 111.583 148.045 111.377 148.017C110.504 147.894 108.632 147.471 107.355 146.807C102.992 144.54 104.307 139.925 104.632 138.808C105.506 135.807 107.257 132.867 109.117 129.924C109.277 129.672 109.284 129.657 109.572 129.578C109.575 129.577 110.131 129.646 110.133 129.648C110.253 129.799 110.442 129.917 110.493 130.105C110.542 130.285 110.457 130.478 110.409 130.658C110.376 130.78 108.347 134.46 107.384 137.622C106.076 141.916 107.431 143.086 107.892 143.443C108.511 143.922 109.21 144.063 109.981 144.267C111.093 144.561 111.798 144.664 112.426 144.656C112.442 144.655 112.486 144.655 112.622 144.642C112.623 144.642 112.623 144.643 112.623 144.644Z" fill="#C9F299"/>
<path fill-rule="evenodd" clip-rule="evenodd" d="M106.211 127.025C106.264 127.052 106.565 127.206 106.686 127.587C106.724 127.704 106.74 127.831 106.731 127.953C106.708 128.241 106.659 128.228 106.541 128.49C106.436 128.721 104.312 133.484 104.118 133.919C103.446 135.428 102.195 138.129 101.481 139.719C101.325 140.066 100.339 142.656 96.9015 142.232C95.9614 142.116 95.2327 141.817 95.0947 141.761C94.233 141.407 93.0319 140.763 92.0381 139.996C91.0087 139.201 88.677 137.333 88.9575 134.295C89.1623 132.08 90.7279 129.968 92.817 127.718C94.0012 126.442 95.2106 125.263 96.3154 124.004C96.5104 123.781 96.5145 123.76 96.8089 123.726C96.8119 123.726 97.359 123.882 97.3598 123.884C97.4509 124.048 97.6102 124.191 97.632 124.378C97.6744 124.743 97.614 124.742 97.398 125.039C95.2747 127.961 92.2099 131.109 91.7291 133.64C91.476 134.974 91.9069 135.964 93.5779 137.079C93.6589 137.133 93.9424 137.323 94.6076 137.721C95.6329 138.336 96.3518 138.578 96.7523 138.721C96.7549 138.722 97.9065 139.161 98.313 138.815C98.4574 138.692 98.4559 138.647 98.8995 137.865C101.4 133.457 101.406 133.462 103.965 129.088C104.71 127.814 104.721 127.82 104.916 127.441C104.943 127.389 105.097 127.088 105.478 126.966C105.858 126.844 106.159 126.998 106.211 127.025Z" fill="#C9F299"/>
<path fill-rule="evenodd" clip-rule="evenodd" d="M83.9243 131.534C84.0109 131.463 84.0435 131.438 84.42 130.997C85.2983 129.966 86.0096 128.426 86.7716 127.224C87.8768 125.48 89.2935 123.801 91.2075 122.142C92.0861 121.38 92.6138 121.02 92.8121 120.859C93.3585 120.415 93.8468 120.688 93.9251 120.732C94.2784 120.929 94.3699 121.26 94.386 121.318C94.4903 121.695 94.3279 121.987 94.2998 122.037C94.1963 122.224 94.188 122.22 94.0226 122.354C93.8974 122.456 92.3663 123.915 90.9023 126.122C89.9201 127.602 89.5466 128.322 88.9545 129.722C88.9429 129.749 88.4123 130.961 87.8164 132.003C87.1129 133.233 86.6955 133.604 86.508 133.785C86.3201 133.967 84.4875 135.838 82.1843 134.273C80.9824 133.455 79.9928 132.044 78.7058 130.699C78.0364 129.999 76.254 127.214 79.986 123.191C80.5474 122.585 81.0855 122.115 81.1928 122.019C81.4155 121.821 81.423 121.803 81.7215 121.804C81.7245 121.804 82.245 122.021 82.2458 122.022C82.3181 122.197 82.4618 122.358 82.4614 122.548C82.4606 122.914 82.3905 122.9 82.1501 123.176C79.3961 126.337 79.7175 128.205 80.4045 128.799C80.4056 128.801 80.5039 128.857 81.1354 129.372C82.2161 130.254 83.433 131.345 83.9243 131.534Z" fill="#C9F299"/>
<path fill-rule="evenodd" clip-rule="evenodd" d="M106.983 92.5623C107.454 92.643 107.694 92.9887 107.734 93.0472C107.82 93.1702 107.883 93.3116 107.915 93.4578C107.926 93.5077 107.978 93.744 107.888 94.098C107.324 96.3142 105.487 98.292 102.754 100.29C101.957 100.872 101.907 100.864 101.355 101.27C100.79 101.685 100.78 101.67 100.216 102.086C99.8835 102.331 98.4915 103.334 97.6748 103.811C96.891 104.269 96.8299 104.296 96.7523 104.33C95.9426 104.691 95.7352 104.784 94.4974 105.222C94.1426 105.348 92.5103 105.848 92.475 105.846C92.2819 105.832 92.0738 105.881 91.8953 105.805C91.8923 105.804 91.5098 105.433 91.5098 105.432C91.5165 105.255 91.4625 105.065 91.5319 104.902C91.6815 104.551 91.7269 104.576 92.061 104.389C93.1601 103.777 94.2904 103.06 95.1353 102.577C95.5571 102.336 95.5466 102.318 95.9858 102.11C96.6146 101.811 96.609 101.802 97.2427 101.512C98.9231 100.746 99.5546 100.373 99.7477 100.259C100.63 99.7372 100.745 99.6382 101.102 99.3693C101.555 99.0285 103.101 97.8787 104.313 96.315C105.397 94.9162 105.56 93.8992 105.597 93.6667C105.648 93.3532 105.625 93.3408 105.798 93.0746C105.836 93.0153 106.058 92.6748 106.521 92.5725C106.75 92.5222 106.752 92.523 106.983 92.5623Z" fill="#C9F299"/>
<path fill-rule="evenodd" clip-rule="evenodd" d="M116.683 94.4385C116.67 94.4239 116.632 94.3853 116.647 94.3965C116.683 94.4239 116.402 94.2128 116.358 93.9072C116.358 93.9042 116.499 93.3559 116.5 93.3552C117.001 93.0597 117.05 92.9022 117.542 93.2112C118.654 93.9094 119.383 95.3817 119.702 96.0634C119.809 96.2929 120.09 97.0635 120.103 97.113C120.176 97.392 120.341 98.1964 120.359 98.3138C120.545 99.6076 120.585 100.899 120.592 101.124C120.594 101.209 120.633 101.665 120.65 102.413C120.65 102.433 120.779 103.821 120.708 105.405C120.547 108.983 119.284 110.148 118.069 110.406C117.384 110.552 116.803 110.371 116.779 110.364C116.316 110.238 116.111 109.874 116.076 109.811C116.003 109.681 115.953 109.534 115.935 109.386C115.875 108.897 116.134 108.568 116.179 108.51C116.248 108.424 116.673 107.885 117.511 108.144C117.649 108.187 117.809 108.249 118.086 107.868C118.718 107 118.896 105.208 118.941 104.726C118.985 104.251 119.012 102.905 118.96 102.432C118.851 101.424 118.756 101.022 118.628 100.478C118.429 99.642 118.402 99.6233 118.072 98.4653C117.906 97.8792 117.884 97.8859 117.831 97.6463C117.811 97.5571 117.769 97.3643 117.556 96.5371C117.18 95.0753 116.795 94.5825 116.682 94.4393L116.683 94.4385Z" fill="#C9F299"/>
<path fill-rule="evenodd" clip-rule="evenodd" d="M112.567 98.6132C112.453 98.3124 111.958 96.5593 107.002 97.0243C106.872 97.0363 106.872 97.0423 106.86 97.0382C106.744 96.9981 106.774 96.9456 106.659 96.9054C106.718 96.8514 106.732 96.7581 106.792 96.7041C106.792 96.7041 107.116 96.6013 107.468 96.5046C108.853 96.1228 112.422 95.2577 114.061 97.6262C115.263 99.3617 114.66 102.054 114.581 102.554C114.532 102.862 114.312 104.264 113.572 106.324C113.334 106.987 113.138 107.432 113.128 107.443C112.965 107.622 112.833 107.836 112.638 107.979C112.035 108.423 111.403 108.328 111.293 108.311C110.527 108.196 110.14 107.666 110.073 107.574C109.632 106.972 109.725 106.339 109.74 106.229C109.798 105.83 109.764 105.805 110.023 105.496C110.111 105.39 110.761 104.575 111.326 103.63C111.902 102.666 112.186 101.991 112.273 101.789C112.365 101.574 112.49 101.121 112.506 101.062C112.929 99.5282 112.647 98.8386 112.566 98.6139L112.567 98.6132Z" fill="#C9F299"/>
<path fill-rule="evenodd" clip-rule="evenodd" d="M104.363 101.518C104.383 101.384 104.502 101.074 103.784 100.821C102.664 100.426 100.713 100.596 99.7789 100.693C99.7556 100.696 99.732 100.698 99.7088 100.701C99.6851 100.705 99.6604 100.725 99.6382 100.716C99.5647 100.683 99.5108 100.615 99.4369 100.583C99.4924 100.524 99.5149 100.44 99.57 100.381C99.5779 100.373 99.5824 100.384 99.7091 100.347C102.669 99.466 104.923 99.2737 105.679 100.71C106.125 101.558 105.794 102.735 105.775 102.809C105.768 102.84 105.628 103.437 105.224 104.306C105.137 104.493 104.877 104.972 104.741 105.161C104.513 105.479 103.62 106.785 101.35 108.815C101.221 108.93 101.143 108.998 101.143 108.998C100.99 109.084 100.851 109.2 100.685 109.255C100.609 109.281 100.171 109.426 99.687 109.192C99.1886 108.95 99.0386 108.503 99.0124 108.426C98.841 107.917 99.0412 107.5 99.0757 107.428C99.225 107.117 99.2498 107.132 99.5048 106.9C100.798 105.726 102.276 104.109 102.712 103.592C102.86 103.418 103.435 102.862 103.743 102.497C104.24 101.91 104.346 101.559 104.361 101.518H104.363Z" fill="#C9F299"/>
<path fill-rule="evenodd" clip-rule="evenodd" d="M37.5874 105.002C36.6731 104.584 32.7165 104.301 32.2916 104.27C28.3447 103.988 22.8765 103.852 20.0936 103.834C20.028 103.834 19.6519 103.832 19.3387 103.515C19.2424 103.417 19.1625 103.3 19.1107 103.173C19.0852 103.111 18.9394 102.756 19.1152 102.341C19.2859 101.939 19.6297 101.798 19.6897 101.773C19.8199 101.72 19.9639 101.705 20.1041 101.691C20.1367 101.688 20.2279 101.696 21.4054 101.699C29.0797 101.723 33.1897 101.976 35.3085 102.187C34.5307 101.132 34.098 100.138 33.8767 99.6018C33.7252 99.2347 33.6135 98.9763 33.4057 98.1225C32.8972 96.0326 32.7829 92.0895 33.6409 87.9307C33.6536 87.8688 33.7931 87.1916 33.8134 87.1605C33.9161 87.0018 33.9679 86.7933 34.1231 86.6857C34.1257 86.6838 34.677 86.5638 34.6785 86.5646C34.8375 86.667 35.0471 86.7176 35.1547 86.8728C35.3636 87.1743 35.292 87.2028 35.2631 87.5681C35.2016 88.3477 34.983 91.8356 35.7817 95.3388C35.8237 95.5237 35.9599 96.1537 36.3787 97.503C36.4916 97.8671 36.5055 97.8618 36.6127 98.2275C36.6697 98.4225 36.9847 99.4972 37.5791 100.576C38.6265 102.477 40.0076 103.276 40.3421 103.474C40.4085 103.513 40.4647 103.536 40.4659 103.536C40.5791 103.62 40.7107 103.683 40.806 103.787C40.8495 103.835 41.1007 104.109 41.0839 104.545C41.0752 104.76 41.076 104.763 40.9856 104.958C40.9796 104.971 40.9684 104.995 40.9504 105.028C44.3314 108.741 51.0124 116.572 55.5562 118.815C60.453 121.233 70.3102 122.184 74.3062 122.434C80.6692 121.601 87.0304 120.751 93.3934 119.919C93.4612 119.91 93.825 119.862 94.2386 120.059C99.9277 122.766 105.61 125.485 111.299 128.191C120.277 129.915 122.884 130.55 123.78 130.806C124.851 130.056 127.461 126.496 128.179 123.147C128.536 121.483 128.176 120.67 128.117 120.538C128.116 120.538 128.116 120.537 128.116 120.537C128.065 120.423 127.327 118.325 121.942 114.328C117.565 111.078 113.112 108.801 111.814 108.438C108.694 107.564 102.737 108.825 100.613 109.384C100.567 109.396 100.309 109.464 100.022 109.365C96.5482 108.177 93.0754 106.986 89.6036 105.79C89.1997 105.651 88.9252 105.207 89.016 104.761C89.0441 104.623 89.0711 104.631 89.5845 103.095C91.0035 98.8477 93.279 92.0801 98.7975 89.0722C97.7445 88.4497 96.4987 87.6963 95.034 86.7858C94.7891 86.6336 94.7614 86.6643 94.5825 86.4386C94.5424 86.388 94.3117 86.0962 94.3597 85.6623C94.4096 85.2146 94.7107 84.9761 94.7629 84.9348C95.1049 84.6637 95.4746 84.705 95.5387 84.7121C95.8147 84.7425 95.8069 84.774 96.054 84.9C96.3596 85.0552 100.526 87.0176 102.813 88.0545C103.138 88.2018 103.82 88.5337 105.391 89.2406C105.507 89.2931 105.823 89.4611 106.632 89.8605C107.429 90.2542 110.26 91.8213 111.67 92.1828C113.074 92.5425 114.891 92.523 116.327 92.4183C116.25 92.2938 116.165 92.1532 116.157 92.1356C116.064 91.9485 115.908 91.5037 115.889 91.4478C115.717 90.9577 115.069 88.9466 116.155 87.5295C116.316 87.3195 116.295 87.2955 116.517 87.1518C116.571 87.1166 116.883 86.9137 117.31 87.0026C117.343 87.0093 117.532 87.0487 117.701 87.1676C118.066 87.4237 118.134 87.789 118.147 87.8535C118.172 87.9881 118.172 88.1306 118.145 88.2648C118.107 88.4467 118.003 88.6211 117.983 88.6541C117.984 88.6526 117.983 88.653 117.982 88.6552C117.982 88.656 117.981 88.6563 117.981 88.6567C117.981 88.6563 117.982 88.656 117.982 88.6556C117.978 88.665 117.966 88.7028 117.974 88.7887C117.994 88.9882 118.09 89.2357 118.103 89.2665C118.107 89.2747 118.198 89.5578 118.423 89.9497C118.564 90.1942 118.613 90.3097 118.854 90.6813C118.908 90.765 118.896 90.7706 119.049 91.086C119.205 91.4073 119.539 92.5811 121.031 95.0786C121.187 95.34 121.19 95.3493 121.166 95.6531C121.166 95.6568 120.949 96.1267 120.948 96.1271C120.781 96.1743 120.62 96.2812 120.448 96.2677C120.089 96.2396 120.092 96.2043 119.816 95.9722C118.854 95.1637 118.144 94.4853 117.651 93.9832C115.867 94.3916 112.902 94.9042 110.622 94.4178C109.201 94.1145 106.543 93.1312 105.027 92.4468C104.208 92.0767 104.206 92.0816 103.411 91.6612C102.893 91.3867 101.927 90.8812 100.342 89.9722C94.455 92.637 92.3321 100.315 91.0245 104.361L100.358 107.428C102.009 106.987 107.865 105.54 111.715 106.231C112.301 106.337 112.902 106.457 114.733 107.322C119.827 109.731 129.296 115.831 130.589 120.123C131.845 124.288 127.869 130.846 125.64 132.736C124.578 133.636 123.848 133.653 123.224 133.446C122.093 133.072 114.095 131.624 113.299 131.479C110.519 130.976 110.518 130.983 110.404 130.948C110.344 130.93 110.286 130.908 110.229 130.882C107.304 129.53 104.379 128.175 101.458 126.814C98.7495 125.553 96.156 124.012 93.3401 123.013C92.739 122.8 92.0756 123.182 91.4426 123.261C82.2529 124.408 82.356 126.046 73.1261 125.281C70.1347 125.034 60.1995 124.049 54.6735 121.396C52.5022 120.354 49.3954 118.18 43.2476 111.322C40.4655 108.218 38.3167 105.613 37.5874 105.002ZM117.982 88.6556C117.982 88.6556 117.982 88.6552 117.982 88.6552C117.982 88.6548 117.982 88.6545 117.983 88.6541C117.982 88.6545 117.982 88.6548 117.982 88.6556ZM148.165 103.75C144.244 98.9625 140.179 94.2952 136.266 89.5016C136.146 89.355 136.08 89.1491 136.094 88.9601C136.094 88.9571 136.345 88.455 136.347 88.4542C136.525 88.3965 136.695 88.2675 136.882 88.2813C137.071 88.2956 137.265 88.392 137.392 88.5326C141.652 93.243 145.811 98.0445 150.017 102.804C150.349 103.18 150.283 103.586 150.271 103.675C149.9 106.388 148.431 119.165 150.377 128.439C151.219 132.447 152.203 133.784 152.382 134.286C152.383 134.288 152.442 134.525 152.442 134.527C152.446 134.567 152.474 134.813 152.436 135.025C152.416 135.138 152.293 135.829 151.537 136.151C146.262 138.402 143.113 139.686 142.378 139.986C141.676 140.272 141.123 139.94 141.03 139.885C140.868 139.788 139.724 138.868 138.69 137.63C136.358 134.838 135.558 131.823 134.846 126.931C134.059 121.525 135.085 116.646 135.241 115.488C135.364 114.582 135.733 111.624 135.924 110.21C135.835 110.143 135.742 110.08 135.673 109.993C135.633 109.943 135.401 109.652 135.448 109.218C135.496 108.77 135.796 108.531 135.849 108.489C136.19 108.217 136.56 108.257 136.624 108.264C137.02 108.306 137.001 108.409 137.029 108.39C137.202 108.268 137.2 108.266 137.228 108.246C137.403 108.127 137.432 108.129 137.476 108.104L137.493 108.235C137.492 108.249 137.488 108.297 137.484 108.363C138.574 108.007 139.665 107.655 140.755 107.298C141.283 107.125 141.278 107.111 141.326 107.105C141.466 107.087 141.605 107.042 141.745 107.052C141.81 107.056 142.181 107.082 142.47 107.409C142.513 107.46 142.767 107.748 142.737 108.198C142.707 108.633 142.427 108.879 142.379 108.921C142.227 109.056 142.045 109.123 142.014 109.134C140.029 109.87 139.785 109.899 138.194 110.475C138.019 112.104 137.713 115.503 137.587 116.395C136.708 122.611 137.48 126.197 137.735 127.574C138.163 129.892 138.606 131.752 139.426 133.419C140.22 135.032 141.243 136.117 142.062 136.849L148.951 133.962C148.12 131.877 147.192 128.478 146.936 122.778C146.615 115.645 147.495 107.955 148.165 103.75ZM89.4191 60.4537C85.9402 61.9563 82.4767 63.4938 78.9975 64.9946C78.6105 65.1615 74.4975 66.9356 74.1401 67.0256C74.0002 67.0605 73.8176 67.0676 73.7895 67.0687C72.7072 67.1107 72.7072 67.0968 60.2557 67.4306C23.9137 68.4056 23.9107 68.43 23.856 68.4093C23.6786 68.3426 23.4637 68.3366 23.3246 68.2083C23.3224 68.2061 23.085 67.6968 23.0854 67.6953C23.1506 67.5195 23.1551 67.3061 23.2822 67.1685C23.4109 67.0293 23.6066 66.9363 23.7956 66.9251C24.3214 66.8932 68.1855 64.494 72.0457 64.2828C72.4984 64.2581 72.9784 64.3687 73.404 64.212C75.258 63.5287 77.0077 62.5901 78.8134 61.7883C79.596 61.4407 88.0256 57.6986 88.6395 57.5418C88.7449 57.5152 90.3671 57.2617 92.289 57.5478C98.9884 58.5457 101.868 64.728 102.858 67.1512C108.746 70.3166 114.631 73.4868 120.519 76.6518C120.946 76.881 120.953 76.8686 120.985 76.8948C121.095 76.9837 121.223 77.0531 121.314 77.1615C121.355 77.211 121.593 77.4967 121.556 77.9317C121.517 78.381 121.222 78.627 121.171 78.6693C121.121 78.711 120.836 78.9491 120.401 78.9116C120.26 78.8996 120.124 78.8493 119.994 78.795C119.818 78.7215 119.656 78.6161 119.485 78.5298C114.051 75.7758 108.613 73.0271 103.179 70.2738C102.516 69.9382 101.853 69.603 101.192 69.2632C100.68 69 100.553 68.5698 100.452 68.3332C99.2752 65.5725 97.683 63.318 95.6632 61.9353C93.1556 60.219 90.7016 60.3165 89.4191 60.4537Z" fill="#C9F299"/>
<path fill-rule="evenodd" clip-rule="evenodd" d="M172.166 113.928C176.553 117.505 175.969 125.307 171.615 134.7C170.483 137.144 169.309 139.187 168.793 140.074C168.483 140.608 166.035 144.701 162.839 148.773C160.464 151.801 158.441 153.999 157.436 155.07C157.415 155.093 155.957 156.623 154.019 158.406C151.087 161.104 138.044 172.863 128.132 168.507C128.099 168.492 127.729 168.33 127.716 168.321C127.613 168.243 127.492 168.184 127.406 168.087C127.366 168.043 127.136 167.789 127.155 167.388C127.157 167.356 127.165 167.184 127.249 167.008C127.275 166.954 127.424 166.641 127.809 166.503C128.193 166.366 128.506 166.512 128.561 166.538C132.396 168.333 136.914 166.557 138.009 166.123C139.553 165.513 144.723 163.361 152.176 156.085C152.792 155.484 153.494 154.802 155.738 152.399C156.276 151.821 158.833 149.114 162.198 144.68C162.576 144.183 164.682 141.446 167.152 137.428C171.974 129.585 174.063 122.521 172.995 118.296C172.77 117.404 172.298 116.081 171.02 114.991C169.994 115.94 168.921 116.93 167.062 118.634C166.929 118.756 166.936 118.766 166.777 118.853C166.236 119.145 165.75 118.908 165.671 118.869C165.641 118.856 165.458 118.766 165.341 118.638C164.239 117.439 163.143 116.235 162.056 115.023C156.462 108.788 156.447 108.799 156.012 108.215C156.009 108.212 155.896 107.988 155.893 107.981C155.576 107.162 156.041 106.576 156.116 106.481C156.171 106.412 156.233 106.347 156.299 106.288C157.115 105.562 157.934 104.838 158.764 104.127C159.213 103.742 166.406 97.6295 166.463 97.5834C166.517 97.5406 166.809 97.3059 167.267 97.2912C167.821 97.2736 168.161 97.5931 168.22 97.649C168.304 97.7289 169.822 99.5499 169.96 99.7156C172.284 102.504 174.604 105.297 176.928 108.086C177.001 108.172 177.08 108.254 177.151 108.341C177.599 108.885 177.284 109.446 177.271 109.466C177.207 109.561 177.12 109.638 177.056 109.733L176.896 109.549C174.589 111.68 173.264 112.91 172.166 113.928ZM175.133 109.063L167.257 100.553L159.437 107.584L166.438 116.072L175.133 109.063Z" fill="#C9F299"/>
<path fill-rule="evenodd" clip-rule="evenodd" d="M127.553 148.704C127.013 149.419 126.476 150.135 125.932 150.846C125.93 150.849 125.512 151.307 125.036 150.868C124.65 150.513 120.222 146.427 120.221 146.426C120.19 146.361 120.133 146.303 120.128 146.233C120.128 146.229 120.19 146.031 120.192 146.03C120.254 146 120.309 145.945 120.378 145.939C120.45 145.934 120.527 145.957 120.584 146C122.143 147.17 123.665 148.388 125.216 149.568C125.827 148.588 126.433 147.604 127.046 146.624C127.313 146.199 127.95 146.085 128.346 146.469C128.363 146.486 128.462 146.582 128.526 146.718C128.799 147.303 129.067 147.89 129.337 148.477C129.86 147.785 130.382 147.092 130.908 146.403C130.984 146.303 131.225 146.143 131.491 146.219C131.503 146.223 131.575 146.244 131.64 146.293C131.662 146.309 131.68 146.329 131.701 146.347C132.858 147.325 134.047 148.268 135.174 149.281C135.262 149.36 135.237 149.524 135.325 149.603L131.616 147.495C129.797 150.578 129.843 150.65 129.539 150.83C129.273 150.989 128.913 150.974 128.655 150.797C128.382 150.608 128.393 150.527 127.553 148.704Z" fill="#C9F299"/>
<path fill-rule="evenodd" clip-rule="evenodd" d="M125.55 157.945C125.548 157.959 125.535 158.069 125.46 158.139C125.458 158.141 125.259 158.215 125.258 158.214C125.194 158.185 125.114 158.177 125.066 158.125C124.929 157.978 125.005 157.571 125.013 157.523C125.136 156.867 125.737 156.416 126.819 157.07C126.894 157.115 126.952 157.15 127.001 157.179C127.349 156.991 127.687 156.783 128.041 156.607C128.259 156.499 128.486 156.408 128.718 156.335C128.804 156.307 129.587 156.059 129.834 156.169C130.033 156.258 130.19 156.349 130.278 156.659C130.724 158.237 130.798 158.646 130.83 158.822C130.846 158.913 130.754 159.002 130.77 159.092L129.589 157.78C129.278 157.948 128.974 158.131 128.653 158.279C128.432 158.381 128.196 158.446 127.962 158.512C127.901 158.528 127.529 158.633 127.192 158.683C126.657 158.762 126.435 158.305 126.416 158.276C125.999 157.618 125.818 157.684 125.787 157.577C125.776 157.541 125.645 157.622 125.564 157.898C125.559 157.913 125.549 157.961 125.55 157.945Z" fill="#C9F299"/>
<path fill-rule="evenodd" clip-rule="evenodd" d="M124.122 143.856C123.921 143.852 123.911 143.848 123.772 143.703C123.684 143.611 123.674 143.469 123.632 143.349C123.627 143.337 123.636 143.322 123.633 143.308C123.571 143.043 123.494 142.782 123.439 142.515C123.162 141.174 123.173 141.17 123.121 139.802C123.117 139.679 123.09 138.96 123.178 138.264C123.195 138.133 123.265 137.581 123.529 136.656C123.642 136.263 123.769 135.874 123.889 135.483C123.977 135.196 124.014 135.206 124.283 135.077C124.285 135.076 124.498 135.189 124.502 135.192C124.521 135.212 124.616 135.311 124.666 135.498C124.771 135.892 124.884 136.286 124.982 136.683C125.211 137.617 125.261 138.171 125.272 138.303C125.335 139.002 125.281 139.72 125.272 139.842C125.169 141.207 125.18 141.212 124.854 142.541C124.789 142.806 124.702 143.064 124.631 143.327C124.627 143.34 124.635 143.355 124.63 143.368C124.584 143.486 124.568 143.628 124.477 143.716C124.332 143.856 124.323 143.86 124.122 143.856ZM124.75 110.146C124.549 110.143 124.54 110.138 124.4 109.993C124.208 109.794 124.275 109.76 124.263 109.483C124.081 105.464 124.015 105.467 123.95 101.443C123.92 99.5526 123.934 97.6611 123.942 95.77C123.945 95.287 123.956 92.4719 124.083 89.7359C124.107 89.2293 124.207 87.0554 124.522 83.4153C124.532 83.2968 124.959 78.6576 124.959 78.6561C125.002 78.5688 125.017 78.4611 125.087 78.3936C125.154 78.3299 125.257 78.3224 125.342 78.2875C125.381 78.2714 125.567 78.1949 125.714 78.6704C125.715 78.6726 125.968 83.3234 125.974 83.4423C126.153 87.0918 126.172 89.2679 126.177 89.7749C126.202 92.5139 126.109 95.3275 126.093 95.8098C125.917 101.116 125.931 101.117 125.527 106.411C125.448 107.442 125.347 108.471 125.261 109.501C125.238 109.777 125.304 109.814 125.105 110.006C124.96 110.146 124.951 110.15 124.75 110.146Z" fill="#C9F299"/>
<path fill-rule="evenodd" clip-rule="evenodd" d="M129.467 145.527C129.266 145.524 129.256 145.519 129.117 145.374C129.029 145.283 129.017 145.141 128.977 145.021C128.97 145 128.981 144.978 128.978 144.956C128.752 143.318 128.686 143.326 128.577 141.676C128.526 140.907 128.519 140.135 128.506 139.364C128.503 139.167 128.484 138.02 128.58 136.906C128.598 136.699 128.675 135.816 128.949 134.335C128.958 134.286 129.333 132.402 129.334 132.4C129.379 132.31 129.408 132.207 129.48 132.138C129.721 131.905 129.927 132.119 129.953 132.146C130.081 132.279 130.069 132.291 130.099 132.473C130.2 133.103 130.309 133.731 130.401 134.362C130.621 135.852 130.664 136.738 130.674 136.945C130.729 138.062 130.667 139.207 130.657 139.404C130.539 141.572 130.552 141.575 130.208 143.718C130.141 144.139 130.05 144.555 129.976 144.975C129.973 144.996 129.983 145.019 129.975 145.039C129.931 145.158 129.913 145.3 129.822 145.387C129.678 145.527 129.668 145.531 129.467 145.527ZM130.047 114.4C129.846 114.396 129.837 114.391 129.697 114.246C129.501 114.042 129.572 114.007 129.561 113.724C129.384 109.369 129.318 109.372 129.26 105.015C129.232 102.966 129.25 100.917 129.261 98.8683C129.264 98.3456 129.28 95.2957 129.411 92.3313C129.435 91.7831 129.539 89.4277 129.86 85.4838C129.87 85.3552 130.304 80.3291 130.305 80.3276C130.347 80.2402 130.362 80.1326 130.432 80.0654C130.498 80.0013 130.602 79.9942 130.687 79.9589C130.727 79.9428 130.917 79.8648 131.059 80.3418C131.06 80.3441 131.307 85.3822 131.312 85.5108C131.485 89.4641 131.501 91.8213 131.505 92.3703C131.526 95.3377 131.428 98.3857 131.412 98.9084C131.228 104.657 131.242 104.658 130.829 110.394C130.749 111.511 130.646 112.626 130.559 113.742C130.537 114.025 130.607 114.063 130.402 114.259C130.258 114.399 130.248 114.403 130.047 114.4Z" fill="#C9F299"/>
</svg>
