<svg width="203" height="203" viewBox="0 0 203 203" fill="none" xmlns="http://www.w3.org/2000/svg">
<path fill-rule="evenodd" clip-rule="evenodd" d="M156.204 46.7009C153.698 43.9221 145.179 34.6397 127.035 32.5195C112.715 30.8462 99.9323 34.5554 95.9284 35.773C86.4229 38.6639 79.4153 42.3914 77.1596 43.6007C67.5289 48.7634 60.8831 54.1079 59.3235 55.3555C52.323 60.955 47.3284 66.1664 44.6678 69.076C43.2866 70.5865 39.5831 74.8187 36.237 79.4916C35.4401 80.6046 32.6276 84.5447 29.7495 89.6091C28.1678 92.392 25.7201 97.1016 23.7191 102.131C19.5634 112.577 18.27 120.941 17.8361 126.53C16.6804 141.41 20.6415 150.883 22.6226 154.932C24.9135 159.614 33.0446 174.53 54.7984 178.563C66.8996 180.806 80.6021 179.171 94.4048 174.002C125.509 162.356 152.763 134.356 163.041 103.91C163.203 103.432 163.192 103.425 163.453 102.993C163.58 102.782 164.306 101.583 165.92 101.164C166.706 100.961 167.365 101.054 167.49 101.071C169.176 101.309 170.037 102.477 170.186 102.679C171.176 104.022 170.98 105.41 170.946 105.653C170.874 106.161 170.86 106.159 170.679 106.64C163.141 126.697 149.034 144.88 131.726 158.667C110.933 175.23 87.3337 183.745 66.6712 183.463C40.9481 183.112 22.9826 169.03 17.3974 147.995C15.9536 142.558 13.3103 129.753 18.7946 110.926C22.104 99.5646 27.1346 90.6475 29.5526 86.5701C30.9649 84.1889 35.0895 77.4006 41.5725 69.7188C45.5441 65.0133 50.9393 59.1726 58.2101 53.1017C58.4423 52.9082 61.2731 50.5427 64.4021 48.2099C68.484 45.1664 74.6651 40.9206 83.046 36.7409C86.664 34.9364 94.1861 31.393 104.057 28.9052C126.147 23.338 147.086 26.8334 161.169 40.2115C161.68 40.6971 162.105 41.1254 162.106 41.1272C162.273 41.3432 162.461 41.5439 162.605 41.7752C162.735 41.9837 163.476 43.1732 163.113 44.8019C162.937 45.595 162.553 46.1406 162.481 46.2437C161.502 47.638 160.071 47.8735 159.824 47.9144C158.178 48.1855 157.03 47.3807 156.829 47.2397C156.827 47.239 156.276 46.7642 156.211 46.7087C156.21 46.7076 156.21 46.7073 156.209 46.7065C156.207 46.7046 156.205 46.7028 156.204 46.7009Z" fill="#C9F299"/>
<path fill-rule="evenodd" clip-rule="evenodd" d="M40.6051 135.737C37.6812 134.958 31.6996 132.507 27.854 124.035C23.8868 115.295 24.7497 105.676 24.9241 103.591C25.0621 101.937 25.2938 99.9589 25.9392 96.8003C27.2277 90.4928 29.4451 85.8056 29.6322 85.3958C30.1313 84.3026 32.7323 78.4245 37.7787 72.996C46.7266 63.3713 59.5947 60.5224 61.952 59.9933C63.4992 59.6456 67.1063 58.8713 72.0886 58.6661C73.8305 58.5941 75.7152 58.671 76.0302 58.6838C86.603 59.1139 95.2985 62.613 99.3882 68.6078C100.029 69.5483 100.604 70.5398 101.613 73.2041C104.459 80.7143 106.774 91.9946 106.539 95.4143C106.477 96.3221 106.221 97.7708 105.266 100.394C104.555 102.345 103.668 104.366 102.987 105.842C104.667 106.611 106.22 107.639 107.308 108.84C107.678 109.248 109.432 111.141 109.313 114.016C109.233 115.968 108.089 119.465 99.6042 123.274C99.161 123.473 98.6438 123.694 98.1117 123.913C100.387 127.422 104.663 134.625 105.888 140.942C107.105 147.208 104.78 149.762 103.828 150.883C99.0931 156.465 92.72 159.303 88.1866 160.844C86.12 161.547 80.7567 163.16 73.7011 163.824C66.6556 164.487 56.7916 164.424 48.599 162.863C47.2808 162.612 42.3282 161.669 39.0181 159.579C34.6283 156.808 34.7191 150.766 34.7607 149.026C34.8548 145.08 35.7938 141.377 36.2532 139.7C36.5033 138.787 36.7032 138.17 36.7081 138.154C36.8626 137.668 37.0662 137.373 37.1082 137.312C37.6253 136.56 38.348 136.287 38.4785 136.238C38.8662 136.091 38.8763 136.127 39.6563 135.956C39.9608 135.889 40.28 135.816 40.6051 135.737ZM93.803 123.97L93.7025 124.04C93.6571 123.942 93.5877 123.858 93.5423 123.761C93.1805 122.987 93.4625 122.315 93.5108 122.199C93.7696 121.583 94.2657 121.308 94.3542 121.259C94.6677 121.086 95.5463 120.87 97.7191 119.844C102.774 117.455 105.137 115.143 105.104 113.825C105.097 113.534 105.155 111.888 102.038 110.287C100.868 109.686 99.7501 109.358 99.398 109.267C98.9941 109.163 98.7395 108.998 98.6877 108.964C98.5703 108.888 97.8897 108.446 97.7075 107.512C97.6021 106.972 97.7341 106.526 97.7585 106.444C97.8203 106.236 97.8346 106.242 98.2505 105.316C100.125 101.141 101.779 96.642 101.743 94.9046C101.676 91.6271 99.005 79.8465 95.852 73.1145C93.6545 68.4218 87.1373 65.3419 78.6042 64.5285C77.9408 64.4651 75.2255 64.188 70.9437 64.407C70.3216 64.4389 67.1157 64.6028 63.2108 65.3415C54.5135 66.9874 49.0677 70.182 47.8868 70.8683C43.634 73.3403 40.5987 76.1314 37.8368 79.632C33.875 84.6536 31.8305 89.607 30.7193 92.9164C30.4985 93.5741 29.615 96.3866 29.1627 99.0953C28.4468 103.38 28.4948 106.542 28.577 108.382C28.9613 116.991 31.8991 124.085 36.2847 127.855C39.4235 130.553 42.3166 130.786 43.4412 130.97C46.877 131.53 49.2263 132.343 50.0037 134.344C50.1972 134.842 50.9071 137.075 48.1475 138.906C46.5938 139.938 44.0495 140.783 41.8951 141.366C41.6345 142.472 41.3045 144.071 41.063 145.941C40.2526 152.226 41.7725 153.969 41.7845 153.986C41.9637 154.233 42.1032 154.413 42.9908 154.871C43.454 155.109 47.528 157.305 58.3973 158.224C58.4322 158.227 66.905 159.065 75.0942 158.265C80.6363 157.724 84.7373 156.566 85.5567 156.335C88.9576 155.374 96.1171 153.055 100.907 147.356C103.394 144.397 101.05 136.214 95.5426 126.796C94.5447 125.089 93.8026 123.971 93.803 123.97Z" fill="#C9F299"/>
<path fill-rule="evenodd" clip-rule="evenodd" d="M53.6926 102.764C53.5392 102.933 53.3855 103.101 53.231 103.269C52.6032 103.951 50.0645 106.707 45.2926 111.703C45.1951 111.806 45.1906 111.808 45.05 111.828C45.0466 111.828 44.8051 111.771 44.8044 111.77C44.7639 111.697 44.696 111.633 44.6847 111.551C44.6724 111.462 44.7099 111.372 44.7372 111.285C44.7376 111.284 47.3551 106.865 47.3787 106.826C48.4756 104.996 49.5804 103.17 50.693 101.349C51.2791 100.39 51.878 99.4384 52.475 98.4855C52.6944 98.1353 52.9134 97.7847 53.1425 97.4408C53.2314 97.3081 53.7631 96.5097 54.9091 96.5085C54.9185 96.5085 55.262 96.5438 55.2684 96.5453C55.3865 96.5746 55.5054 96.603 55.619 96.6462C55.7285 96.6882 56.3405 96.9214 56.7372 97.5919C56.858 97.7959 57.3946 99.1223 57.8457 100.049C57.8686 100.095 58.3884 101.132 58.562 101.454C58.745 101.794 59.2955 102.85 59.8692 103.656C60.0005 103.841 60.4966 104.508 60.977 104.996C62.2152 106.254 63.4497 106.638 63.6826 106.719C64.8732 107.134 66.0117 107.142 67.1439 107.073C67.5451 107.048 67.8841 107.005 67.9974 106.99C68.1312 106.973 68.1871 106.938 68.2141 106.936C68.3915 106.92 68.5689 106.869 68.7462 106.888C68.8272 106.896 69.2949 106.944 69.6444 107.37C69.6976 107.435 70.0055 107.81 69.9474 108.375C69.9346 108.5 69.8555 109.273 68.9086 109.553C68.5077 109.671 67.6302 110.168 65.8974 110.445C63.2562 110.868 61.3917 110.282 60.2742 109.808C59.771 109.595 58.4619 109.013 56.9142 107.534C56.7279 107.356 55.619 106.222 54.758 104.813C54.308 104.076 53.9814 103.441 53.6926 102.764Z" fill="#C9F299"/>
<path fill-rule="evenodd" clip-rule="evenodd" d="M69.1419 115.942C69.2008 116.001 69.5383 116.334 69.5409 116.897C69.5416 117.07 69.5098 117.247 69.4445 117.408C69.3238 117.705 69.3076 117.699 69.0815 117.925C68.9668 118.041 68.7658 118.526 67.679 119.695C66.9448 120.484 66.2405 121.128 65.1601 121.868C64.9955 121.98 64.0145 122.601 63.1918 122.949C62.1425 123.392 61.496 123.552 61.3441 123.59C60.494 123.801 59.927 123.873 58.9456 123.891C58.7656 123.894 58.1274 123.929 56.8018 123.74C55.4536 123.547 54.1798 123.099 53.9585 123.021C53.7628 122.952 52.2676 122.471 49.9865 121.116C49.1506 120.619 47.7204 119.586 47.6896 119.552C47.63 119.485 47.5441 119.434 47.5119 119.351C47.5108 119.348 47.5141 119.093 47.5156 119.092C47.582 119.025 47.6281 118.926 47.7163 118.892C47.8261 118.849 47.8258 118.916 49.1705 119.129C49.5339 119.186 50.9559 119.395 52.1743 119.473C53.1395 119.535 55.0588 119.576 56.6503 119.374C56.7474 119.362 57.2356 119.326 57.929 119.199C58.2305 119.143 58.5328 119.115 59.135 118.978C59.3443 118.93 60.7321 118.671 61.0696 118.595C61.1473 118.578 61.1994 118.566 62.033 118.349C62.927 118.117 64.3351 117.592 65.4474 117.01C65.9559 116.745 65.9469 116.73 66.6519 116.325C66.6928 116.302 67.1094 116.063 67.1563 116.024C67.2305 115.962 67.223 115.954 67.2298 115.95C67.3779 115.851 67.5099 115.722 67.6745 115.654C67.7499 115.622 68.1834 115.442 68.6941 115.649C68.9454 115.751 68.9488 115.751 69.1419 115.942Z" fill="#C9F299"/>
<path fill-rule="evenodd" clip-rule="evenodd" d="M97.9869 88.4705C97.925 88.5252 97.5688 88.8395 97.0085 88.8054C96.8356 88.7945 96.6613 88.751 96.5056 88.6756C96.3451 88.598 96.2161 88.4671 96.0785 88.3542C96.0421 88.325 96.0196 88.2815 95.9851 88.2496C95.8843 88.1555 95.3353 87.7475 95.2779 87.7051C94.7 87.2757 93.6823 86.435 92.0863 85.6257C91.9483 85.556 90.7096 84.9241 89.6026 84.8097C89.042 84.7516 88.67 84.7344 87.9478 84.9136C87.5383 85.0156 86.8659 85.2804 86.3968 85.544C86.2903 85.604 85.6126 86.0056 84.9811 86.525C84.8645 86.6206 84.2649 87.131 83.741 87.6586C82.7833 88.6235 81.4588 90.2041 80.2269 91.9696C80.1391 92.0952 79.0685 93.6414 78.0253 95.3465C77.7478 95.8002 77.528 96.173 77.5265 96.1741C77.4583 96.2349 77.4046 96.3189 77.321 96.3564C77.2888 96.3706 77.0364 96.4835 76.9093 96.1989C76.8324 96.0267 76.8594 96.0192 76.8958 95.8336C77.36 93.4606 77.7853 91.982 77.8805 91.6516C78.686 88.8519 79.3385 87.4824 79.607 86.9109C79.6108 86.9034 80.1343 85.727 81.0414 84.3777C81.4209 83.813 82.2343 82.7682 83.0645 82.0527C83.1931 81.9417 83.9739 81.269 84.8015 80.8287C86.6514 79.844 88.3265 79.9257 88.4446 79.9261C89.6461 79.9284 90.5435 80.2044 90.7194 80.2584C92.1635 80.7027 93.4119 81.422 94.7596 82.5931C95.4935 83.2302 96.7516 84.6095 97.4593 85.6314C97.7578 86.0622 98.0041 86.4477 98.0041 86.4477C98.2318 86.7102 98.2606 86.6967 98.3728 87.0249C98.399 87.1021 98.5509 87.5469 98.3101 88.0426C98.2914 88.0812 98.1883 88.2931 97.9869 88.4705Z" fill="#C9F299"/>
<path fill-rule="evenodd" clip-rule="evenodd" d="M81.8259 130.734C81.7955 131.88 81.2397 133.504 78.5769 134.48C78.4197 134.538 77.357 134.905 76.6265 135C74.6724 135.254 72.2476 134.262 71.5666 130.51C71.4931 130.105 71.1211 128.22 71.7095 124.548C71.8111 123.912 72.2236 121.732 72.9594 119.59C73.7412 117.312 74.7669 115.122 75.9275 113.599C76.8822 112.347 77.7912 111.884 77.987 111.784C78.0586 111.747 78.4167 111.565 78.9335 111.451C78.9695 111.444 79.3235 111.361 79.6329 111.426C79.6689 111.433 79.9062 111.483 80.0577 111.593C80.1804 111.683 80.2794 111.803 80.402 111.893L79.6242 112.53C80.5377 113.474 82.8774 115.973 84.8619 118.474C89.0664 123.774 89.9225 126.33 90.1554 127.75C90.5739 130.3 89.1946 131.704 87.7017 132.192C86.3409 132.636 84.2544 133.264 82.8965 131.893C82.508 131.501 82.304 131.062 82.1915 130.665C82.0842 130.683 81.9631 130.705 81.8259 130.734ZM79.772 113.998C79.7169 114.034 79.6317 114.066 79.5087 114.096C79.4934 114.099 79.4922 114.1 79.4799 114.104L79.4802 114.104C79.4799 114.104 78.9759 114.372 78.2536 115.816C78.2165 115.89 77.1035 117.921 76.3895 122.304C76.34 122.608 75.749 126.181 76.1142 128.767C76.1157 128.778 76.1945 129.468 76.3715 129.977C76.5132 129.934 76.6685 129.885 76.8207 129.829C76.7956 129.173 76.9186 128.272 77.6667 127.477C78.2832 126.822 79.3696 126.183 81.8731 126.043C82.649 125.999 84.9747 125.899 85.9861 127.756C86.1106 127.984 86.2051 128.226 86.2704 128.488C86.45 128.457 86.585 128.432 86.609 128.434C86.6154 128.434 86.6199 128.437 86.6247 128.443C86.7384 127.756 86.4515 125.246 82.8522 119.016C82.2849 118.035 81.2686 116.272 79.772 113.998Z" fill="#C9F299"/>
<path fill-rule="evenodd" clip-rule="evenodd" d="M81.3676 130.507L81.3706 130.509C80.9472 131.593 80.4275 133.409 77.5809 134.129C77.2932 134.202 76.0835 134.471 75.2379 134.417C75.2277 134.417 71.6499 134.396 71.0889 129.561C70.8676 127.655 71.1639 125.896 71.1976 125.667C71.3202 124.842 71.6037 123.102 72.4906 120.716C72.884 119.658 73.397 118.674 73.4866 118.502C74.6592 116.253 75.6275 115.487 76.1709 115.135C76.184 115.127 76.6749 114.774 77.4477 114.616C77.7624 114.551 77.969 114.584 78.0136 114.591C78.2169 114.624 78.3717 114.701 78.401 114.716C78.5232 114.776 78.5637 114.809 78.5765 114.819C78.734 114.948 78.7126 114.971 78.8705 115.1L78.0751 115.715C78.1756 115.817 80.1474 117.817 81.719 119.886C84.5255 123.581 85.0317 125.625 84.7891 127.073C84.4321 129.201 82.4502 129.714 82.3985 129.735C81.5232 130.086 81.4216 130.365 81.3879 130.459C81.3781 130.485 81.3759 130.488 81.3676 130.507ZM77.9236 116.837L77.9622 117.122C77.9874 117.192 77.9986 117.232 77.9934 117.266C78.02 117.369 78.0159 117.357 77.9919 117.275C77.9866 117.295 77.975 117.314 77.9562 117.338C77.2707 118.192 76.808 119.733 76.7412 119.954C76.4596 120.893 76.0749 122.588 75.905 124.329C75.9027 124.353 75.6999 125.909 75.7932 127.701C75.8405 128.617 75.9819 129.186 76.0914 129.494C76.3546 129.478 76.6651 129.444 76.8991 129.377L76.9021 129.384C76.9212 129.389 76.9272 129.402 76.9501 129.44C77.201 129.185 77.5805 127.835 79.0981 126.878C79.1919 126.819 79.976 126.297 81.3545 126.019C81.3702 126.016 81.4059 126.002 81.4291 126.01C81.3597 125.859 81.3455 125.827 81.4329 126.012C81.4344 126.012 81.4355 126.013 81.437 126.014C81.437 126.014 81.44 126.02 81.4449 126.031C81.4869 125.65 81.4366 124.818 80.9491 123.352C80.6795 122.54 80.2876 121.528 79.4307 119.737C78.8574 118.539 78.2889 117.489 77.9236 116.837ZM77.8482 116.791C77.84 116.765 77.8317 116.738 77.8235 116.711C77.8321 116.739 77.8404 116.766 77.8482 116.791ZM75.3766 130.392L75.3076 130.443C75.3305 130.426 75.3534 130.409 75.3766 130.392Z" fill="#C9F299"/>
<path fill-rule="evenodd" clip-rule="evenodd" d="M89.0735 92.4923C91.04 91.6043 93.1808 90.7565 94.121 92.258C95.0213 93.6957 94.286 96.8978 94.9557 101.31C95.7886 106.796 98.4743 108.631 97.6868 111.162C97.292 112.431 96.1767 113.249 95.0465 114.112C92.321 116.195 89.4387 118.18 86.7777 116.796C86.6326 116.721 85.3696 116.144 84.3113 114.038C82.5796 110.59 82.5837 103.55 84.2457 98.5523C85.8953 93.5918 88.3655 92.6101 88.9988 92.3195L89.0735 92.4923ZM89.5265 93.5435L89.6015 93.7175C89.6142 93.7467 88.1502 94.1326 86.894 96.7658C85.1656 100.388 84.7846 106.25 85.5837 110.346C85.8683 111.808 86.3153 113.101 87.1025 114.043C87.8982 114.996 88.7843 115.279 90.5986 114.375C91.7393 113.807 92.9067 112.943 94.5162 111.775C95.8527 110.804 95.8662 110.307 95.6626 109.571C95.198 107.893 93.5813 105.668 93.1865 100.911C92.8486 96.8386 93.4857 93.7178 92.942 92.9056C92.5426 92.3093 90.083 93.326 89.5265 93.5435Z" fill="#C9F299"/>
<path fill-rule="evenodd" clip-rule="evenodd" d="M87.3279 94.5763C88.5451 93.9219 90.2345 93.0647 91.1139 94.2073C92.0094 95.3717 91.4041 98.135 91.97 102.266C92.6555 107.272 94.7671 108.835 94.0032 111.161C93.6695 112.178 92.8415 112.906 91.9137 113.744C90.2641 115.234 88.0726 117.115 85.9104 116.04C85.481 115.826 84.5292 115.26 83.738 113.389C82.4349 110.308 82.4892 104.218 83.6604 99.9845C84.8772 95.5858 86.7159 94.6955 87.2424 94.4087L87.3279 94.5763ZM87.8487 95.5959L87.935 95.7643C87.9354 95.7654 86.066 96.4648 85.2796 101.532C85.2729 101.576 84.6279 105.109 85.1604 109.32C85.5016 112.017 86.1429 112.994 86.3705 113.33C86.879 114.083 87.2319 114.147 87.8379 113.915C88.5219 113.653 89.288 113.11 91.2837 111.36C92.1556 110.596 92.1781 110.178 91.9944 109.451C91.5939 107.865 90.4539 106.004 90.2071 101.689C90.0136 98.3057 90.4509 95.6027 90.0541 94.9854C90.0515 94.9817 90.0211 94.85 89.4957 94.9629C88.9066 95.0893 88.0359 95.5097 87.8487 95.5959Z" fill="#C9F299"/>
<path fill-rule="evenodd" clip-rule="evenodd" d="M99.8941 135.997C100.076 136.243 100.079 136.259 100.034 136.562C99.9751 136.962 99.8945 136.931 99.5758 137.18C97.9903 138.414 95.3559 140.451 91.1934 142.328C90.2469 142.755 87.578 143.925 84.2671 144.592C80.5685 145.337 77.7905 145.373 76.5489 145.379C74.6131 145.389 69.4081 145.349 61.9014 143.24C61.679 143.178 61.6678 143.174 61.5485 142.978C61.5466 142.975 61.4803 142.547 61.4814 142.545C61.568 142.425 61.616 142.262 61.7431 142.185C61.8665 142.11 62.0281 142.133 62.1721 142.126C62.3326 142.12 69.908 144.034 78.3796 143.17C81.4213 142.86 83.2149 142.452 85.1585 141.964C85.6314 141.846 87.1351 141.45 88.5875 140.954C89.1035 140.779 91.9066 139.877 95.4264 137.941C97.0621 137.041 98.4485 136.12 98.8299 135.838C99.0759 135.657 99.092 135.653 99.3946 135.698C99.6973 135.743 99.7119 135.751 99.8941 135.997Z" fill="#C9F299"/>
<path fill-rule="evenodd" clip-rule="evenodd" d="M66.821 150.079C66.515 150.091 66.5 150.085 66.275 149.877C66.1329 149.746 66.1059 149.528 66.0305 149.35C66.023 149.333 66.0316 149.311 66.0282 149.292C65.7612 147.712 65.7327 147.716 65.5347 146.125C65.504 145.88 65.4804 145.634 65.4612 145.388C65.4354 145.062 65.3547 144.04 65.534 141.305C65.603 140.251 65.6904 139.199 65.7687 138.147C65.8032 137.683 65.9037 137.704 66.3215 137.498C66.323 137.497 66.7029 137.649 66.7055 137.651C66.8964 137.828 66.8874 137.844 66.9271 138.101C67.0884 139.144 67.259 140.186 67.4109 141.23C67.8057 143.943 67.8057 144.968 67.8061 145.295C67.8061 146.215 67.7184 147.379 67.7045 147.56C67.6625 148.118 67.5984 148.675 67.5492 149.232C67.5474 149.251 67.5575 149.272 67.5515 149.29C67.4904 149.474 67.4806 149.692 67.3494 149.834C67.1416 150.059 67.127 150.067 66.821 150.079Z" fill="#C9F299"/>
<path fill-rule="evenodd" clip-rule="evenodd" d="M76.0257 151.026C75.7197 151.038 75.7047 151.031 75.4797 150.824C75.3376 150.692 75.3106 150.475 75.2352 150.297C75.2277 150.279 75.2364 150.258 75.233 150.239C74.966 148.658 74.9375 148.663 74.7395 147.072C74.7087 146.826 74.6855 146.58 74.666 146.334C74.6401 146.009 74.5595 144.987 74.7387 142.251C74.8077 141.198 74.8951 140.146 74.9735 139.094C75.008 138.629 75.1085 138.651 75.5262 138.445C75.5277 138.444 75.9076 138.596 75.9102 138.598C76.1011 138.775 76.0921 138.791 76.1319 139.048C76.2931 140.091 76.4637 141.132 76.6156 142.177C77.0105 144.89 77.0105 145.915 77.0109 146.241C77.0109 147.162 76.9231 148.325 76.9092 148.506C76.8672 149.064 76.8031 149.621 76.754 150.179C76.7521 150.198 76.7622 150.218 76.7562 150.237C76.6951 150.42 76.6854 150.639 76.5541 150.781C76.3464 151.006 76.3317 151.013 76.0257 151.026Z" fill="#C9F299"/>
<path fill-rule="evenodd" clip-rule="evenodd" d="M86.6968 149.351C86.3908 149.363 86.3758 149.357 86.1508 149.149C86.0086 149.017 85.9813 148.801 85.9063 148.623C85.8984 148.605 85.907 148.584 85.9036 148.564C85.6366 146.984 85.6081 146.988 85.4101 145.397C85.3798 145.152 85.3561 144.906 85.3366 144.66C85.3111 144.334 85.2301 143.313 85.4094 140.577C85.4784 139.524 85.5658 138.472 85.6441 137.419C85.679 136.954 85.7791 136.977 86.1969 136.77C86.1984 136.77 86.5783 136.921 86.5809 136.924C86.7721 137.1 86.7631 137.116 86.8029 137.373C86.9641 138.416 87.1344 139.458 87.2863 140.502C87.6811 143.215 87.6815 144.24 87.6815 144.567C87.6819 145.488 87.5938 146.651 87.5803 146.832C87.5379 147.39 87.4741 147.946 87.4246 148.504C87.4231 148.524 87.4333 148.544 87.4273 148.562C87.3661 148.746 87.356 148.964 87.2248 149.106C87.017 149.331 87.0024 149.339 86.6968 149.351Z" fill="#C9F299"/>
<path fill-rule="evenodd" clip-rule="evenodd" d="M96.122 145.249C95.816 145.261 95.801 145.255 95.576 145.047C95.4338 144.915 95.4068 144.699 95.3315 144.52C95.324 144.502 95.3326 144.481 95.3292 144.462C95.0622 142.882 95.0337 142.886 94.8357 141.295C94.805 141.05 94.7817 140.804 94.7622 140.557C94.7363 140.232 94.6557 139.21 94.835 136.474C94.904 135.421 94.9913 134.37 95.0697 133.317C95.1042 132.852 95.2047 132.874 95.6225 132.668C95.624 132.667 96.0038 132.819 96.0065 132.822C96.1973 132.998 96.1883 133.014 96.2281 133.271C96.3897 134.314 96.56 135.356 96.7119 136.4C97.1067 139.113 97.1071 140.138 97.1071 140.465C97.1071 141.385 97.0193 142.549 97.0055 142.73C96.9635 143.288 96.8993 143.844 96.8502 144.402C96.8483 144.421 96.8585 144.442 96.8525 144.46C96.7917 144.644 96.7816 144.862 96.6504 145.004C96.4426 145.229 96.428 145.237 96.122 145.249Z" fill="#C9F299"/>
<path fill-rule="evenodd" clip-rule="evenodd" d="M45.6147 137.311C45.6147 137.311 47.7117 143.069 47.9581 148.37C48.1306 152.074 61.7656 143.388 57.5772 143.82C52.1825 144.377 45.6147 137.311 45.6147 137.311Z" fill="#C9F299"/>
<path fill-rule="evenodd" clip-rule="evenodd" d="M45.0762 137.507L44.8996 137.571C44.8921 137.528 44.8733 137.488 44.8658 137.445C44.7848 136.997 45.1302 136.567 45.5858 136.55C45.6263 136.548 45.8566 136.54 46.073 136.703C46.1423 136.755 46.403 137.061 47.417 137.928C47.4717 137.975 50.8748 140.959 54.098 142.126C56.2943 142.922 57.3155 142.633 57.8371 142.629C59.3116 142.618 59.8433 143.779 59.4027 144.759C59.2602 145.075 58.8522 145.879 56.465 147.404C54.053 148.945 50.2355 150.782 48.3042 150.153C47.4331 149.869 47.0315 149.156 47.0127 148.418C46.9981 147.847 46.9801 146.274 46.556 143.728C46.13 141.17 45.5176 138.973 45.2326 138.016C45.1647 137.943 45.1073 137.881 45.0597 137.831L45.1508 137.746C45.1073 137.603 45.0807 137.521 45.0762 137.507ZM47.1417 139.94C47.8298 142.12 48.6642 145.262 48.9016 148.29C49.0831 148.318 50.0491 148.388 52.664 147.002C52.6868 146.99 54.3946 146.126 55.9542 144.95C55.9576 144.948 55.9606 144.946 55.9636 144.943C55.2507 144.844 54.3533 144.624 53.2827 144.163C50.4871 142.959 48.1625 140.891 47.1417 139.94Z" fill="#C9F299"/>
<path fill-rule="evenodd" clip-rule="evenodd" d="M36.2169 115.607C35.912 115.581 35.8981 115.573 35.7012 115.339C35.4661 115.059 35.519 115.026 35.5344 114.661C35.5572 114.113 35.5827 111.94 35.6285 110.236C35.6877 108.047 35.666 107.803 35.7444 105.458C35.7639 104.871 35.7582 104.871 35.789 104.285C35.8047 103.98 35.8861 102.429 35.8925 100.468C35.9086 95.6267 34.9554 94.4241 33.8941 93.7555C33.1396 93.2803 32.1564 93.0467 32.1324 93.0295C32.0139 92.9455 31.8541 92.9005 31.7769 92.7775C31.7754 92.7748 31.7041 92.3421 31.7049 92.3406C31.7892 92.2228 31.8361 92.065 31.9591 91.9881C32.2059 91.834 32.2254 91.8801 32.5115 91.9345C34.6839 92.3455 36.6661 93.148 37.568 97.0502C37.8402 98.2288 38.0566 100.118 38.1061 101.674C38.1755 103.864 38.126 104.961 38.1129 105.247C38.0439 106.774 37.9644 107.786 37.5669 111.155C37.4975 111.742 37.1367 114.208 37.0977 114.473C37.0655 114.694 37.0595 114.692 37.0404 114.914C37.0366 114.961 37.0137 115.227 36.7715 115.431C36.5371 115.628 36.5217 115.634 36.2169 115.607Z" fill="#C9F299"/>
<path fill-rule="evenodd" clip-rule="evenodd" d="M137.645 139.216C135.089 143.508 123.896 162.218 121.263 165.244C120.746 165.838 120.373 166.039 119.843 165.996C118.236 165.867 115.453 169.163 113.307 170.966C112.081 171.995 110.085 173.444 108.238 172.201C107.402 171.638 106.918 170.621 106.761 170.289C106.746 170.256 106.662 170.078 106.669 169.842C106.672 169.74 106.682 169.702 106.685 169.691C106.725 169.543 106.748 169.551 106.787 169.404C106.887 169.407 106.981 169.401 107.069 169.39L125.25 134.782C125.19 132.697 125.067 124.261 127.216 119.958C127.444 119.501 128.829 116.588 131.837 116.967C131.916 116.977 133.993 117.245 135.728 118.769C137.175 120.039 137.883 121.705 138.18 123.344C140.039 121.771 142.708 120.774 146.313 121.627C146.454 121.66 149.417 122.178 149.368 125.54C149.318 129.015 145.752 133.806 142.697 136.514C140.319 138.621 138.675 139.156 137.645 139.216ZM108.63 169.637C109.248 170.848 109.778 170.694 110.047 170.623C111.741 170.175 114.398 166.66 116.763 164.931C118.048 163.991 118.957 163.777 119.556 163.739C120.039 163.157 121.85 160.653 128.842 148.739C132.408 142.662 135.581 137.096 135.654 136.981C135.799 136.749 135.939 136.632 135.969 136.606C136.474 136.182 137.024 136.275 137.118 136.291C137.203 136.305 137.282 136.341 137.367 136.355V136.355C138.426 136.422 141.333 134.289 143.82 130.858C146.136 127.664 146.692 125.212 146.105 124.78C146.024 124.721 145.85 124.592 144.899 124.443C143.862 124.28 140.833 123.926 138.695 127.317C138.123 128.224 137.928 128.915 137.847 129.069C137.8 129.158 137.526 129.676 136.858 129.83C136.761 129.853 136.19 129.985 135.636 129.581C135.555 129.522 135.082 129.177 135.025 128.493C135.021 128.45 135.003 128.241 135.079 127.948C135.292 127.126 135.754 124.552 134.906 122.51C134.108 120.588 132.512 120.071 131.681 119.836C131.335 119.752 130.428 119.429 129.413 121.872C127.857 125.617 127.69 132.494 127.728 134.981C127.728 135.047 127.74 135.335 127.566 135.648L108.63 169.637Z" fill="#C9F299"/>
<path fill-rule="evenodd" clip-rule="evenodd" d="M143.334 121.412C143.618 121.281 144.185 121.034 144.536 120.422C144.578 120.349 145.023 119.573 145.452 119.916C145.599 120.033 145.799 120.104 145.89 120.267C146.119 120.681 145.78 121.547 145.739 121.65C145.025 123.471 143.081 124.275 142.506 124.434C141.984 124.579 141.299 124.68 140.845 124.67C140.301 124.658 139.58 124.568 139.184 124.423C138.84 124.297 137.515 123.825 136.524 122.524C136.043 121.893 135.682 121.042 135.659 120.175C135.651 119.9 135.61 119.894 135.693 119.631C135.711 119.575 135.814 119.25 136.169 119.064C136.535 118.872 136.87 118.979 136.928 118.997C137.309 119.118 137.468 119.42 137.496 119.473C137.597 119.664 137.579 119.671 137.612 119.884C137.621 119.941 137.942 120.976 139.582 121.414C139.892 121.497 139.899 121.464 140.209 121.544C140.472 121.611 140.593 121.631 141.212 121.686C141.629 121.724 141.842 121.687 142.1 121.677C142.826 121.651 143.3 121.424 143.343 121.406L143.334 121.412Z" fill="#C9F299"/>
<path fill-rule="evenodd" clip-rule="evenodd" d="M146.793 121.636C146.786 121.636 143.823 121.762 141.695 119.668C139.229 117.243 139.77 113.453 142.883 111.553C145.116 110.191 147.424 110.429 147.536 110.437C149.138 110.536 150.267 111.038 150.74 111.268C151.243 111.511 151.749 111.902 151.832 111.965C155.691 114.936 154.656 120.1 149.976 121.56C148.476 122.028 147.236 121.903 146.779 121.878L146.793 121.636ZM146.879 120.159L146.894 119.915C146.894 119.915 147.034 119.933 147.403 119.905C150.464 119.671 152.527 117.263 150.954 115.199C150.393 114.464 149.619 114.114 149.201 113.92C147.779 113.264 146.046 113.335 144.934 113.732C144.868 113.755 142.751 114.446 142.561 116.229C142.404 117.694 143.679 118.75 143.822 118.871C145.103 119.96 146.666 120.127 146.879 120.159Z" fill="#C9F299"/>
<path fill-rule="evenodd" clip-rule="evenodd" d="M133.43 117.364C133.571 117.541 134.243 118.467 135.931 118.736C137.532 118.991 139.607 118.532 141.02 117.18C141.25 116.96 141.242 116.916 141.56 116.895C141.563 116.894 142.1 117.075 142.1 117.076C142.184 117.244 142.336 117.394 142.349 117.581C142.374 117.939 142.317 117.935 142.095 118.217C140.443 120.318 137.18 121.668 134.116 120.862C132.037 120.315 131.151 119.053 131.002 118.854C130.965 118.804 129.04 116.483 130.65 113.348C131.189 112.299 131.856 111.69 131.987 111.57C135.214 108.621 140.469 108.768 142.743 111.679C143.226 112.297 143.412 112.834 143.538 113.186C143.675 113.565 143.522 113.882 143.496 113.937C143.441 114.05 143.364 114.155 143.271 114.239C142.963 114.516 142.613 114.495 142.551 114.492C142.152 114.468 141.924 114.215 141.884 114.171C141.717 113.986 141.747 113.967 141.647 113.739C141.467 113.333 141.117 113.01 141.059 112.957C139.75 111.749 137.172 111.613 135.063 112.954C134.475 113.328 134.104 113.739 133.815 114.069C133.02 114.976 132.912 115.929 133.038 116.511C133.044 116.538 133.052 116.563 133.057 116.589L133.051 116.569C133.148 116.922 133.228 117.086 133.442 117.378L133.43 117.364Z" fill="#C9F299"/>
<path fill-rule="evenodd" clip-rule="evenodd" d="M135.296 75.3355C135.147 75.3517 134.509 75.4297 133.982 75.7297C133.884 75.7852 133.527 76.0083 133.292 76.2172C132.528 76.8978 132.178 77.935 132.254 78.8643C132.281 79.2018 132.353 79.5333 132.363 79.5832C132.435 79.9417 132.358 80.1052 132.339 80.1457C132.338 80.1487 131.917 80.5297 131.916 80.5297C131.729 80.5203 131.525 80.5803 131.355 80.5004C131.307 80.4779 131.117 80.3887 130.923 79.9912C130.762 79.6589 129.693 77.7048 130.816 75.3119C131.295 74.2908 131.919 73.7444 132.044 73.6349C133.222 72.6025 134.398 72.418 134.478 72.4015C135.114 72.2699 135.861 72.2388 136.37 72.3367C138.851 72.8137 140.229 74.6373 140.662 76.2198C140.924 77.1768 140.845 77.8012 140.846 78.058C140.849 78.463 140.598 78.712 140.555 78.7544C140.466 78.8433 140.358 78.9168 140.242 78.9648C139.86 79.1227 139.536 78.9862 139.479 78.9625C139.111 78.8073 138.98 78.4919 138.957 78.4372C138.881 78.2538 138.88 78.0888 138.88 78.0577C138.879 77.9377 138.866 77.9024 138.83 77.7348L138.832 77.7494C138.787 77.5784 138.787 77.5788 138.733 77.41L138.735 77.4217C138.154 75.8433 136.778 75.3783 135.988 75.3483C135.642 75.3352 135.642 75.313 135.296 75.3355Z" fill="#C9F299"/>
<path fill-rule="evenodd" clip-rule="evenodd" d="M130.331 78.3093C130.209 83.8244 129.567 86.6467 129.533 86.8124C129.07 89.0677 128.496 90.2804 127.426 91.2468C125.56 92.9313 122.2 93.2107 119.936 90.7334C118.581 89.2503 118.425 87.5778 118.425 87.574C118.37 87.1867 117.996 84.5602 120.042 82.4902C122.514 79.9889 128.538 77.6512 129.195 77.3587C129.702 77.1329 130.095 77.4093 130.158 77.4535C130.369 77.602 130.463 77.7993 130.48 77.8353C130.529 77.9373 130.537 77.9797 130.539 77.9928C130.571 78.1578 130.542 78.1608 130.573 78.3258L130.331 78.3093ZM128.61 79.8697C126.938 80.776 122.711 83.1764 121.76 84.8275C121.04 86.0774 121.482 87.337 121.509 87.4379C121.907 88.9248 123.272 89.8263 124.57 89.5923C125.308 89.4592 125.998 88.9492 126.394 88.2832C127.005 87.2542 127.49 85.3342 127.64 84.7267C128.087 82.9203 128.409 81.1214 128.61 79.8697Z" fill="#C9F299"/>
<path fill-rule="evenodd" clip-rule="evenodd" d="M131.132 96.3549C131.153 96.3388 131.172 96.3223 131.192 96.3051L131.176 96.3264C131.18 96.3231 131.399 96.1498 131.363 95.8401C131.352 95.7489 131.319 95.6739 131.307 95.6544C130.779 94.7829 130.245 93.9148 129.72 93.0407C129.69 92.9897 127.185 88.7822 127.185 88.7814C127.152 88.5936 127.051 88.4053 127.086 88.2174C127.086 88.2141 127.376 87.7528 127.377 87.7524C127.556 87.7172 127.734 87.6148 127.912 87.6478C128.276 87.7146 128.263 87.7633 128.492 88.0524C130.94 91.1439 130.947 91.1376 133.366 94.2516C134.13 95.2363 134.304 97.0131 133.138 98.2922C132.97 98.4759 132.769 98.632 132.708 98.6773C131.026 99.9141 131.042 99.9358 129.621 100.928C128.19 101.928 126.132 101.673 125.001 100.199C124.475 99.5136 120.004 92.2524 119.576 91.5572C119.574 91.5546 118.808 90.4858 119.249 89.1002C119.268 89.0376 119.366 88.7312 119.602 88.3569C119.837 87.9838 120.183 87.9103 120.245 87.8972C120.368 87.8713 120.498 87.8679 120.622 87.8908C121.029 87.9651 121.227 88.2557 121.261 88.3063C121.486 88.6363 121.425 88.9727 121.415 89.0308C121.376 89.2434 121.363 89.2404 121.252 89.4264C121.204 89.5078 121.174 89.6574 121.172 89.7561C121.166 89.9713 121.233 90.1014 121.26 90.1614L121.254 90.1461C121.305 90.2432 121.308 90.2413 121.375 90.3283C125.645 95.8817 126.621 97.2639 127.43 98.3402L127.43 98.3398C127.481 98.4081 127.488 98.4141 127.55 98.4519C127.659 98.5059 127.703 98.5078 127.813 98.4868C127.842 98.4782 127.887 98.4632 127.911 98.4471C130.841 96.4704 130.878 96.5274 131.131 96.3538L131.132 96.3549Z" fill="#C9F299"/>
<path fill-rule="evenodd" clip-rule="evenodd" d="M132.363 97.9103C132.321 97.9035 132.32 97.9032 132.275 97.8979C131.705 97.8334 131.758 97.6887 131.539 97.1588C131.538 97.1569 131.755 96.6372 131.757 96.6349C131.798 96.5944 131.986 96.4073 132.439 96.4155C133.521 96.435 134.518 97.1311 134.903 98.1957C136.497 102.6 136.495 102.6 138.042 107.021C138.298 107.754 138.345 108.001 138.362 108.088C138.647 109.581 137.867 111.3 136.074 111.885C135.749 111.991 132.639 113.006 131.979 113.083C130.185 113.294 128.714 112.075 128.343 110.656C127.68 108.124 125.906 100.914 125.863 100.667C125.804 100.325 125.811 100.004 125.863 99.6484C125.921 99.2498 126.205 99.0413 126.253 99.0057C126.302 98.9701 126.588 98.7597 126.983 98.8249C127.389 98.892 127.591 99.1673 127.627 99.2157C127.701 99.3169 127.758 99.4347 127.788 99.5566C127.845 99.7857 127.815 99.7883 127.797 100.023C127.789 100.126 127.853 100.313 127.862 100.337C129.356 104.646 129.362 104.643 130.824 108.963C131.113 109.817 131.076 109.841 131.208 109.969C131.258 110.018 131.328 110.044 131.34 110.049C131.415 110.077 131.417 110.069 131.496 110.07V110.07C131.524 110.066 131.549 110.06 131.576 110.053L131.576 110.053C131.578 110.052 131.58 110.052 131.582 110.052C131.877 109.996 131.871 109.88 135.261 109.004C135.512 108.939 135.59 108.664 135.552 108.52C135.347 107.744 134.941 106.211 133.225 98.7559C133.209 98.6865 133.11 98.0641 132.363 97.9111V97.9103Z" fill="#C9F299"/>
<path fill-rule="evenodd" clip-rule="evenodd" d="M140.228 100.378C140.292 101.122 140.427 101.859 140.491 102.603C140.556 103.356 140.587 104.112 140.615 104.868C140.69 106.9 140.664 106.9 140.621 108.934C140.62 108.985 140.575 109.163 140.72 109.399C140.883 109.664 141.204 109.763 141.316 109.765L144.237 109.831C144.537 109.839 144.548 109.843 144.775 110.042C144.778 110.044 145.026 110.521 145.025 110.523C144.964 110.692 144.959 110.894 144.841 111.029C144.609 111.294 144.581 111.271 144.233 111.325C141.561 111.744 141.563 111.772 141.189 111.783C139.621 111.829 138.352 110.659 138.156 109.142C137.783 106.258 137.757 106.261 137.504 103.363C137.477 103.053 137.238 100.317 137.242 99.4732C137.244 98.9801 137.514 98.6328 137.561 98.5724C137.594 98.5293 137.769 98.3036 138.117 98.1689C138.247 98.1183 140.183 97.6016 140.363 97.5536C141.803 97.1692 143.245 96.7935 144.685 96.4095C144.942 96.3408 144.939 96.3011 145.204 96.3224C145.263 96.3273 145.603 96.3551 145.864 96.6588C145.904 96.7053 146.133 96.9727 146.1 97.3848C146.067 97.7842 145.809 98.0062 145.764 98.0448C145.665 98.1292 145.541 98.1768 145.426 98.2361C145.419 98.2398 145.417 98.2316 145.331 98.2668L140.228 100.378Z" fill="#C9F299"/>
<path fill-rule="evenodd" clip-rule="evenodd" d="M151.229 95.6644L151.571 94.9227L151.174 95.7379C151.173 95.7195 151.169 95.7012 151.168 95.6828C151.166 95.6475 151.179 95.6502 151.31 95.2647L151.176 95.622C151.181 95.4233 151.179 95.4105 151.176 95.3772C151.174 95.3595 151.167 95.3419 151.17 95.3243C151.199 95.1289 151.242 94.9354 151.271 94.74L151.162 95.2703C151.146 95.2313 151.151 95.1859 151.134 95.1469C151.103 95.0719 151.057 95.0037 151.018 94.9317C150.83 94.584 151.065 94.5803 151.126 94.1895C151.211 93.6443 151.033 93.5164 151.508 93.2344C151.721 93.108 152.127 93.0083 152.184 93.0113C152.508 93.0293 152.511 93.0338 152.801 93.1797C152.811 93.1845 152.892 93.3019 152.9 93.3128C153.211 93.759 153.219 94.236 153.229 94.2833C153.236 94.3152 153.312 94.2765 153.415 94.6437C153.431 94.701 153.523 95.0295 153.328 95.3794C153.127 95.7405 152.789 95.8347 152.73 95.8512C152.346 95.9584 152.046 95.793 151.995 95.7642C151.881 95.7019 151.796 95.5984 151.697 95.5152C151.679 95.4998 151.463 95.5913 151.443 95.5995L152.183 94.8312C151.922 95.0903 151.668 95.3577 151.407 95.6168C151.398 95.6258 151.395 95.6205 151.274 95.6993L152.121 94.5889C151.828 94.9632 151.542 95.3423 151.249 95.7162C151.245 95.7214 151.243 95.7203 151.195 95.7469L151.179 95.7724L151.189 95.7503C151.182 95.754 151.174 95.7585 151.165 95.7638L151.229 95.6644ZM144.937 109.335C144.952 109.353 144.959 109.36 144.979 109.379L144.954 109.365C144.978 109.385 145.073 109.472 145.135 109.487C148.536 110.307 148.538 110.296 148.828 110.387C149.348 110.552 149.732 110.175 149.789 110.119L149.78 110.133C149.782 110.13 149.93 109.983 150.012 109.781C150.227 109.247 150.34 109.319 150.906 109.211C150.908 109.21 151.341 109.533 151.343 109.536C151.373 109.584 151.523 109.826 151.437 110.231C151.16 111.525 149.952 112.466 148.525 112.365C148.167 112.34 148.167 112.346 147.808 112.321C146.189 112.208 146.179 112.325 144.575 112.08C142.829 111.813 141.702 110.198 141.886 108.493C142.052 106.956 142.245 105.845 142.285 105.615C142.483 104.473 143.281 100.955 143.372 100.55C143.621 99.4508 143.882 98.3535 144.133 97.2544L144.15 97.149C144.194 97.0275 144.217 96.8955 144.284 96.7853C144.315 96.735 144.494 96.4437 144.882 96.348C144.942 96.3334 145.284 96.249 145.637 96.465C145.979 96.6739 146.06 97.0054 146.074 97.0628C146.105 97.1884 146.092 97.3208 146.093 97.4502C146.093 97.4858 146.079 97.5199 146.076 97.5555C145.983 98.6779 145.9 99.8014 145.805 100.923C145.77 101.336 145.465 104.927 145.309 106.073C145.083 107.728 144.863 108.71 144.813 108.937C144.764 109.154 144.915 109.309 144.938 109.333L144.937 109.335Z" fill="#C9F299"/>
<path fill-rule="evenodd" clip-rule="evenodd" d="M148.04 109.793C148.071 109.899 148.13 110.123 148.407 110.309C150.101 111.451 150.252 111.172 150.374 111.3C150.505 111.44 150.692 111.544 150.768 111.719C150.77 111.723 150.791 112.259 150.79 112.261C150.663 112.387 150.572 112.568 150.407 112.639C150.085 112.78 150.07 112.747 149.733 112.649C147.878 112.111 147.871 112.131 147.538 111.997C146.19 111.453 145.428 109.892 145.893 108.409C146.629 106.066 146.604 106.059 146.67 105.856C146.928 105.058 147.204 104.265 147.489 103.476C148.328 101.164 148.341 101.169 149.366 98.9335C149.938 97.6873 151.662 94.033 151.788 93.8158C152.137 93.2083 152.592 92.9132 152.823 92.7636C153.203 92.5168 153.549 92.5971 153.611 92.6117C153.734 92.6402 153.854 92.6923 153.956 92.7655C154.293 93.0051 154.349 93.352 154.359 93.412C154.423 93.8065 154.226 94.0851 154.191 94.1335C154.061 94.3172 154.048 94.3101 153.866 94.4316C153.67 94.63 153.657 94.753 153.623 94.8647C153.438 95.4557 151.805 100.7 151.237 102.226C150.942 103.017 150.615 103.795 150.287 104.573C150.125 104.954 149.037 107.524 148.1 109.259C147.961 109.517 148.034 109.763 148.041 109.792L148.04 109.793Z" fill="#C9F299"/>
<path fill-rule="evenodd" clip-rule="evenodd" d="M154.209 112.862C156.206 108.75 158.157 104.615 160.155 100.503C162.677 95.3089 162.734 95.3366 162.943 94.8803C163.069 94.605 162.966 94.3519 162.923 94.2739C162.776 94.0043 162.764 93.993 162.828 93.6926C162.829 93.6893 163.135 93.2348 163.137 93.2348C163.319 93.2029 163.503 93.1016 163.683 93.1406C163.735 93.1515 164.01 93.2108 164.212 93.5359C164.809 94.4963 164.46 95.3955 164.4 95.5466C163.637 97.4873 162.88 99.4301 162.11 101.369C161.028 104.094 159.949 106.822 158.843 109.538C158.684 109.928 157.091 113.842 156.786 114.388C156.055 115.698 154.418 116.253 153.019 115.641C150.447 114.516 150.439 114.534 150.116 114.36C148.627 113.558 148.253 111.784 148.838 110.541C152.496 102.765 152.533 102.783 156.268 95.0445C156.404 94.7625 156.36 94.7306 156.588 94.515C156.631 94.4741 156.879 94.2398 157.279 94.2488C157.692 94.2578 157.935 94.5139 157.977 94.5581C158.252 94.8491 158.244 95.19 158.243 95.2493C158.236 95.5624 158.183 95.5511 158.065 95.8414C156.665 99.294 156.681 99.2996 155.272 102.748C153.44 107.232 153.408 107.241 151.592 111.685L154.209 112.862ZM151.525 111.75L151.475 111.795C151.495 111.777 151.508 111.773 151.525 111.75ZM151.572 111.734L151.59 111.735C151.586 111.735 151.593 111.722 151.589 111.721C151.584 111.721 151.581 111.721 151.577 111.722C151.575 111.726 151.573 111.73 151.572 111.734ZM154.309 112.974L154.857 113.442C154.535 113.159 154.451 113.063 154.309 112.974Z" fill="#C9F299"/>
<path fill-rule="evenodd" clip-rule="evenodd" d="M145.227 84.1825C145.814 82.6 146.408 80.854 146.747 79.6964C146.826 79.4286 146.893 79.1864 146.894 79.186C146.991 79.0262 147.034 78.8155 147.186 78.7067C147.189 78.7049 147.746 78.5789 147.747 78.5796C147.905 78.679 148.112 78.7274 148.22 78.8792C148.419 79.1579 148.37 79.1826 148.347 79.5239C148.178 82.0694 147.774 84.2669 147.573 85.3532C147.377 86.413 147.375 86.4126 147.104 87.4562C147.098 87.481 147.027 87.751 147.022 87.766C146.992 87.8421 146.966 87.9197 146.928 87.9925C146.629 88.573 146.09 88.7144 145.998 88.7384C145.366 88.9041 144.9 88.5974 144.82 88.5449C144.614 88.4091 144.626 88.3956 144.462 88.2111C144.456 88.2044 143.998 87.6512 143.95 87.5905C143.722 87.2995 142.656 85.846 142.593 85.7466C142.517 85.6277 141.736 84.3554 141.403 83.7557C140.954 82.9465 139.721 80.7212 139.02 78.6145C138.989 78.5181 138.989 78.5189 138.951 78.4255C138.929 78.3696 138.799 78.0494 138.96 77.6717C139.01 77.5562 139.082 77.4475 139.172 77.3594C139.467 77.0699 139.819 77.0751 139.88 77.0759C140.28 77.0815 140.52 77.3249 140.561 77.3672C140.76 77.5697 140.717 77.5994 140.849 77.8514C141.54 79.1736 142.655 80.7797 144.398 83.0837C144.943 83.8037 144.963 83.7947 145.227 84.1825ZM143.153 73.0686C142.771 73.2055 142.786 73.2392 142.709 73.2689C142.65 73.2917 142.429 73.3457 142.095 73.5467C142.061 73.5677 141.758 73.7061 141.482 73.9424C141.48 73.9439 140.823 74.3267 140.375 75.22C140.163 75.643 140.102 76.0094 140.097 76.0232C140.036 76.1999 140.037 76.4147 139.91 76.5535C139.908 76.5557 139.393 76.7965 139.391 76.7961C139.216 76.732 139.004 76.7286 138.866 76.6034C138.55 76.3157 138.501 75.3239 138.495 75.2084C138.485 74.992 138.389 73.6997 139.289 72.2436C139.478 71.9372 139.997 71.3189 140.591 70.9367C140.601 70.93 141.032 70.6424 141.588 70.4241C141.776 70.3502 142.517 70.1627 143.317 70.2055C145.115 70.3019 146.13 71.2052 146.329 71.3436C146.514 71.4719 146.531 71.4565 146.663 71.6387C146.697 71.6867 146.897 71.9635 146.835 72.3591C146.772 72.7675 146.486 72.9734 146.437 73.0094C146.112 73.2434 145.775 73.1909 145.716 73.1819C145.505 73.1492 145.514 73.1207 145.319 73.0307C145.218 72.9839 144.96 72.9317 144.929 72.925C144.809 72.901 144.525 72.8455 144.082 72.8695C143.66 72.8924 143.366 72.9996 143.137 73.0712L143.153 73.0686Z" fill="#C9F299"/>
<path fill-rule="evenodd" clip-rule="evenodd" d="M159.616 63.5094C159.637 63.5657 159.76 63.887 159.593 64.2598C159.542 64.3749 159.468 64.4822 159.377 64.5692C159.164 64.7717 159.132 64.7222 158.87 64.8549C156.905 65.8494 155.416 68.9364 155.267 73.4705C155.208 75.2398 155.312 76.1432 155.487 77.7913C155.492 77.8434 155.641 79.6175 156.327 82.2388C156.365 82.3839 156.712 83.8224 157.598 85.9333C159.39 90.2042 162.193 92.9492 164.78 92.7939C165.179 92.7699 165.394 92.7043 165.407 92.7054C165.594 92.7249 165.803 92.6754 165.968 92.7647C165.971 92.7662 166.326 93.2045 166.326 93.206C166.263 93.8124 166.344 93.9523 165.766 94.1462C162.436 95.2625 158.399 92.903 155.402 87.5844C155.245 87.3054 154.444 85.949 153.637 83.5322C153.566 83.3188 152.885 81.4209 152.501 78.5094C152.472 78.2912 152.339 77.4673 152.332 75.827C152.305 69.4033 154.622 64.442 158.069 63.0538C158.338 62.9454 158.337 62.9432 158.349 62.9409C158.475 62.9165 158.602 62.8742 158.731 62.8779C158.79 62.8798 159.131 62.8903 159.407 63.1805C159.543 63.3234 159.545 63.3249 159.616 63.5094Z" fill="#C9F299"/>
<path fill-rule="evenodd" clip-rule="evenodd" d="M124.388 97.3018C124.601 97.0386 124.574 96.9794 124.906 96.9002C124.909 96.8995 125.465 96.9887 125.466 96.9902C125.576 97.1425 125.751 97.2655 125.795 97.4481C125.808 97.5014 125.866 97.7485 125.645 98.116C125.106 99.0092 124.272 99.2991 124.172 99.3392C123.153 99.7491 122.136 100.165 121.115 100.569C120.698 100.734 116.184 102.52 115.896 102.604C114.093 103.127 112.116 102.158 111.477 100.247C111.118 99.1724 110.75 98.1002 110.401 97.0225C110.375 96.9411 110.114 96.0426 110.07 95.7992C109.75 94.0277 110.783 92.2709 112.511 91.7421C112.873 91.6315 115.13 91.0225 115.358 90.961C116.859 90.5556 118.364 90.1604 119.867 89.7561C120.127 89.6864 120.123 89.6455 120.392 89.6672C120.451 89.6721 120.791 89.6999 121.052 90.0036C121.092 90.0501 121.321 90.3175 121.288 90.7296C121.255 91.129 120.996 91.351 120.951 91.3896C120.747 91.5651 120.726 91.5299 120.474 91.6262C118.968 92.203 118.525 92.3924 113.403 94.3259C113.185 94.408 112.823 94.7965 113.008 95.2551C113.173 95.6642 113.175 95.6631 113.312 96.0831C113.855 97.75 113.865 97.7462 114.364 99.4274C114.436 99.6715 114.711 99.9854 115.185 99.9032V99.9036C119.409 98.8064 119.408 98.7962 123.646 97.735C123.933 97.663 124.122 97.5854 124.388 97.3015L124.388 97.3018Z" fill="#C9F299"/>
<path fill-rule="evenodd" clip-rule="evenodd" d="M131.017 80.9549L129.602 81.2816C129.411 81.2579 129.201 81.2969 129.03 81.2096C129.027 81.2081 128.67 80.8057 128.67 80.8038C128.687 80.6234 128.64 80.4239 128.723 80.2619C128.889 79.9361 128.93 79.9601 129.269 79.8232C131.317 78.9952 131.309 78.9678 131.535 78.9277C132.047 78.8377 132.345 79.1767 132.393 79.2311C132.571 79.4336 132.492 79.4823 133.141 80.5833C134.188 82.3601 135.045 83.3928 135.665 84.2568C135.935 84.6333 136.141 84.9123 136.318 85.1482C136.77 84.1897 137.4 82.8082 137.855 81.6404C138.161 80.8537 138.738 79.3496 138.875 78.1799C138.882 78.1177 138.879 78.0543 138.88 78.0494C138.903 77.9223 138.91 77.7892 138.96 77.6703C139.117 77.3017 139.433 77.1723 139.488 77.1502C139.544 77.1269 139.871 76.9934 140.251 77.1554C140.62 77.3122 140.749 77.6279 140.771 77.6827C140.88 77.9482 140.839 77.9572 140.846 78.2437C140.897 80.4389 139.942 83.5428 139.478 84.9843C139.3 85.5367 138.692 87.2444 138.479 87.7162C137.93 88.9282 137.88 88.9499 137.877 88.9556C137.819 89.0381 137.48 89.5237 136.791 89.5957C136.69 89.6062 136.101 89.6673 135.596 89.1933C135.513 89.1153 135.395 88.9852 134.654 87.9273C134.52 87.7364 133.462 86.1059 133.019 85.2888C131.847 83.1232 131.291 81.7507 131.017 80.9549ZM149.561 93.9194C149.62 93.8838 150.217 93.5354 150.78 92.7164C151.092 92.2634 151.227 91.8678 151.237 91.8517C151.329 91.6882 151.367 91.4767 151.515 91.3623C151.518 91.3601 152.066 91.2131 152.067 91.2138C152.229 91.3076 152.438 91.3477 152.552 91.4958C152.81 91.8303 152.691 92.9028 152.678 93.0247C152.659 93.1987 152.56 94.4381 151.611 95.7967C151.593 95.8237 151.061 96.5227 150.371 96.9723C149.912 97.2712 149.521 97.4433 149.372 97.5082C149.013 97.6642 147.167 97.9623 146.974 97.9934C146.473 98.0741 145.97 98.1434 145.469 98.2222C145.453 98.2248 145.439 98.2349 145.423 98.2372C145.295 98.2544 145.166 98.2912 145.038 98.2807C144.978 98.2758 144.638 98.2484 144.378 97.9443C144.108 97.6304 144.137 97.2791 144.142 97.2183C144.174 96.8193 144.433 96.5969 144.478 96.5583C144.576 96.4743 144.702 96.4282 144.815 96.3671C144.83 96.3596 144.847 96.3596 144.861 96.3521C145.313 96.1218 145.759 95.8826 146.211 95.6538C147.077 95.2154 147.077 95.2177 147.96 94.8153C148.018 94.7891 148.16 94.7069 148.178 94.6972C148.238 94.6619 148.494 94.5866 148.84 94.3769C149.13 94.2014 149.151 94.2344 149.56 93.9183L149.561 93.9194ZM139.448 99.1462C139.198 99.6273 139.352 99.7222 138.956 100.092C138.773 100.264 138.595 100.44 138.407 100.607C138.191 100.798 137.977 100.993 137.745 101.165C137.61 101.265 137.461 101.346 137.31 101.418C136.87 101.63 136.859 101.614 136.371 101.632C136.168 101.639 135.966 101.638 135.764 101.635C135.522 101.631 135.281 101.616 135.04 101.61C135.033 101.61 135.026 101.616 135.018 101.617C134.89 101.633 134.762 101.671 134.633 101.661C134.234 101.628 134.012 101.369 133.973 101.324C133.933 101.278 133.704 101.01 133.737 100.598C133.77 100.199 134.029 99.9768 134.073 99.9382C134.172 99.8538 134.298 99.8092 134.411 99.7469C134.418 99.7432 134.427 99.7443 134.433 99.7398C134.625 99.5932 134.811 99.4394 135.003 99.2943C135.073 99.2422 135.687 98.7806 135.903 98.6879C136.055 98.6231 136.22 98.5904 136.382 98.5608C136.547 98.5308 136.715 98.5087 136.882 98.5102C137.171 98.5128 137.459 98.5451 137.746 98.5728C137.753 98.5736 138.515 98.6692 138.516 98.6692C138.72 98.7299 138.936 98.7581 139.125 98.8541C139.321 98.9538 139.284 98.9984 139.448 99.1462Z" fill="#C9F299"/>
<path fill-rule="evenodd" clip-rule="evenodd" d="M159.797 62.941C159.816 62.9984 159.923 63.3269 159.737 63.6906C159.68 63.8028 159.6 63.9063 159.505 63.988C159.259 64.1991 159.23 64.1489 158.925 64.258C158.285 64.4868 151.182 67.0281 150.932 67.1335C147.969 68.3838 146.666 71.6163 147.61 74.3969C147.961 75.4304 147.97 75.4263 147.999 75.5166C148.608 77.395 149.215 79.2741 149.804 81.1593C151.163 85.5123 151.154 85.5145 152.414 89.8968C153.371 93.2223 156.747 94.8944 159.827 94.1316C160.108 94.0619 160.106 94.0529 163.308 93.1533C163.596 93.0726 163.61 93.0745 163.876 93.2103C163.879 93.2118 164.241 93.6288 164.241 93.6306C164.225 93.8144 164.276 94.0173 164.192 94.1815C164.106 94.3506 163.922 94.4508 163.767 94.561C163.757 94.5685 160.453 95.7854 160.223 95.8593C156.71 96.9925 152.554 95.5885 150.525 91.9289C150.475 91.8389 150.216 91.372 149.993 90.7581C148.423 86.437 148.415 86.4404 146.945 82.0848C146.755 81.5193 144.965 76.2156 144.653 74.983C143.502 70.4489 146.167 65.9313 150.496 64.669C154.529 63.4926 154.563 63.6078 158.559 62.3099C158.616 62.2911 158.944 62.1846 159.308 62.3699C159.672 62.5555 159.779 62.884 159.797 62.941Z" fill="#C9F299"/>
<path fill-rule="evenodd" clip-rule="evenodd" d="M190.607 87.64C190.654 87.565 190.718 87.4641 190.727 87.4502C190.74 87.4292 190.778 87.3692 190.966 87.2526C191.56 86.8836 192.128 87.0685 192.225 87.1C192.89 87.3164 193.115 87.8702 193.152 87.9644C193.416 88.6127 193.136 89.1419 193.089 89.2319C193.047 89.3114 192.701 89.8045 192.69 89.8146C192.681 89.8236 192.378 90.0381 192.32 90.0764C192.276 90.1052 191.872 90.3284 191.818 90.355C191.742 90.3925 191.433 90.5335 191.241 90.6119C191.227 90.6175 191.213 90.6212 191.199 90.6284C191.193 90.6317 191.19 90.6389 191.184 90.6426C191.076 90.7131 190.977 90.8035 190.857 90.8504C190.802 90.8717 190.484 90.9955 190.116 90.8361C190.061 90.8117 189.737 90.6715 189.587 90.286C189.442 89.9129 189.578 89.5997 189.601 89.5454C189.611 89.5232 189.622 89.5019 189.634 89.4809C189.624 89.4036 189.623 89.3275 189.647 89.254C189.664 89.2022 189.741 89.2345 189.912 89.0072C189.918 88.9915 189.924 88.9746 189.93 88.9562C189.944 88.9172 189.941 88.9165 190.101 88.4669C190.177 88.2546 190.173 88.2539 190.257 88.045C190.32 87.8909 190.316 87.8886 190.324 87.877C190.341 87.8534 190.344 87.8556 190.572 87.6077L190.607 87.64Z" fill="#C9F299"/>
<path fill-rule="evenodd" clip-rule="evenodd" d="M191.243 89.9351C191.243 89.9396 191.243 89.9438 191.243 89.9483C191.235 90.2921 191.191 90.2906 190.95 90.5359C187.111 94.4408 181.329 94.9268 175.853 90.6345C174.3 89.4169 173.114 88.1066 172.034 86.6396C170.481 84.528 169.57 82.6414 168.953 81.1879C168.137 79.2671 167.789 77.985 167.711 77.6993C165.657 70.1243 166.387 62.6366 169.026 57.351C169.173 57.0578 169.175 57.0371 169.185 57.0236C169.264 56.9209 169.324 56.8016 169.421 56.7161C169.466 56.6771 169.722 56.4514 170.122 56.4746C170.153 56.4765 170.324 56.4866 170.499 56.5721C170.553 56.5988 170.863 56.7503 170.996 57.1358C171.037 57.2546 171.056 57.3836 171.049 57.5093C171.035 57.7605 171.014 57.7575 170.905 57.9836C170.849 58.0995 170.342 59.202 169.911 60.8543C168.568 65.9925 169.041 71.991 170.73 77.157C170.892 77.6501 171.572 80.1383 173.337 83.2703C173.611 83.7559 174.641 85.6024 176.469 87.5764C179.695 91.0598 183.576 92.4413 187.115 91.1408C185.729 91.029 184.025 90.4796 182.119 88.992C180.81 87.9701 177.302 84.8363 174.712 77.7143C174.705 77.694 174.093 75.9881 173.561 73.5668C173.453 73.0751 172.784 70.2131 172.703 66.2944C172.605 61.5068 173.724 54.8175 177.272 51.3619C177.182 51.2269 177.011 50.9663 177.012 50.9648C177.05 50.781 177.022 50.5691 177.127 50.4139C177.312 50.1416 177.341 50.1566 177.662 50.0861C177.7 50.0779 178.535 49.8773 179.553 49.86C180.349 49.8465 180.648 50.73 180.199 51.2209C180.026 51.4095 179.655 51.5145 178.96 52.1846C176.881 54.1886 175.19 58.689 175.486 65.3029C175.513 65.8991 175.55 67.9613 176.113 70.9459C176.227 71.5478 176.594 73.7599 177.538 76.5341C177.604 76.7284 179.731 84.1346 184.253 87.5948C185.464 88.521 187.475 89.6216 189.692 88.7306C189.904 88.6455 189.897 88.6301 189.915 88.6249C190.04 88.5908 190.161 88.5319 190.29 88.5225C190.349 88.518 190.689 88.4921 190.994 88.7513C191.04 88.7906 191.309 89.0186 191.34 89.4308C191.357 89.6415 191.303 89.8133 191.243 89.9351Z" fill="#C9F299"/>
<path fill-rule="evenodd" clip-rule="evenodd" d="M179.52 50.5281L179.246 50.0211C179.654 49.7965 183.303 47.5225 188.154 51.6557C193.789 56.4569 197.637 67.0131 197.369 76.7462C197.311 78.8575 196.974 80.6804 196.912 81.0186C195.971 86.1096 193.598 90.3404 189.594 91.4005C185.934 92.3695 182.838 89.9399 182.337 89.56C179.273 87.2324 176.288 82.639 174.508 76.615C171.98 68.0549 172.401 58.8212 175.571 53.4317C176.975 51.0445 178.484 50.1715 179.126 49.8096L179.52 50.5281ZM179.955 51.3209L180.072 51.5335C179.95 51.6017 176.946 52.966 175.751 59.341C174.052 68.4089 177.376 80.5007 182.891 85.9874C185.862 88.9431 187.884 88.6454 188.6 88.5254C189.12 88.4204 191.085 88.03 192.749 84.6209C195.311 79.3727 194.539 71.8401 194.529 71.7246C193.565 59.8697 187.148 49.9442 181.422 50.8397C180.648 50.9609 180.119 51.2399 179.955 51.3209Z" fill="#C9F299"/>
<path fill-rule="evenodd" clip-rule="evenodd" d="M184.988 93.5819C182.972 94.2723 176.15 96.604 173.536 97.4328C173.15 97.555 169.509 99.0374 164.932 94.6326C164.205 93.934 161.845 91.615 159.662 86.6541C159.202 85.6075 157.673 82.1114 156.854 76.8314C156.524 74.7104 156.46 73.2539 156.446 72.9415C156.104 65.1768 158.105 58.6795 161.846 55.984C161.867 55.9694 162.007 55.8633 162.192 55.7913C165.884 54.3599 169.579 52.9349 173.271 51.5039C174.462 50.6988 175.703 50.152 177.588 49.8558C177.647 49.8464 177.989 49.7928 178.32 50.0354C178.421 50.11 178.511 50.2053 178.576 50.3125C178.791 50.6658 178.707 51.0074 178.692 51.0666C178.595 51.4548 178.304 51.6329 178.253 51.6636C178.025 51.8031 178.013 51.7754 177.75 51.8211C175.702 52.1751 174.395 53.3013 174.282 53.3714C174.216 53.4115 174.177 53.4284 174.167 53.4325L173.431 53.7471C172.067 55.1526 171.44 56.7389 170.871 58.0874C168.808 62.9778 169.202 68.0751 169.265 69.1889C169.292 69.6921 169.4 72.0333 170.233 75.4071C170.742 77.4741 171.297 78.877 171.81 80.1576C173.942 85.4774 177.698 90.1083 182.174 91.3334C182.328 91.3754 183.713 91.765 185.137 91.579C185.178 91.5738 185.357 91.5505 185.57 91.6195C186.4 91.4883 188.119 91.075 189.93 89.4543C190.182 89.2289 190.182 89.1865 190.52 89.1936C190.523 89.1936 191.039 89.4209 191.04 89.4224C191.108 89.5975 191.247 89.7606 191.243 89.9485C191.235 90.2928 191.194 90.2928 190.949 90.5346C188.939 92.5195 186.909 93.1221 185.854 93.3415C185.826 93.3629 185.796 93.3828 185.765 93.4004C185.541 93.5313 185.532 93.5114 185.274 93.544C185.211 93.5519 185.115 93.5661 184.988 93.5819ZM170.245 55.108L163.312 58.0686C162.75 58.5018 160.522 60.4131 159.684 66.1983C159.223 69.3858 159.417 72.256 159.599 74.2233C159.663 74.9095 160.035 79.3851 161.972 84.5219C162.144 84.9783 163.613 89.0425 166.32 92.1786C169.537 95.9061 172.047 95.3628 172.412 95.3088C173.07 95.1486 173.184 95.1171 180.323 93.0618C178.52 92.4599 176.381 91.2831 174.162 89.0429C171.346 86.1993 169.716 82.9739 168.808 80.8735C168.687 80.5934 167.497 77.644 166.936 74.3313C166.5 71.7558 166.46 69.7638 166.453 68.8458C166.446 67.8798 166.545 66.6985 166.56 66.5125C167.05 60.6764 168.996 57.385 169.376 56.6466C169.61 56.1925 169.891 55.6649 170.245 55.108Z" fill="#C9F299"/>
<path fill-rule="evenodd" clip-rule="evenodd" d="M61.7393 169.7C61.7644 169.677 61.7918 169.651 61.8225 169.623C61.9227 169.667 62.5902 170.022 64.2717 170.306C65.5155 170.517 66.3559 170.488 66.8869 170.5C66.9713 170.502 67.4168 170.533 68.7124 170.415C69.4808 170.346 69.8562 170.233 70.1453 170.191C70.3755 170.157 71.6397 169.963 72.9072 169.312C74.1192 168.69 74.8673 167.963 75.1587 167.675C75.222 167.613 75.2145 167.607 75.2205 167.602C75.3199 167.52 75.4058 167.417 75.5198 167.356C75.5715 167.327 75.8719 167.165 76.2559 167.276C76.3148 167.293 76.6527 167.391 76.8503 167.754C77.0415 168.106 76.9463 168.434 76.9298 168.491C76.8623 168.723 76.8379 168.712 76.6943 168.907C76.3437 169.382 75.2142 171.167 72.6803 172.447C72.0327 172.774 70.9939 173.136 70.5473 173.222C69.249 173.47 68.343 173.441 68.1503 173.435C66.951 173.395 66.2562 173.242 66.0945 173.207C63.1662 172.563 60.9345 171.192 60.5438 170.444C60.2509 169.883 60.6447 169.459 60.6807 169.443C60.8539 169.369 61.0152 169.229 61.2034 169.229C61.2072 169.229 61.6834 169.426 61.725 169.444C61.755 169.456 61.749 169.47 61.7393 169.7ZM61.7258 170.463C61.7258 170.473 61.7258 170.482 61.7258 170.492L61.74 170.477L61.7258 170.463Z" fill="#C9F299"/>
<path fill-rule="evenodd" clip-rule="evenodd" d="M54.3424 170.757C54.3537 170.935 54.405 171.255 55.2972 171.807C56.6805 172.662 58.9984 172.948 60.8708 172.699C61.221 172.652 61.2402 172.619 61.5439 172.8C61.5469 172.802 61.875 173.222 61.875 173.223C61.845 173.4 61.8754 173.598 61.7839 173.752C61.5994 174.06 61.5675 174.043 61.227 174.16C57.7125 175.365 54.7902 174.714 53.4762 173.972C51.681 172.957 51.0165 171.339 51.4523 169.758C51.7373 168.725 52.3797 168.09 52.4974 167.974C54.2509 166.242 57.4999 165.377 60.8145 165.852C61.0707 165.889 61.0823 165.853 61.3118 165.972C61.3643 165.999 61.6673 166.156 61.7903 166.538C61.809 166.596 61.9174 166.931 61.7273 167.298C61.5432 167.654 61.2184 167.759 61.1622 167.777C60.8985 167.862 60.8918 167.811 60.6154 167.816C57.8813 167.871 55.4618 169.035 54.6732 170.1C54.6627 170.115 54.6525 170.13 54.6417 170.145L54.6424 170.145C54.4737 170.349 54.345 170.521 54.3424 170.757Z" fill="#C9F299"/>
<path fill-rule="evenodd" clip-rule="evenodd" d="M83.3213 168.228C83.3081 168.127 83.2665 167.83 82.458 167.299C81.2516 166.506 79.131 166.109 77.142 166.291C76.8083 166.321 76.785 166.382 76.5034 166.201C76.5008 166.199 76.1786 165.731 76.179 165.73C76.2836 165.162 76.1985 165.027 76.7479 164.851C80.2624 163.727 83.0768 164.431 84.321 165.174C85.9721 166.159 86.6329 167.691 86.2421 169.236C85.9781 170.278 85.3425 170.922 85.2263 171.039C83.4653 172.821 80.3074 173.564 77.364 173.249C77.2639 173.238 77.2646 173.238 77.1634 173.233C77.103 173.231 76.7576 173.215 76.4816 172.911C76.3969 172.818 76.3283 172.707 76.2855 172.589C76.1453 172.2 76.2964 171.882 76.3226 171.827C76.4944 171.466 76.8154 171.349 76.8709 171.329C77.1356 171.233 77.1446 171.285 77.4255 171.268C79.9943 171.115 82.2923 169.994 83.04 168.919C83.1728 168.729 83.325 168.59 83.3321 168.311C83.3303 168.283 83.3284 168.272 83.3194 168.228L83.3213 168.228Z" fill="#C9F299"/>
<path fill-rule="evenodd" clip-rule="evenodd" d="M77.5257 179.178C77.4653 179.18 77.1203 179.196 76.8188 178.921C76.7258 178.836 76.6471 178.732 76.5934 178.618C76.5383 178.501 76.5256 178.369 76.4986 178.242C76.4926 178.215 76.4986 178.186 76.4948 178.158C76.3744 177.272 76.2443 176.388 76.1258 175.502C76.0823 175.176 75.7032 172.342 75.6402 171.427C75.5956 170.781 75.5858 170.132 75.5783 169.484C75.5712 168.841 75.5712 168.197 75.5963 167.554C75.6151 167.079 75.6687 165.723 75.9814 161.629C76.0043 161.328 76.0088 161.317 76.2121 161.095C76.2147 161.092 76.6876 160.855 76.6891 160.855C76.8537 160.92 77.0513 160.931 77.1822 161.05C77.4334 161.28 77.4177 161.302 77.4736 161.638C77.6209 162.524 77.7754 163.408 77.9149 164.295C78.0792 165.337 78.2472 166.38 78.3852 167.426C78.4688 168.064 78.5277 168.705 78.5794 169.347C78.7306 171.227 78.7156 171.229 78.6646 173.114C78.6439 173.872 78.6154 174.631 78.5839 175.389C78.5468 176.282 78.4981 177.175 78.4587 178.068C78.4576 178.095 78.4613 178.123 78.4628 178.151C78.4654 178.211 78.4812 178.556 78.2059 178.857C77.9307 179.159 77.5857 179.175 77.5257 179.178Z" fill="#C9F299"/>
<path fill-rule="evenodd" clip-rule="evenodd" d="M61.4723 180.304C61.4123 180.306 61.0673 180.322 60.7658 180.047C60.6728 179.962 60.594 179.858 60.5404 179.744C60.4853 179.628 60.4726 179.495 60.4456 179.368C60.4396 179.341 60.4456 179.311 60.4414 179.283C60.3211 178.398 60.1909 177.514 60.0724 176.628C60.0289 176.302 59.6502 173.468 59.5868 172.553C59.5422 171.907 59.5324 171.258 59.5253 170.61C59.5178 169.967 59.5182 169.323 59.5433 168.68C59.5621 168.205 59.6153 166.848 59.9284 162.755C59.9513 162.454 59.9558 162.444 60.1591 162.221C60.1613 162.218 60.6342 161.981 60.6361 161.981C60.8003 162.046 60.9983 162.057 61.1288 162.177C61.38 162.406 61.3647 162.428 61.4205 162.764C61.5675 163.65 61.7221 164.534 61.8619 165.421C62.0258 166.464 62.1942 167.506 62.3318 168.552C62.4158 169.19 62.4747 169.831 62.526 170.473C62.6772 172.353 62.6626 172.354 62.6112 174.24C62.5906 174.999 62.5621 175.757 62.5306 176.515C62.4938 177.408 62.445 178.301 62.4057 179.194C62.4045 179.221 62.4083 179.249 62.4094 179.277C62.4121 179.337 62.4282 179.682 62.1529 179.983C61.8773 180.285 61.5323 180.301 61.4723 180.304Z" fill="#C9F299"/>
<path fill-rule="evenodd" clip-rule="evenodd" d="M114.672 105.943C114.907 105.893 116.466 105.67 117.407 102.997C117.878 101.658 117.919 100.245 117.921 100.24C117.993 100.066 118.004 99.8515 118.136 99.7187C118.139 99.7165 118.662 99.5008 118.664 99.5012C118.837 99.5736 119.05 99.5863 119.183 99.7191C119.422 99.9591 119.391 99.9883 119.406 100.328C119.577 104.411 117.845 107.859 114.564 108.311C112.555 108.587 110.211 107.525 108.39 105.332C106.524 103.083 105.843 100.634 105.774 100.409C105.262 98.737 105.141 97.4042 105.099 96.8713C105.099 96.868 105.05 96.1153 105.114 95.1748C105.573 88.507 110.534 85.6806 114.84 89.1722C115.929 90.0553 116.654 91.1417 116.874 91.4466C116.91 91.4953 117.112 91.7743 117.046 92.179C117.026 92.3031 116.981 92.4257 116.916 92.533C116.699 92.8851 116.356 92.965 116.297 92.9785C116.208 92.9991 115.667 93.1247 115.244 92.5468C115.2 92.488 114.316 91.3015 113.053 90.5998C111.695 89.8453 110.808 90.1393 110.586 90.2001L110.6 90.1963C110.51 90.2256 108.903 90.5635 108.285 93.4922C107.993 94.8805 108.098 96.1123 108.172 96.9535C108.188 97.1327 108.312 99.0553 109.341 101.39C109.411 101.549 110.087 103.181 111.457 104.564C113.18 106.304 114.557 105.961 114.686 105.94L114.672 105.943Z" fill="#C9F299"/>
<path fill-rule="evenodd" clip-rule="evenodd" d="M134.915 47.057C134.941 47.051 137.607 46.2477 140.141 47.9157C143.052 49.832 143.625 53.7503 141.494 56.5148C139.791 58.7243 137.39 59.1083 137.321 59.123C134.858 59.6393 133.075 58.7592 133.064 58.7543C130.269 57.5416 128.79 54.8101 129.266 52.0696C129.714 49.4911 131.844 47.3892 134.626 46.8672C134.748 46.8443 134.747 46.844 134.869 46.8188L134.915 47.057ZM135.194 48.5112L135.24 48.7497C135.24 48.7501 135.104 48.7658 134.783 48.8783C131.941 49.8747 130.838 53.0652 132.755 55.0321C133.331 55.6224 134.016 55.9295 134.795 56.1237C134.817 56.1293 136.201 56.5576 137.855 55.8024C138.081 55.6989 139.123 55.232 139.819 53.9821C141.037 51.7962 139.634 49.2076 136.976 48.599C135.984 48.3717 135.195 48.5198 135.194 48.5112Z" fill="#C9F299"/>
<path fill-rule="evenodd" clip-rule="evenodd" d="M115.822 68.578C115.831 68.5761 117.795 67.9382 119.713 69.214C121.906 70.6735 122.387 73.6708 120.921 75.7873C119.724 77.5157 117.953 77.8825 117.951 77.8825C116.672 78.2188 115.389 78.064 114.485 77.6556C112.245 76.6442 111.113 74.3387 111.612 72.1135C112.036 70.2283 113.595 68.7283 115.596 68.3758C115.687 68.3597 115.686 68.3586 115.776 68.3398L115.822 68.578ZM116.101 70.0292L116.147 70.2707C116.147 70.2707 115.136 70.4661 114.492 71.4707C114.218 71.8978 114.147 72.3328 114.141 72.3655C114.046 72.8867 114.166 73.2715 114.192 73.372L114.188 73.3543C114.236 73.5122 114.524 74.4696 115.62 74.8401C116.255 75.055 116.584 75.07 117.063 74.9935C117.264 74.953 117.27 74.9518 117.476 74.8832V74.8836C117.579 74.8513 118.305 74.6432 118.795 73.9093C119.065 73.5055 119.279 73.1188 119.235 72.3865L119.238 72.4026C119.217 72.2035 119.178 71.659 118.672 71.047C118.524 70.8681 117.728 69.9407 116.188 70.0262C116.157 70.0281 116.128 70.0292 116.101 70.0292Z" fill="#C9F299"/>
<path fill-rule="evenodd" clip-rule="evenodd" d="M86.5924 44.6827C86.7803 44.6269 88.7457 44.0906 90.6679 45.4564C92.9153 47.0531 93.4512 50.214 92.0089 52.4726C91.7022 52.9526 90.7152 54.3274 88.8102 54.8077C87.4534 55.1497 86.1113 54.9409 85.1701 54.4755C82.9486 53.3767 81.7868 51.0064 82.2034 48.6735C82.5777 46.5769 84.2026 44.8785 86.3419 44.487C86.4376 44.4697 86.4368 44.4686 86.5321 44.4487C86.5478 44.5301 86.5681 44.6077 86.5924 44.6827ZM87.3676 46.1325C87.3323 46.2386 87.1864 46.3204 86.8636 46.3875C86.6941 46.4227 85.6834 46.725 85.0939 47.7772C84.4763 48.8797 84.8198 49.9054 84.8232 49.9204L84.8202 49.9035C84.9233 50.2616 85.0069 50.4262 85.1847 50.703L85.1854 50.7026C85.2353 50.7769 85.6069 51.387 86.4064 51.7027C87.1579 51.9997 87.5693 51.9694 87.9728 51.9052C88.2567 51.8479 89.1368 51.6637 89.7417 50.784C90.3166 49.9477 90.3031 49.2735 90.2689 48.8587L90.2719 48.8741C90.2708 48.8647 90.2288 47.7664 89.2568 46.9087C88.7367 46.4497 88.0729 46.176 87.3676 46.1325Z" fill="#C9F299"/>
<path fill-rule="evenodd" clip-rule="evenodd" d="M111.494 46.8172C111.554 46.8124 111.898 46.7839 112.21 47.0482C112.306 47.1292 112.388 47.2305 112.446 47.3422C112.505 47.457 112.522 47.5894 112.554 47.7142C112.56 47.7349 112.556 47.757 112.56 47.7776C112.686 48.471 113.253 50.7154 113.106 52.2386C113.018 53.1499 112.793 53.5556 112.607 53.8489C111.844 55.0466 110.637 55.2904 110.436 55.3402C109.761 55.5082 109.236 55.5172 109.131 55.5187C108.376 55.5315 107.457 55.473 106.929 55.4407C106.872 55.4374 105.115 55.284 104.882 55.2656C104.597 55.2427 104.565 55.3222 104.347 55.137C104.345 55.1355 104.084 54.5865 104.085 54.585C104.143 54.4114 104.142 54.2044 104.261 54.0649C104.384 53.9197 104.587 53.8654 104.762 53.79C104.765 53.7885 104.765 53.7885 106.506 53.367C107.27 53.1821 108.097 53.0209 108.892 52.7606C109.122 52.6856 109.425 52.6556 109.838 52.4032C109.978 52.3174 109.985 52.317 110.05 52.1659C110.052 52.1621 110.19 52.0159 110.294 51.4586C110.314 51.3547 110.438 50.9156 110.552 48.9034C110.576 48.4867 110.6 47.9445 110.6 47.9374C110.6 47.9167 110.593 47.8965 110.595 47.8759C110.607 47.7472 110.601 47.6141 110.642 47.4911C110.66 47.4349 110.765 47.1101 111.12 46.926C111.296 46.8352 111.297 46.8337 111.494 46.8172Z" fill="#C9F299"/>
<path fill-rule="evenodd" clip-rule="evenodd" d="M120.874 53.2943C120.887 53.3528 120.96 53.6892 120.739 54.0338C120.671 54.1395 120.581 54.2348 120.478 54.3068C120.372 54.3807 120.243 54.414 120.123 54.4632C120.112 54.468 120.11 54.4609 119.972 54.5112C117.535 55.4003 116.085 54.612 115.379 54.0784C115.226 53.9625 114.609 53.3183 114.333 52.623C114.181 52.239 114.084 51.8884 114.009 51.4639C114.008 51.462 113.961 51.0799 113.978 50.5433C114.007 49.5844 114.195 48.7808 114.492 47.9224C114.615 47.5677 114.593 47.5365 114.9 47.3205C114.903 47.3183 115.397 47.1852 115.398 47.1863C115.529 47.2819 115.695 47.3423 115.788 47.4747C116.025 47.811 115.975 47.8362 116.02 48.2449C116.075 48.7377 116.261 49.8788 116.661 50.6655C116.786 50.9115 116.858 51.1242 117.048 51.3687C117.074 51.4017 117.179 51.6064 117.389 51.7763C117.412 51.7947 117.786 52.5803 119.643 52.551C119.657 52.5507 119.703 52.5417 119.706 52.5417C119.835 52.5402 119.967 52.5143 120.094 52.5375C120.152 52.5484 120.488 52.6103 120.717 52.9384C120.83 53.0997 120.831 53.1015 120.874 53.2943Z" fill="#C9F299"/>
<path fill-rule="evenodd" clip-rule="evenodd" d="M114.723 62.2333C115.043 62.6275 115.072 62.6275 115.051 62.665C114.958 62.8281 114.92 63.0388 114.771 63.1543C114.378 63.46 113.984 63.2428 113.925 63.2102C113.352 62.8952 113.021 61.6198 112.966 60.8822C112.955 60.7348 112.889 59.842 113.172 59.0466C113.311 58.6551 113.577 58.2801 113.621 58.2186C113.732 58.0611 114.084 57.5406 114.921 57.1288C115.281 56.9522 115.485 56.9106 115.536 56.9001C116.945 56.6132 118.29 57.0703 119.563 57.7821C119.588 57.7956 119.616 57.8023 119.64 57.8166C119.751 57.8818 119.875 57.9325 119.97 58.0202C120.014 58.0603 120.264 58.2921 120.281 58.6922C120.299 59.1055 120.06 59.3638 120.018 59.4085C119.747 59.7021 119.405 59.7171 119.346 59.7197C119.131 59.7291 119.133 59.7047 118.926 59.6488C118.873 59.6346 117.609 59.4415 116.837 59.6496C116.666 59.6961 116.574 59.7006 116.349 59.836L116.35 59.8378C116.118 59.9065 116.126 59.9248 116.012 59.9927C115.983 60.01 115.856 60.0523 115.694 60.2533C115.63 60.3332 115.322 60.553 115.071 61.4597C114.96 61.8628 114.961 62.1257 114.936 62.1377C114.921 62.1445 114.833 62.179 114.723 62.2333ZM114.427 61.8606L114.43 61.84L114.408 61.8366C114.415 61.8448 114.421 61.8527 114.427 61.8606Z" fill="#C9F299"/>
<path fill-rule="evenodd" clip-rule="evenodd" d="M108.534 59.2667C108.461 59.1909 108.039 59.0784 107.244 59.2228C106.982 59.2704 106.447 59.3619 105.515 59.6844C105.432 59.7129 105.436 59.7212 105.417 59.7268C105.293 59.7651 105.173 59.8217 105.044 59.8322C104.985 59.8371 104.644 59.8648 104.338 59.6079C104.291 59.5686 104.021 59.3424 103.987 58.9303C103.954 58.5313 104.173 58.2699 104.211 58.2246C104.261 58.1657 104.306 58.1121 104.993 57.6714C106.133 56.9398 108.231 55.7608 110.029 56.6811C110.117 56.7257 110.72 56.9964 111.171 57.8323C111.651 58.7214 111.605 59.5989 111.602 59.7328C111.59 60.4659 111.462 60.9561 111.435 61.0596C111.011 62.6822 110.183 64.0967 110.142 64.1691C109.891 64.6217 109.694 64.9341 109.694 64.9341C109.549 65.0638 109.427 65.2371 109.247 65.3106C108.632 65.5599 108.411 65.0147 108.383 64.9449C108.247 64.6101 108.281 64.5973 108.356 64.2429C108.393 64.0618 108.587 63.1378 108.693 61.9532C108.704 61.8362 108.764 61.1829 108.723 60.5841C108.699 60.2158 108.751 60.1059 108.61 59.5663H108.609C108.587 59.4726 108.566 59.3728 108.517 59.3072C108.513 59.3023 108.509 59.2974 108.505 59.2929C108.516 59.2832 108.526 59.2746 108.534 59.2667Z" fill="#C9F299"/>
</svg>
