<?xml version="1.0" encoding="UTF-8" standalone="no"?><!DOCTYPE svg PUBLIC "-//W3C//DTD SVG 1.1//EN" "http://www.w3.org/Graphics/SVG/1.1/DTD/svg11.dtd"><svg width="100%" height="100%" viewBox="0 0 1071 1071" version="1.1" xmlns="http://www.w3.org/2000/svg" xmlns:xlink="http://www.w3.org/1999/xlink" xml:space="preserve" xmlns:serif="http://www.serif.com/" style="fill-rule:evenodd;clip-rule:evenodd;"><g><g><path d="M422.361,601.117l86.727,-39.422l63.074,94.614l-84.1,123.517l19.756,130.216c-47.359,41.751 -94.718,53.679 -142.077,0l-3.824,-122.333l-39.42,-107.748l39.42,36.791l31.537,-28.909l115.634,-39.421c-10.513,-3.502 -28.385,-14.193 -15.77,-28.909c12.615,-14.717 -12.264,6.132 -26.278,18.395l-39.422,-10.508l-5.257,-26.283Z" style="fill:#eebd93;fill-rule:nonzero;"/><path d="M774.781,569.573c2.884,-0.333 5.496,1.733 5.79,4.622c7.305,72.458 -8.372,145.428 -44.892,208.542c-37.391,64.629 -94.644,115.466 -163.242,144.961c-68.597,29.491 -144.877,36.063 -217.508,18.738c-72.63,-17.325 -137.732,-57.622 -185.631,-114.902c-47.898,-57.28 -76.037,-128.485 -80.233,-203.037c-4.196,-74.551 15.774,-148.467 56.942,-210.759c41.168,-62.294 101.337,-109.642 171.565,-135.007c68.578,-24.77 143.176,-27.287 213.195,-7.27c2.791,0.798 4.364,3.736 3.524,6.514l-8.132,26.887c-0.84,2.778 -3.772,4.345 -6.563,3.552c-62.065,-17.616 -128.147,-15.327 -188.911,6.621c-62.414,22.543 -115.887,64.623 -152.475,119.987c-36.588,55.36 -54.336,121.051 -50.606,187.307c3.729,66.256 28.736,129.538 71.305,180.442c42.569,50.908 100.427,86.722 164.976,102.118c64.551,15.397 132.344,9.558 193.307,-16.653c60.964,-26.212 111.845,-71.393 145.077,-128.833c32.357,-55.92 46.305,-120.549 39.955,-184.756c-0.289,-2.888 1.773,-5.497 4.657,-5.83l27.9,-3.244Z" style="fill:#1b4d79;fill-rule:nonzero;"/><path d="M810.861,562.228c5.732,-0.711 10.985,3.333 11.576,9.083c7.984,77.63 -8.878,155.87 -48.429,223.934c-41.315,71.099 -105.158,127.29 -181.997,160.171c-76.84,32.881 -162.549,40.693 -244.331,22.271c-81.78,-18.423 -155.238,-62.097 -209.404,-124.491c-54.166,-62.399 -86.131,-140.167 -91.12,-221.699c-4.99,-81.532 17.264,-162.442 63.436,-230.653c46.173,-68.209 113.786,-120.054 192.741,-147.791c75.598,-26.556 157.708,-29.646 235.046,-8.99c5.669,1.515 8.842,7.48 7.087,13.081l-6.323,20.217c-1.711,5.481 -7.505,8.555 -13.059,7.087c-68.486,-18.113 -141.141,-15.294 -208.053,8.212c-70.17,24.65 -130.26,70.726 -171.295,131.347c-41.035,60.617 -60.813,132.529 -56.378,204.988c4.434,72.459 32.842,141.576 80.981,197.029c48.138,55.454 113.424,94.267 186.104,110.637c72.681,16.374 148.854,9.433 217.145,-19.791c68.291,-29.225 125.028,-79.159 161.744,-142.345c34.93,-60.114 49.949,-129.152 43.172,-197.722c-0.573,-5.803 3.502,-11.104 9.292,-11.824l22.065,-2.751Z" style="fill:#2b79be;fill-rule:nonzero;"/><path d="M232.62,531.733l-7.116,31.98l-0.829,3.728l3.289,1.937l28.213,16.649l-32.611,3.115l-3.801,0.364l-0.83,3.728l-7.115,31.975l-13.039,-30.051l-1.52,-3.505l-3.801,0.364l-32.611,3.115l24.552,-21.688l2.862,-2.529l-1.52,-3.501l-13.039,-30.051l28.213,16.645l3.289,1.942l2.862,-2.528l24.552,-21.689Z" style="fill:#2b79be;fill-rule:nonzero;stroke:#1b4d79;stroke-width:10.51px;"/><path d="M687.123,662.55l-21.075,25.084l-2.457,2.924l2.024,3.237l17.341,27.793l-30.366,-12.291l-3.54,-1.432l-2.457,2.924l-21.072,25.08l2.306,-32.677l0.269,-3.811l-3.54,-1.432l-30.366,-12.291l31.791,-7.905l3.707,-0.922l0.267,-3.807l2.306,-32.677l17.343,27.789l2.021,3.241l3.706,-0.921l31.792,-7.906Z" style="fill:#2b79be;fill-rule:nonzero;stroke:#1b4d79;stroke-width:10.51px;"/><path d="M481.028,425.412l-28.58,-18.206l-3.191,-2.032l-2.941,2.379l-26.732,21.627l9.256,-32.563l1.071,-3.766l-3.302,-2.104l-28.29,-18.019l34.338,-2.291l3.692,-0.247l1.013,-3.561l9.407,-33.104l11.722,31.429l1.364,3.668l3.91,-0.26l33.774,-2.253l-26.731,21.628l-2.937,2.378l1.319,3.544l11.838,31.753Z" style="fill:#2b79be;fill-rule:nonzero;stroke:#1b4d79;stroke-width:10.51px;"/><path d="M417.105,540.673l-44.675,26.279l28.908,44.678l15.767,10.513l-2.626,-23.652l28.909,-15.77l-26.283,-42.048Z" style="fill:#eebd93;fill-rule:nonzero;"/><path d="M451.27,580.095l44.679,-18.4l-18.396,-26.278l-49.935,0l23.652,44.678Z" style="fill:#eebd93;fill-rule:nonzero;"/><path d="M427.618,637.908l15.77,26.283l26.278,-13.139l-42.048,-13.144Z" style="fill:#eebd93;fill-rule:nonzero;"/><path d="M333.009,609.004l39.421,-26.283l55.188,81.47l-34.164,15.77l-60.445,-70.957Z" style="fill:#eebd93;fill-rule:nonzero;"/><path d="M327.753,614.256l-28.908,36.796l63.072,55.187l23.653,-18.396l-57.817,-73.587Z" style="fill:#eebd93;fill-rule:nonzero;"/><path d="M364.546,910.042l-2.629,-122.333l-39.42,-107.748l39.42,36.791l31.537,-28.909l115.634,-39.421c-10.513,-3.502 -28.385,-14.193 -15.77,-28.909c12.615,-14.717 -12.264,6.132 -26.278,18.395l-39.422,-10.508l-5.257,-26.283l86.727,-39.422l63.074,94.614l-84.1,123.517l18.268,127.84" style="fill:none;fill-rule:nonzero;stroke:#100b00;stroke-width:5.26px;"/><path d="M417.105,540.673l-44.675,26.279l28.908,44.678l15.767,10.513l-2.626,-23.652l28.909,-15.77l-26.283,-42.048Z" style="fill:none;fill-rule:nonzero;stroke:#2a3141;stroke-width:5.26px;"/><path d="M451.27,580.095l44.679,-18.4l-18.396,-26.278l-49.935,0l23.652,44.678Z" style="fill:none;fill-rule:nonzero;stroke:#2a3141;stroke-width:5.26px;"/><path d="M427.618,637.908l15.77,26.283l26.278,-13.139l-42.048,-13.144Z" style="fill:none;fill-rule:nonzero;stroke:#2a3141;stroke-width:5.26px;"/><path d="M333.009,609.004l39.421,-26.283l55.188,81.47l-34.164,15.77l-60.445,-70.957Z" style="fill:none;fill-rule:nonzero;stroke:#2a3141;stroke-width:5.26px;"/><path d="M327.753,614.256l-28.908,36.796l63.072,55.187l23.653,-18.396l-57.817,-73.587Z" style="fill:none;fill-rule:nonzero;stroke:#2a3141;stroke-width:5.26px;"/><path d="M306.729,664.191l-55.189,44.679c-0.877,16.64 4.73,48.881 34.164,44.674c29.434,-4.204 43.801,-19.271 47.305,-26.279l-26.28,-63.074Z" style="fill:url(#_Linear1);fill-rule:nonzero;"/><path d="M522.227,509.139l-28.909,31.534l18.396,7.883l21.026,28.909c8.762,-22.777 33.112,-80.417 60.444,-128.774c-26.963,-2.995 51.09,-121.248 109.09,-222.399c4.572,-8.661 9.277,-17.036 14.103,-25.02c36.049,-65.281 58.364,-117.879 29.233,-117.879c-60.968,0 -174.324,283.829 -223.383,425.746Z" style="fill:url(#_Linear2);fill-rule:nonzero;"/><path d="M627.349,425.038l-34.165,44.679l63.074,-21.026c8.762,-10.513 28.908,-39.422 39.422,-70.957c-16.819,-6.307 40.297,-100.741 70.956,-147.17c23.652,-28.909 64.123,-90.931 36.792,-107.75c-31.113,3.275 -60.844,35.088 -87.051,78.458c-4.51,8.167 -9.233,16.533 -14.103,25.02c-34.366,65.103 -61.235,146.348 -74.925,198.746Z" style="fill:url(#_Linear3);fill-rule:nonzero;"/><path d="M585.301,488.112l-39.422,81.47l55.192,-42.048c144.539,-21.901 431.525,-76.742 423.114,-120.891c-14.717,-27.332 -25.403,-30.661 -28.909,-28.909l-320.623,78.844l-89.352,31.534Z" style="fill:url(#_Linear4);fill-rule:nonzero;"/><path d="M703.562,388.247l-28.909,55.187c103.372,-25.403 312.212,-85.147 320.623,-120.888c-29.433,-27.332 -57.818,-25.405 -68.331,-21.025l-223.383,86.726Z" style="fill:url(#_Linear5);fill-rule:nonzero;"/><path d="M711.449,372.478c35.916,-82.345 116.684,-245.985 152.427,-241.78c35.738,4.205 -49.935,147.17 -97.24,218.128l-55.187,23.652Z" style="fill:url(#_Linear6);fill-rule:nonzero;"/><path d="M827.08,277.868l99.865,-105.121l26.283,15.768l-73.587,70.957l-52.561,18.396Z" style="fill:url(#_Linear7);fill-rule:nonzero;"/><path d="M903.293,251.588l31.539,-36.792l34.166,-18.397l10.508,18.397l-76.213,36.792Z" style="fill:url(#_Linear8);fill-rule:nonzero;"/><path d="M811.315,296.265l-28.909,44.677l226.009,-73.586l-13.139,-36.792l-183.961,65.701Z" style="fill:url(#_Linear9);fill-rule:nonzero;"/><path d="M702.274,226.292c-24.21,42.222 -51.915,87.424 -74.016,125.979c-30.848,53.811 -50.782,94.675 -35.074,96.42c-27.332,48.357 -51.682,105.997 -60.444,128.774l-21.026,-28.909l-18.396,-7.883l28.909,-31.534c49.059,-141.917 162.415,-425.746 223.383,-425.746c29.131,0 6.816,52.598 -29.233,117.879m-14.103,25.02c4.572,-8.661 9.277,-17.036 14.103,-25.02m-14.103,25.02c-34.366,65.103 -61.235,146.348 -74.925,198.746l-34.165,44.679l63.074,-21.026c8.762,-10.513 28.908,-39.422 39.422,-70.957c-16.819,-6.307 40.297,-100.741 70.956,-147.17c23.652,-28.909 64.123,-90.931 36.792,-107.75c-31.113,3.275 -60.844,35.088 -87.051,78.458m-14.103,25.02c4.87,-8.487 9.593,-16.853 14.103,-25.02m-409.648,462.919l-55.189,44.679c-0.877,16.64 4.73,48.881 34.164,44.674c29.434,-4.204 43.801,-19.271 47.305,-26.279l-26.28,-63.074Zm278.572,-176.079l-39.422,81.47l55.192,-42.048c144.539,-21.901 431.525,-76.742 423.114,-120.891c-14.717,-27.332 -25.403,-30.661 -28.909,-28.909l-320.623,78.844l-89.352,31.534Zm118.261,-99.865l-28.909,55.187c103.372,-25.403 312.212,-85.147 320.623,-120.888c-29.433,-27.332 -57.818,-25.405 -68.331,-21.025l-223.383,86.726Zm7.887,-15.769c35.916,-82.345 116.684,-245.985 152.427,-241.78c35.738,4.205 -49.935,147.17 -97.24,218.128l-55.187,23.652Zm99.866,-76.213l-28.909,44.677l226.009,-73.586l-13.139,-36.792l-183.961,65.701Zm15.765,-18.397l99.865,-105.121l26.283,15.768l-73.587,70.957l-52.561,18.396Zm76.213,-26.28l31.539,-36.792l34.166,-18.397l10.508,18.397l-76.213,36.792Z" style="fill:none;fill-rule:nonzero;stroke:#2a3141;stroke-width:5.26px;"/></g></g><defs><linearGradient id="_Linear1" x1="0" y1="0" x2="1" y2="0" gradientUnits="userSpaceOnUse" gradientTransform="matrix(646.497,-612.336,612.336,646.497,251.54,756.174)"><stop offset="0" style="stop-color:#d3bf80;stop-opacity:1"/><stop offset="0.42" style="stop-color:#a0bb48;stop-opacity:1"/><stop offset="1" style="stop-color:#547859;stop-opacity:1"/></linearGradient><linearGradient id="_Linear2" x1="0" y1="0" x2="1" y2="0" gradientUnits="userSpaceOnUse" gradientTransform="matrix(646.497,-612.336,612.336,646.497,251.54,756.174)"><stop offset="0" style="stop-color:#d3bf80;stop-opacity:1"/><stop offset="0.42" style="stop-color:#a0bb48;stop-opacity:1"/><stop offset="1" style="stop-color:#547859;stop-opacity:1"/></linearGradient><linearGradient id="_Linear3" x1="0" y1="0" x2="1" y2="0" gradientUnits="userSpaceOnUse" gradientTransform="matrix(646.497,-612.336,612.336,646.497,251.54,756.174)"><stop offset="0" style="stop-color:#d3bf80;stop-opacity:1"/><stop offset="0.42" style="stop-color:#a0bb48;stop-opacity:1"/><stop offset="1" style="stop-color:#547859;stop-opacity:1"/></linearGradient><linearGradient id="_Linear4" x1="0" y1="0" x2="1" y2="0" gradientUnits="userSpaceOnUse" gradientTransform="matrix(646.497,-612.336,612.336,646.497,251.54,756.174)"><stop offset="0" style="stop-color:#d3bf80;stop-opacity:1"/><stop offset="0.42" style="stop-color:#a0bb48;stop-opacity:1"/><stop offset="1" style="stop-color:#547859;stop-opacity:1"/></linearGradient><linearGradient id="_Linear5" x1="0" y1="0" x2="1" y2="0" gradientUnits="userSpaceOnUse" gradientTransform="matrix(646.497,-612.336,612.336,646.497,251.54,756.174)"><stop offset="0" style="stop-color:#d3bf80;stop-opacity:1"/><stop offset="0.42" style="stop-color:#a0bb48;stop-opacity:1"/><stop offset="1" style="stop-color:#547859;stop-opacity:1"/></linearGradient><linearGradient id="_Linear6" x1="0" y1="0" x2="1" y2="0" gradientUnits="userSpaceOnUse" gradientTransform="matrix(646.497,-612.336,612.336,646.497,251.54,756.174)"><stop offset="0" style="stop-color:#d3bf80;stop-opacity:1"/><stop offset="0.42" style="stop-color:#a0bb48;stop-opacity:1"/><stop offset="1" style="stop-color:#547859;stop-opacity:1"/></linearGradient><linearGradient id="_Linear7" x1="0" y1="0" x2="1" y2="0" gradientUnits="userSpaceOnUse" gradientTransform="matrix(646.497,-612.336,612.336,646.497,251.54,756.174)"><stop offset="0" style="stop-color:#d3bf80;stop-opacity:1"/><stop offset="0.42" style="stop-color:#a0bb48;stop-opacity:1"/><stop offset="1" style="stop-color:#547859;stop-opacity:1"/></linearGradient><linearGradient id="_Linear8" x1="0" y1="0" x2="1" y2="0" gradientUnits="userSpaceOnUse" gradientTransform="matrix(646.497,-612.336,612.336,646.497,251.54,756.174)"><stop offset="0" style="stop-color:#d3bf80;stop-opacity:1"/><stop offset="0.42" style="stop-color:#a0bb48;stop-opacity:1"/><stop offset="1" style="stop-color:#547859;stop-opacity:1"/></linearGradient><linearGradient id="_Linear9" x1="0" y1="0" x2="1" y2="0" gradientUnits="userSpaceOnUse" gradientTransform="matrix(646.497,-612.336,612.336,646.497,251.54,756.174)"><stop offset="0" style="stop-color:#d3bf80;stop-opacity:1"/><stop offset="0.42" style="stop-color:#a0bb48;stop-opacity:1"/><stop offset="1" style="stop-color:#547859;stop-opacity:1"/></linearGradient></defs></svg>