<?xml version="1.0" encoding="UTF-8" standalone="no"?><!DOCTYPE svg PUBLIC "-//W3C//DTD SVG 1.1//EN" "http://www.w3.org/Graphics/SVG/1.1/DTD/svg11.dtd"><svg width="100%" height="100%" viewBox="0 0 1943 1833" version="1.1" xmlns="http://www.w3.org/2000/svg" xmlns:xlink="http://www.w3.org/1999/xlink" xml:space="preserve" xmlns:serif="http://www.serif.com/" style="fill-rule:evenodd;clip-rule:evenodd;"><g><path d="M926.67,360.077c-155.358,-27.388 -316.309,-8.056 -460.687,55.614c-150.787,66.5 -275.383,177.776 -355.204,317.175c-79.818,139.394 -110.595,299.428 -87.757,456.225c22.837,156.791 98.065,301.957 214.489,413.818c116.427,111.861 267.81,184.406 431.548,206.75c163.745,22.348 331.011,-6.707 476.815,-82.812c145.799,-76.106 262.281,-195.169 332.093,-339.356c66.824,-138.029 87.437,-292.021 59.339,-440.786l7.709,-1.431l-7.709,1.431c-1.269,-6.747 -8.038,-11.196 -15.15,-9.725l-43.368,8.994l-0.003,0.004c-7.051,1.458 -11.765,8.386 -10.419,15.679c24.831,134.475 5.938,273.487 -54.412,398.145c-63.435,131.018 -169.242,239.13 -301.586,308.215c-132.35,69.082 -284.148,95.441 -432.747,75.162c-148.594,-20.272 -286.049,-86.118 -391.815,-187.732c-105.766,-101.621 -174.161,-233.558 -194.923,-376.11c-20.763,-142.556 7.224,-288.042 79.756,-414.698c72.525,-126.66 185.691,-227.694 322.55,-288.048c130.509,-57.557 275.917,-75.189 416.377,-50.776c7.288,1.266 14.199,-3.254 15.756,-10.067l0.003,-0.008l9.285,-40.541l0.005,-0.004c1.624,-7.079 -2.962,-13.887 -9.945,-15.118l1.4,-7.578l-1.4,7.578Zm-467.067,41.533c147.266,-64.942 311.414,-84.657 469.871,-56.722c16.023,2.825 25.963,18.284 22.433,33.667m0.001,0.005l-9.287,40.533c0,0.004 0,0.004 -0.004,0.004c-3.466,15.166 -18.573,24.563 -33.815,21.915c-137.378,-23.878 -279.6,-6.63 -407.233,49.656c-133.842,59.026 -244.429,157.797 -315.277,281.524c-70.844,123.71 -98.157,265.757 -77.887,404.913c20.265,139.157 87.036,268.002 190.37,367.282c103.335,99.287 237.704,163.678 383.04,183.506c145.344,19.837 293.814,-5.949 423.233,-73.507c129.415,-67.555 232.8,-173.225 294.756,-301.194c58.939,-121.743 77.378,-257.466 53.134,-388.737l7.713,-1.401l-7.713,1.401c-2.807,-15.198 6.949,-30.326 22.658,-33.58l43.368,-8.998l0.007,-0.001c15.421,-3.188 30.821,6.435 33.751,21.971c3.064,16.223 5.561,32.508 7.494,48.827c16.178,136.559 -7.139,275.513 -68.1,401.428c-71.286,147.235 -190.19,268.739 -338.923,346.372c-148.734,77.633 -319.328,107.262 -486.328,84.475c-166.995,-22.791 -321.469,-96.792 -440.32,-210.979l5.483,-5.532l-5.483,5.532c-118.859,-114.203 -195.711,-262.459 -219.047,-422.652c-23.331,-160.195 8.123,-323.665 89.625,-466.005l6.83,3.778l-6.83,-3.778c81.502,-142.332 208.672,-255.872 362.48,-323.703" style="fill:#fff;"/><path d="M397.752,861.933l-15.167,103.65l-0.42,2.868l2.602,1.288l93.881,46.453l-103.254,17.605l-2.862,0.487l-15.587,106.514l-49.998,-95.335l-2.858,0.487l-103.262,17.606l73.192,-74.936l2.027,-2.076l-49.999,-95.326l96.487,47.727l2.026,-2.076l73.192,-74.936Zm-24.613,49.747l-36.305,37.174l-10.738,10.994l-13.771,-6.817l-46.574,-23.036l24.136,46.013l7.135,13.602l-10.734,10.994l-36.31,37.175l51.221,-8.732l15.151,-2.588l7.134,13.614l24.132,46.013l7.524,-51.41l2.223,-15.199l66.372,-11.321l-60.345,-29.849l2.222,-15.209l7.527,-51.418Z" style="fill:#fff;"/><path d="M860.086,639.701l-84.016,62.567l-2.326,1.731l0.929,2.75l33.537,99.231l-85.46,-60.562l-2.368,-1.68l-86.339,64.295l32.058,-102.766l-2.365,-1.676l-85.466,-60.568l104.742,-1.234l2.901,-0.034l32.051,-102.76l34.479,101.974l2.9,-0.035l104.743,-1.233Zm-52.581,17.773l-51.957,0.614l-15.367,0.181l-4.917,-14.558l-16.644,-49.222l-15.47,49.602l-4.573,14.664l-15.364,0.184l-51.962,0.611l42.394,30.045l12.543,8.883l-4.582,14.672l-15.472,49.6l41.672,-31.032l12.32,-9.176l54.937,38.927l-21.564,-63.777l12.325,-9.183l41.681,-31.035Z" style="fill:#fff;"/><path d="M1274.45,1024.06l7.695,80.677l0.855,9.012l8.821,2.045l80.103,18.622l-75.032,30.425l-8.682,3.522l0.898,9.327l7.609,79.856l-54.824,-61.403l-5.901,-6.6l-8.202,3.322l-76.279,30.94l42.053,-68.32l4.904,-7.973l-6.232,-6.989l-53.932,-60.398l80.114,18.614l8.811,2.054l4.74,-7.715l42.481,-69.018Z" style="fill:none;fill-rule:nonzero;stroke:#fff;stroke-width:17.16px;"/><path d="M643.243,1733.7l-24.002,-187.545l-67.899,-150.273l41.346,-54.051l-72.684,-54.716l93.947,70.723l66.312,-64.911l264.57,-110.669c-8.645,-4.049 -17.26,-9.41 -23.935,-16.181c-6.376,-6.477 -11.426,-14.712 -12.372,-24.686c-0.229,-2.404 -44.402,49.249 -80.124,66.31c-38.919,18.587 -112.543,-17.735 -105.83,-29.798c-25.843,-14.501 34.923,-151.396 212.914,-203.457c0,-0 142.368,132.809 148.27,210.372c5.902,77.563 -163.072,256.204 -163.072,256.204l65.418,269.432m-50.86,-599.677c-0,-0 -0.037,0.019 -0.103,0.055c0.074,-0.045 0.108,-0.06 0.103,-0.055Zm35.646,600.8l-68.38,-273.385c-0,0 166.087,-176.448 160.615,-251.955c-5.471,-75.507 -132.206,-189.746 -132.206,-189.746c-111.901,43.776 -200.092,121.673 -196.583,168.619c0.85,11.382 60.112,40.575 92.357,30.405c27.334,-8.622 71.889,-75.993 85.525,-88.147c3.655,-3.258 10.389,-15.815 18.452,-8.813c8.062,7.002 5.294,17.255 1.843,21.938c-5.964,8.097 -7.37,14.44 -6.91,19.277c0.466,4.919 2.992,9.677 7.518,14.271c9.315,9.459 25.12,16.153 37.295,19.236l24.672,6.242l-308.127,117.792l-73.008,60.527l-11.014,-8.292l-33.143,51.291l66.216,140.774l26.574,190.662" style="fill:#fff;"/><path d="M783.576,1061.38l-74.355,-107.743l-102.441,77.808l72.414,97.684l65.565,76.481" style="fill:none;fill-rule:nonzero;stroke:#fff;stroke-width:17.16px;"/><path d="M910.295,990.249l-51.237,-68.529l-136.177,43.296" style="fill:none;fill-rule:nonzero;stroke:#fff;stroke-width:17.16px;"/><path d="M527.208,1122.69l89.41,-69.633l153.502,202.643l-93.847,34.427l-149.065,-167.437Z" style="fill:none;fill-rule:nonzero;stroke:#fff;stroke-width:17.16px;"/><path d="M527.981,1133.17l-74.864,95.835l160.164,120.54l53.184,-48.041l-138.484,-168.334Z" style="fill:none;fill-rule:nonzero;stroke:#fff;stroke-width:17.16px;"/><path d="M879.352,943.543l63.704,-74.146c2.128,-55.165 250.869,-830.512 374.727,-839.65c59.177,-4.366 -152.313,434.561 -152.313,434.561c0,-0 -190.602,498.896 -205.083,545.227m457.645,-943.901c-21.883,-3.769 -81.559,91.596 -138.213,210.081c-105.05,219.696 -222.352,536.545 -223.055,543.243c34.897,-11.973 81.186,-31.453 132.762,-53.816c-24.361,-77.598 304.995,-686.335 228.506,-699.508Zm-926.507,1199.12c0,-0 -102.687,76.801 -99.232,115.421c3.066,34.274 164.31,21.896 164.31,21.896m490.588,-554.076c-2.767,3.449 -56.223,145.075 -42.096,135.257l67.04,-66.956c290.444,-64.952 875.003,-257.596 839.474,-311.929c-33.882,-51.815 -170.687,-2.167 -177.556,1.821l-528.103,181.961l-158.759,59.846Zm215.015,-204.917c-37.6,14.694 -40.104,110.24 -40.104,110.24c0,0 696.554,-235.191 641.127,-278.304c-63.778,-49.609 -93.696,-62.382 -145.255,-41.325l-455.768,209.389Zm1.246,-36.764c16.208,-44.704 203.663,-507.867 262.67,-497.582c54.361,9.476 -103.722,316.86 -189.474,464.195l-73.196,33.387Zm174.857,-140.503l-59.284,90.035c157.782,-78.311 320.148,-150.824 499.474,-201.891l-32.057,-70.751l-408.133,182.607Zm0.861,-29.748l145.046,-262.531l83.303,59.626l-228.349,202.905Zm56.067,-20.453l223.707,-177.331l70.56,22.066l-294.267,155.265Z" style="fill:none;fill-rule:nonzero;stroke:#fff;stroke-opacity:0.9;stroke-width:14.41px;"/></g></svg>