<?xml version="1.0" encoding="UTF-8" standalone="no"?><!DOCTYPE svg PUBLIC "-//W3C//DTD SVG 1.1//EN" "http://www.w3.org/Graphics/SVG/1.1/DTD/svg11.dtd"><svg width="100%" height="100%" viewBox="0 0 480 177" version="1.1" xmlns="http://www.w3.org/2000/svg" xmlns:xlink="http://www.w3.org/1999/xlink" xml:space="preserve" xmlns:serif="http://www.serif.com/" style="fill-rule:evenodd;clip-rule:evenodd;stroke-linejoin:round;stroke-miterlimit:2;"><g><g><g><path d="M69.605,99.064l14.292,-6.497l10.395,15.592l-13.86,20.356l3.256,21.459c-7.805,6.881 -15.609,8.847 -23.414,0l-0.63,-20.16l-6.497,-17.757l6.497,6.063l5.197,-4.764l19.056,-6.497c-1.732,-0.577 -4.678,-2.339 -2.599,-4.764c2.079,-2.425 -2.021,1.011 -4.33,3.032l-6.497,-1.732l-0.866,-4.331Z" style="fill:#fffcf4;fill-rule:nonzero;"/><path d="M127.683,93.865c0.476,-0.055 0.906,0.286 0.955,0.762c1.203,11.941 -1.38,23.966 -7.399,34.367c-6.162,10.651 -15.597,19.029 -26.902,23.89c-11.305,4.86 -23.875,5.943 -35.845,3.088c-11.969,-2.855 -22.698,-9.496 -30.592,-18.936c-7.893,-9.44 -12.531,-21.174 -13.222,-33.46c-0.692,-12.286 2.599,-24.467 9.384,-34.733c6.784,-10.266 16.7,-18.069 28.274,-22.249c11.301,-4.082 23.595,-4.497 35.134,-1.198c0.46,0.131 0.719,0.615 0.581,1.073l-1.34,4.431c-0.139,0.458 -0.622,0.716 -1.082,0.586c-10.228,-2.904 -21.118,-2.526 -31.132,1.091c-10.286,3.715 -19.098,10.65 -25.128,19.773c-6.03,9.124 -8.955,19.95 -8.34,30.869c0.615,10.918 4.736,21.347 11.751,29.736c7.015,8.39 16.55,14.292 27.188,16.829c10.638,2.538 21.81,1.575 31.857,-2.744c10.047,-4.32 18.432,-11.766 23.908,-21.232c5.333,-9.215 7.631,-19.866 6.585,-30.447c-0.048,-0.476 0.292,-0.906 0.767,-0.961l4.598,-0.535Z" style="fill:#fffcf4;fill-rule:nonzero;"/><path d="M133.629,92.655c0.945,-0.117 1.811,0.549 1.908,1.497c1.316,12.793 -1.463,25.687 -7.981,36.904c-6.809,11.717 -17.33,20.977 -29.993,26.396c-12.663,5.419 -26.788,6.706 -40.266,3.67c-13.477,-3.036 -25.583,-10.233 -34.509,-20.516c-8.927,-10.283 -14.195,-23.099 -15.017,-36.536c-0.822,-13.436 2.845,-26.77 10.454,-38.011c7.61,-11.241 18.752,-19.785 31.764,-24.356c12.459,-4.376 25.99,-4.886 38.735,-1.482c0.935,0.25 1.458,1.233 1.168,2.156l-1.042,3.332c-0.282,0.903 -1.236,1.41 -2.152,1.168c-11.286,-2.985 -23.26,-2.521 -34.287,1.353c-11.564,4.062 -21.466,11.656 -28.229,21.646c-6.763,9.99 -10.022,21.841 -9.291,33.782c0.731,11.941 5.412,23.332 13.346,32.47c7.933,9.139 18.692,15.535 30.669,18.233c11.978,2.698 24.531,1.555 35.786,-3.262c11.254,-4.816 20.604,-13.045 26.655,-23.458c5.756,-9.907 8.232,-21.284 7.115,-32.584c-0.095,-0.957 0.577,-1.83 1.531,-1.949l3.636,-0.453Z" style="fill:#fffcf4;fill-rule:nonzero;"/><path d="M38.336,87.629l-1.173,5.27l-0.137,0.615l0.542,0.319l4.65,2.744l-5.374,0.513l-0.627,0.06l-0.137,0.615l-1.172,5.269l-2.149,-4.952l-0.251,-0.578l-0.626,0.06l-5.374,0.513l4.046,-3.574l0.472,-0.417l-0.251,-0.577l-2.149,-4.952l4.65,2.743l0.542,0.32l0.471,-0.416l4.047,-3.575Z" style="fill:#fffcf4;fill-rule:nonzero;"/><path d="M113.237,109.188l-3.473,4.134l-0.405,0.481l0.334,0.534l2.858,4.58l-5.005,-2.025l-0.583,-0.236l-0.405,0.481l-3.473,4.134l0.38,-5.385l0.045,-0.629l-0.584,-0.236l-5.004,-2.025l5.239,-1.303l0.611,-0.152l0.044,-0.627l0.38,-5.385l2.858,4.579l0.333,0.534l0.611,-0.151l5.239,-1.303Z" style="fill:#fffcf4;fill-rule:nonzero;"/><path d="M79.273,70.108l-4.71,-3.001l-0.526,-0.335l-0.484,0.392l-4.406,3.565l1.526,-5.367l0.176,-0.62l-0.544,-0.347l-4.662,-2.97l5.659,-0.377l0.608,-0.041l0.167,-0.587l1.55,-5.455l1.932,5.179l0.225,0.605l0.644,-0.043l5.566,-0.372l-4.405,3.565l-0.484,0.392l0.217,0.584l1.951,5.233Z" style="fill:#fffcf4;fill-rule:nonzero;"/><path d="M68.739,89.103l-7.363,4.33l4.764,7.363l2.599,1.733l-0.433,-3.898l4.764,-2.599l-4.331,-6.929Z" style="fill:#fffcf4;fill-rule:nonzero;"/><path d="M74.369,95.599l7.363,-3.032l-3.032,-4.331l-8.229,0l3.898,7.363Z" style="fill:#fffcf4;fill-rule:nonzero;"/><path d="M70.471,105.127l2.599,4.331l4.331,-2.165l-6.93,-2.166Z" style="fill:#fffcf4;fill-rule:nonzero;"/><path d="M54.88,100.363l6.496,-4.331l9.095,13.426l-5.63,2.599l-9.961,-11.694Z" style="fill:#fffcf4;fill-rule:nonzero;"/><path d="M54.013,101.229l-4.764,6.064l10.395,9.095l3.898,-3.032l-9.529,-12.127Z" style="fill:#fffcf4;fill-rule:nonzero;"/><path d="M60.077,149.974l-0.433,-20.16l-6.497,-17.757l6.497,6.063l5.197,-4.764l19.056,-6.497c-1.732,-0.577 -4.678,-2.339 -2.599,-4.764c2.079,-2.425 -2.021,1.011 -4.33,3.032l-6.497,-1.732l-0.866,-4.331l14.292,-6.497l10.395,15.592l-13.86,20.356l3.011,21.068" style="fill:#fffcf4;fill-rule:nonzero;"/><path d="M68.739,89.103l-7.363,4.33l4.764,7.363l2.599,1.733l-0.433,-3.898l4.764,-2.599l-4.331,-6.929Z" style="fill:#fffcf4;fill-rule:nonzero;"/><path d="M74.369,95.599l7.363,-3.032l-3.032,-4.331l-8.229,0l3.898,7.363Z" style="fill:#fffcf4;fill-rule:nonzero;"/><path d="M70.471,105.127l2.599,4.331l4.331,-2.165l-6.93,-2.166Z" style="fill:#fffcf4;fill-rule:nonzero;"/><path d="M54.88,100.363l6.496,-4.331l9.095,13.426l-5.63,2.599l-9.961,-11.694Z" style="fill:#fffcf4;fill-rule:nonzero;"/><path d="M54.013,101.229l-4.764,6.064l10.395,9.095l3.898,-3.032l-9.529,-12.127Z" style="fill:#fffcf4;fill-rule:nonzero;"/><path d="M50.549,109.458l-9.095,7.363c-0.145,2.743 0.779,8.056 5.63,7.362c4.851,-0.692 7.218,-3.175 7.796,-4.33l-4.331,-10.395Z" style="fill:#fffcf4;fill-rule:nonzero;"/><path d="M86.063,83.906l-4.765,5.197l3.032,1.299l3.465,4.764c1.444,-3.754 5.457,-13.253 9.961,-21.222c-4.443,-0.494 8.42,-19.982 17.978,-36.651c0.754,-1.428 1.529,-2.808 2.324,-4.124c5.941,-10.758 9.619,-19.426 4.818,-19.426c-10.048,0 -28.728,46.775 -36.813,70.163Z" style="fill:#fffcf4;fill-rule:nonzero;"/><path d="M103.387,70.046l-5.631,7.363l10.395,-3.465c1.444,-1.733 4.764,-6.497 6.497,-11.694c-2.772,-1.039 6.64,-16.602 11.693,-24.253c3.898,-4.764 10.567,-14.986 6.063,-17.757c-5.127,0.539 -10.027,5.782 -14.346,12.929c-0.743,1.346 -1.521,2.725 -2.324,4.124c-5.663,10.729 -10.091,24.118 -12.347,32.753Z" style="fill:#fffcf4;fill-rule:nonzero;"/><path d="M96.457,80.44l-6.497,13.427l9.096,-6.93c23.82,-3.609 71.115,-12.647 69.729,-19.923c-2.425,-4.504 -4.186,-5.052 -4.764,-4.764l-52.839,12.994l-14.725,5.196Z" style="fill:#fffcf4;fill-rule:nonzero;"/><path d="M115.946,63.983l-4.764,9.095c17.036,-4.187 51.453,-14.033 52.839,-19.923c-4.851,-4.504 -9.529,-4.186 -11.261,-3.465l-36.814,14.293Z" style="fill:#fffcf4;fill-rule:nonzero;"/><path d="M117.246,61.384c5.919,-13.57 19.23,-40.538 25.12,-39.845c5.89,0.693 -8.229,24.253 -16.025,35.947l-9.095,3.898Z" style="fill:#fffcf4;fill-rule:nonzero;"/><path d="M136.302,45.792l16.458,-17.323l4.331,2.598l-12.127,11.694l-8.662,3.031Z" style="fill:#fffcf4;fill-rule:nonzero;"/><path d="M148.862,41.462l5.198,-6.064l5.63,-3.032l1.732,3.032l-12.56,6.064Z" style="fill:#fffcf4;fill-rule:nonzero;"/><path d="M133.704,48.824l-4.764,7.363l37.246,-12.127l-2.165,-6.063l-30.317,10.827Z" style="fill:#fffcf4;fill-rule:nonzero;"/><path d="M115.734,37.293c-3.99,6.958 -8.555,14.407 -12.198,20.761c-5.083,8.868 -8.368,15.602 -5.78,15.89c-4.504,7.969 -8.517,17.468 -9.961,21.222l-3.465,-4.764l-3.032,-1.299l4.765,-5.197c8.085,-23.388 26.765,-70.163 36.813,-70.163c4.801,0 1.123,8.668 -4.818,19.426m-2.324,4.124c0.754,-1.428 1.529,-2.808 2.324,-4.124m-2.324,4.124c-5.663,10.729 -10.091,24.118 -12.347,32.753l-5.631,7.363l10.395,-3.465c1.444,-1.733 4.764,-6.497 6.497,-11.694c-2.772,-1.039 6.64,-16.602 11.693,-24.253c3.898,-4.764 10.567,-14.986 6.063,-17.757c-5.127,0.539 -10.027,5.782 -14.346,12.929m-2.324,4.124c0.803,-1.399 1.581,-2.778 2.324,-4.124m-67.509,76.289l-9.095,7.363c-0.145,2.743 0.779,8.056 5.63,7.362c4.851,-0.692 7.218,-3.175 7.796,-4.33l-4.331,-10.395Zm45.908,-29.018l-6.497,13.427l9.096,-6.93c23.82,-3.609 71.115,-12.647 69.729,-19.923c-2.425,-4.504 -4.186,-5.052 -4.764,-4.764l-52.839,12.994l-14.725,5.196Zm19.489,-16.457l-4.764,9.095c17.036,-4.187 51.453,-14.033 52.839,-19.923c-4.851,-4.504 -9.529,-4.186 -11.261,-3.465l-36.814,14.293Zm1.3,-2.599c5.919,-13.57 19.23,-40.538 25.12,-39.845c5.89,0.693 -8.229,24.253 -16.025,35.947l-9.095,3.898Zm16.458,-12.56l-4.764,7.363l37.246,-12.127l-2.165,-6.063l-30.317,10.827Zm2.598,-3.032l16.458,-17.323l4.331,2.598l-12.127,11.694l-8.662,3.031Zm12.56,-4.33l5.198,-6.064l5.63,-3.032l1.732,3.032l-12.56,6.064Z" style="fill:#fffcf4;fill-rule:nonzero;"/></g></g><path d="M267.619,99.696c0.173,-1.231 0.084,-1.636 1.352,-1.694c9.225,-0.427 12.683,-17.17 13.223,-19.063c3.416,-11.962 10.654,0.825 10.657,0.856c0.299,2.669 -1.105,2.953 -1.283,3.443c-0.519,1.437 -4.114,11.367 -10.778,15.033c-8.03,4.418 -7.766,4.939 -8.466,5.313c0.287,1.603 -0.042,3.311 6.032,14.621c5.02,9.348 5.198,20.514 4.58,21.279c-2.275,2.818 0.87,7.302 1.845,8.943c-4.859,0.314 -5.871,-0.245 -6.327,-0.497c-2.764,-1.527 -6.248,-0.111 -5.551,-2.036c2.969,-8.204 -0.576,-8.043 -4.917,-22.774c-1.963,-6.661 -2.761,-8.695 -1.35,-12.025c2.316,-5.464 2.787,-5.678 0.983,-11.399Zm-0,0c-0.017,0.123 -0.037,0.254 -0.061,0.393l0.058,-0.401l0.003,0.008Zm152.571,-4.482c0.014,0.126 0.027,0.26 0.038,0.404l-0.042,-0.411l0.004,0.007Zm0,0c-0.135,-1.26 -0.299,-1.634 0.725,-2.043c7.446,-2.98 6.381,-19.942 6.397,-21.956c0.103,-12.722 8.897,-2.144 8.907,-2.114c0.844,2.544 -0.24,3.214 -0.275,3.745c-0.102,1.558 -0.808,12.33 -5.432,17.788c-5.573,6.577 -5.24,7.017 -5.728,7.579c0.595,1.498 0.71,3.271 8.22,12.718c6.207,7.809 8.864,18.751 8.53,19.676c-1.226,3.405 2.354,6.946 3.52,8.291c-3.903,1.657 -4.855,1.387 -5.285,1.265c-2.604,-0.736 -5.134,1.625 -4.997,-0.463c0.583,-8.9 -2.279,-7.758 -9.142,-21.053c-3.103,-6.013 -4.085,-8.27 -3.68,-11.94c0.665,-6.02 1.002,-6.362 -1.76,-11.493Zm-102.804,31.313c0.348,2.073 2.14,3.397 5.617,3.905c0.441,-0.05 0.94,-0.088 1.52,-0.111c0.485,-0.147 0.9,-0.226 1.319,-0.067l0.018,0.007c1.068,-0.062 2.046,-0.16 2.942,-0.279c0.749,-0.708 1.003,-1.771 1.778,-1.492c1.687,0.609 1.689,0.682 3.296,-0.235c0.998,-0.57 1.894,-0.895 2.627,-0.977c0.035,-0.136 0.073,-0.273 0.115,-0.413l-0.397,-11.931c-0.172,-1.103 -0.253,-2.253 -0.118,-3.541l-0.537,-16.098c-0.341,-1.597 -0.512,-3.204 -0.211,-4.939l0.039,-0.229l-0.24,-7.213c-0.698,-3.213 0.66,-4.63 0.431,-8.913c-0.022,-0.402 0.502,-1.226 1.378,-2.297c0.042,-0.243 0.09,-0.524 0.144,-0.849c0.411,-2.515 1.074,-1.857 3.012,-4.86c1.319,-2.045 1.827,-0.977 5.507,-4.86c1.534,-1.619 2.356,-0.794 3.743,-2.102c0.283,-0.267 3.77,-2.686 7.035,-3.379c0.746,-0.435 1.328,-0.709 1.769,-0.719c1.566,-0.038 7.033,5.493 5.764,5.396c-2.315,-0.177 -2.984,1.824 -2.8,3.286c0.409,3.247 -3.745,8.477 -5.582,8.56c-0.045,0.002 -0.098,0.016 -0.16,0.041l-0.051,0.23l-4.976,4.028c-1.829,1.628 -3.957,3.447 -6.1,4.937l-1.547,1.253l1.074,14.853c1.39,3.642 3.464,0.667 4.93,0.23c1.805,-0.538 1.623,-0.89 3.237,-1.914c0.458,-0.29 0.76,0.32 2.312,-1.452c0.073,-0.083 4.36,-4.127 5.087,-1.914c0.545,1.66 3.602,5.476 3.642,5.874c0.167,1.675 0.013,1.689 0.61,3.269c-1.933,1.979 -2.278,1.297 -4.367,3.001c-3.843,3.135 -5.517,2.621 -7.284,4.489c-0.508,0.537 -3.477,3.677 -7.006,4.736c-0.146,0.431 -0.276,0.902 -0.372,1.395l0.022,3.312l0.015,0.061c1.236,4.637 1.639,6.955 4.758,8.462l0.494,0.007c0.839,-0.19 1.684,-0.207 2.79,0.04l4.953,0.07c0.859,-1.126 1.831,-2.516 4.142,-0.981c1.05,0.697 2.009,0.984 2.878,1.081l1.428,0.02c2.314,-0.147 3.808,-0.846 4.516,4.062c1.329,-4.626 3.201,-11.005 5.272,-19.952c4.88,-21.091 6.725,-24.366 8.625,-40.879c1.191,-10.346 6.437,-11.125 8.175,-7.654c1.734,-1.497 3.782,-0.241 4.228,1.058l1.173,7.835c3.249,6.31 -1.818,10.28 -0.383,13.066c3.74,7.263 0.895,7.887 1.443,13.061c0.203,1.918 0.365,3.559 0.495,4.966c3.777,-0.909 7.411,-1.176 8.054,0.878c2.871,9.177 -0.096,11.641 -6.49,11.609l0.208,0.761l0.131,0.545c6.389,22.579 7.142,22.213 7.507,22.836c1.584,2.702 -2.864,6.768 -3.46,6.697c-4.612,-0.552 -4.475,0.111 -9.08,1.31c-1.02,0.266 -5.265,1.371 -4.191,-14.453c0.028,-0.422 0.055,-0.835 0.08,-1.24l-1.529,-14.087l-5.264,1.542l-1.46,7.39c-0.263,16.173 0.328,22.156 -11.135,18.36c-0.995,-0.329 -1.803,-0.658 -2.442,-1.032c-0.489,0.927 -1.189,1.276 -2.006,1.383c-0.84,0.11 -6.264,-1.406 -11.715,-2.354l-9.838,0.429c-0.537,0.577 -1.854,0.818 -4.32,0.617c-8.13,-0.663 -8.08,-0.05 -16.158,1.226c-8.674,1.37 -8.648,1.879 -11.819,1.515c-4.565,-0.525 -4.551,0.895 -8.85,0.216c-4.502,-0.711 -2.77,-12.09 -2.683,-12.408c0.477,-1.743 1.037,-2.567 1.549,-2.932c-0.208,-0.701 -0.407,-1.542 -0.629,-2.557c-0.107,-0.487 0.2,-2.193 1.089,-3.677c-0.718,-2.58 -1.043,-6.106 -0.546,-11.22c0.78,-8.015 -1.858,-8.223 0.363,-13.656c2.323,-5.685 -3.342,-5.472 -1.812,-11.587c0.283,-1.133 -0.699,-6.412 -1.216,-11.803c-0.252,-1.06 -0.463,-2.253 -0.61,-3.697c-0.202,-1.986 -0.099,-3.384 0.453,-4.492c0.388,-3.424 1.648,-5.561 4.634,-4.424c0.023,0.009 0.215,0.282 0.509,0.722c0.983,-0.458 2.371,-1.488 2.371,-1.488c-0,0 3.392,-1.239 3.423,-1.202l0.074,-0.039l0.074,0.227c1.227,1.646 2.731,5.704 2.738,5.782c0.116,1.213 0.192,2.326 0.238,3.339l1.667,5.108l-0.003,0.751l0.094,-0.18c1.666,3.977 0.947,6.841 -0.13,9.248l-0.042,10.473c1.377,2.187 0.659,5.784 -0.039,9.842l-0.049,12.222c0.045,0.135 0.091,0.269 0.14,0.403c0.916,2.516 1.347,3.257 -0.102,6.756Zm126.554,-47.391c-0.677,-3.29 0.69,-4.726 0.488,-9.107c-0.019,-0.411 0.51,-1.249 1.393,-2.335c0.043,-0.248 0.094,-0.535 0.149,-0.867c0.427,-2.567 1.086,-1.889 3.043,-4.942c1.332,-2.079 1.833,-0.983 5.538,-4.921c1.544,-1.641 2.36,-0.792 3.756,-2.117c0.285,-0.271 3.787,-2.713 7.056,-3.394c0.749,-0.439 1.333,-0.713 1.774,-0.72c1.566,-0.025 6.997,5.674 5.729,5.564c-2.313,-0.2 -2.995,1.839 -2.82,3.335c0.388,3.323 -3.799,8.633 -5.637,8.702c-0.044,0.002 -0.098,0.016 -0.16,0.041l-0.052,0.235l-5.002,4.074c-1.839,1.649 -3.979,3.49 -6.131,4.996l-1.555,1.267l0.979,15.187c1.383,4.772 3.61,1.404 5.159,0.933c1.805,-0.55 1.623,-0.91 3.237,-1.957c0.458,-0.297 0.76,0.327 2.312,-1.484c0.073,-0.085 4.36,-4.219 5.087,-1.957c0.545,1.697 3.602,5.598 3.641,6.005c0.168,1.712 0.014,1.726 0.611,3.341c-1.933,2.023 -2.278,1.326 -4.368,3.068c-3.842,3.204 -5.516,2.678 -7.283,4.588c-0.501,0.541 -3.396,3.67 -6.861,4.795c-0.423,1.369 -0.677,3.077 -0.265,4.657c1.138,4.361 1.569,6.716 4.061,8.264l0.56,0.013c0.84,-0.188 1.685,-0.197 2.789,0.064l4.952,0.114c0.866,-1.144 1.847,-2.557 4.149,-0.968c1.045,0.722 2.002,1.023 2.87,1.129l1.428,0.033c2.334,-0.132 3.839,-0.844 4.507,4.317c1.511,11.658 0.127,13.881 -2.154,14.166c-0.83,0.104 -6.112,-1.448 -11.482,-2.464l-9.909,0.396c-0.178,0.256 -0.324,0.428 -0.412,0.532c-1.574,1.867 -10.795,-9.081 -10.929,-8.788c0.134,-0.293 0.362,-6.931 0.937,-8.859l-0.322,-12.198c-0.164,-1.128 -0.237,-2.305 -0.095,-3.62l-0.434,-16.459c-0.331,-1.635 -0.492,-3.279 -0.18,-5.051l0.041,-0.233l-0.195,-7.375Zm-191.292,52.57l1.282,-15.496c-0.021,-3.414 0.138,-9.506 1.325,-16.013l1.505,-18.193c-0.524,-2.797 -1.053,-5.333 -0.486,-8.034c0.849,-4.042 1.428,-6.62 1.84,-8.329l0.265,-3.196l0.663,-0.176c0.096,-0.285 0.176,-0.51 0.262,-0.795l-0.065,0.743l0.203,-0.054c0.515,-1.071 1.998,-2.541 6.48,-2.818c1.118,-0.07 1.181,0.555 1.087,1.75l1.04,5.415l-0.32,2.175c0.509,2.935 -0.097,4.72 -0.94,6.378l-0.859,5.831c-0.373,5.564 -0.616,7.004 -1.496,14.959c-0.724,6.537 1.948,7.419 -1.334,14.616l-1.122,15.255c0.333,1.664 0.549,3.354 0.295,5.23c-0.074,0.551 -0.455,1.021 -0.797,1.592l-0.212,2.879c0.453,2.056 1.002,3.616 1.137,4.248c0.013,0.059 0.014,0.18 0.003,0.345c1.458,1.366 -1.504,9.339 -3.368,4.922c-0.591,-1.4 -1.182,-2.293 -1.764,-2.895c-1.536,-0.892 -2.724,-1.487 -3.034,-1.642c-3.922,-1.964 -2.83,-3.783 -1.59,-8.697Zm150.663,-70.188c0.026,-0.312 0.051,-0.558 0.067,-0.866l0.111,0.753l0.183,-0.117c0.246,-1.216 1.33,-3.126 5.584,-4.8c1.061,-0.417 1.268,0.179 1.457,1.385l2.271,5.008l0.201,2.242c1.178,2.732 1.013,4.679 0.589,6.575l0.539,6.012c0.944,5.596 1.047,7.09 2.063,15.2c0.835,6.664 3.616,6.699 2.14,14.812l2.494,15.375c0.711,1.535 1.315,3.131 1.51,5.059c0.057,0.566 -0.2,1.147 -0.395,1.817l0.471,2.901c0.918,1.884 1.812,3.248 2.09,3.828c0.026,0.055 0.056,0.174 0.084,0.339c1.725,0.891 0.739,9.668 -2.092,5.9c-0.897,-1.194 -1.676,-1.889 -2.378,-2.301c-1.689,-0.398 -2.973,-0.613 -3.308,-0.669c-4.239,-0.709 -3.613,-2.842 -3.57,-8.068l-2.396,-15.663c-0.821,-3.356 -2.094,-9.406 -2.476,-16.185l-2.812,-18.388c-1.161,-2.591 -2.265,-4.924 -2.351,-7.761c-0.13,-4.246 -0.176,-6.966 -0.179,-8.778l-0.494,-3.23l0.597,-0.38Zm-242.631,80.942c-0.636,-0.373 -0.868,-0.792 0.031,-1.176c0.402,-0.172 0.805,-0.448 1.208,-0.819c2.419,-3.127 2.074,-3.891 4.544,-8.08l0.021,-0.036c0.648,-1.691 1.28,-3.572 1.89,-5.604c-0,-0.786 -0.049,-1.524 0.236,-2.603c6.096,-23.003 5.639,-35.834 5.894,-37.738c0.126,-0.941 0.088,-0.989 1.24,-10.577c0.001,-1.108 -0.015,-2.189 -0.046,-3.237l3.945,-4.011c0,-0 8.616,1.699 10.675,4.328c0.211,0.27 0.396,0.605 0.559,0.988c1.041,1.133 1.981,3.643 1.258,9.637c-0.035,0.286 -0.089,0.734 -0.135,1.399c0.017,1.521 0.077,5.829 0.264,10.292c0.064,0.777 0.138,1.6 0.224,2.473c0.074,0.758 0.651,0.321 0.7,1.127c0.115,1.859 -0.101,3.953 -0.217,5.871c0.259,1.853 0.585,3.035 0.997,2.991c0.388,-0.041 0.984,-2.393 1.681,-6.064c-0.004,-0.358 0.042,-0.756 0.155,-1.223c0.1,-0.412 0.197,-0.821 0.291,-1.227c0.798,-4.545 1.69,-10.406 2.536,-16.303c0.462,-5.154 0.527,-8.693 0.971,-9.923c1.208,-3.352 0.228,-3.776 1.312,-6.714c0.717,-5.439 1.185,-9.172 1.185,-9.172l6.506,-4.177c-0,-0 0.039,0.063 0.111,0.18c0.401,-0.008 0.661,0.262 0.823,0.531c1.37,2.285 1.739,3.664 1.789,4.506c0.249,0.582 0.484,1.179 0.685,1.77c3.224,2.21 1.614,5.233 0.155,7.321c-0.676,4.329 -1.924,11.511 -3.203,19.847c0.789,13.559 -1.947,22.145 -3.485,27.839c-0.79,9.243 -1.006,17.823 -0.042,23.832c0.367,2.287 -1.259,5.238 -3.489,5.938c-0.964,1.434 -2.146,1.993 -3.476,-0.148c-0.289,-0.464 -0.579,-0.854 -0.868,-1.18c-0.743,-0.511 -1.493,-1.064 -2.247,-1.499c-1.31,-0.368 -2.369,0.053 -2.786,-0.321c-1.359,-1.218 -1.596,-2.451 -1.614,-3.414c-0.294,-0.852 -0.598,-1.859 -0.906,-2.981c-1.593,-2.83 -1.828,-4.985 -1.759,-7.242c-2.233,-10.075 -4.339,-22.243 -4.813,-22.214c-0.149,0.009 -0.312,0.92 -0.478,2.428c1.047,8.066 -0.832,10.286 -0.605,11.788c0.992,6.577 1.268,6.98 -0.804,12.121c-0.078,2.153 -0.123,3.825 -0.123,4.659c-0.001,2.538 4.597,3.004 4.697,6.986c0.007,0.316 -0.127,0.582 -0.381,0.803c-0.165,1.74 -5.155,1.684 -6.201,1.958c-7.189,1.883 -14.036,-3.618 -19.541,-0.318c0.032,-0.282 0.268,-2.312 0.636,-3.612Zm51.189,-31.319l2.453,-13.719c0.03,-1.195 0.069,-2.261 0.139,-3.082c0.159,-1.844 0.571,-2.839 1.111,-3.905l2.689,-15.034c-0.08,-0.128 -0.143,-0.235 -0.172,-0.344c-0.495,-1.865 0.577,-4.691 3.55,-3.137c5.765,0.723 3.143,11.033 2.798,11.722c-0.727,1.452 -0.824,6.636 -0.955,15.521c-0.012,0.806 -0.849,10.683 -1.21,12.043c-0.205,0.771 -2.692,10.102 -0.726,10.12c1.139,0.011 0.769,7.726 -0.622,7.866c-2.472,0.25 -3.241,4.213 -3.254,5.946c-0.755,0.176 -1.506,0.1 -2.261,0.276c-2.07,-3.449 -2.101,-3.343 -4.351,-6.599c-0.782,-1.133 -1.244,-2.612 -1.469,-4.238l-0.097,-0.147l0.046,-0.26c-0.562,-4.988 0.983,-11.171 2.331,-13.029Zm13.514,-0.543c-0.129,-1.642 -0.197,-3.383 -0.197,-5.227c0,-1.516 0.054,-2.954 0.156,-4.32c0.018,-2.668 0.235,-4.85 1.178,-7.44c3.497,-13.613 13.068,-16.987 19.074,-17.722c1.777,-0.491 3.358,-0.911 4.575,-1.474c0.09,0.306 0.171,0.582 0.219,1.364c0.22,0.02 0.338,0.037 0.338,0.037l-0.293,1.88c0.002,1.102 -0.021,2.625 -0.078,4.77l0.014,0.044c0.132,0.406 0.132,2.364 0.132,2.57c-0,0.26 -0.342,-0.36 -3.025,0.947c-1.859,0.906 -2.181,0.384 -3.748,2.198c-0.691,0.799 -1.653,0.352 -3.551,3.281c-0.489,0.753 -0.937,0.275 -1.743,1.556c-1.269,2.017 -1.334,1.992 -1.94,4.329c-0.667,2.572 -1.428,2.78 -1.48,3.754c-0.099,1.881 -0.135,1.852 -0.394,3.721c-0.038,0.27 0.236,0.897 -0.327,1.713c1.596,1.26 1.229,4.484 0.963,7.255c0.89,2.917 2.225,5.218 3.704,7.024c0.963,0.826 1.949,1.762 2.691,2.692c1.512,1.241 2.993,2.075 4.161,2.616c0.107,0.02 0.206,0.036 0.294,0.046c1.361,0.152 0.854,-0.125 2.149,0.286c0.112,0.666 0.002,1.295 -0.203,1.938l-0.678,7.909c0.669,3.85 0.807,3.91 0.679,4.401c-0.489,1.86 -12.872,2.054 -14.808,-6.431c-6.243,-6.602 -6.555,-13.061 -6.893,-13.716c-2.627,-5.1 -1.003,-8.698 -0.975,-9.77l0.006,-0.231Z" style="fill:#f0f0f0;"/></g></svg>