<svg width="1200" height="1200" viewBox="0 0 1200 1200" fill="none" xmlns="http://www.w3.org/2000/svg">
<path d="M814.813 671.29C814.304 610.09 814.395 548.89 815.186 487.726C815.268 481.663 813.977 476.49 811.832 472.072C812.286 471.563 812.75 471.081 813.195 470.572C847.504 549.599 905.032 617.535 976.395 665.072C922.541 667.235 868.677 669.372 814.813 671.29ZM585.241 677.108C538.622 677.635 491.695 678.035 444.659 677.763C440.677 626.408 435.486 575.19 428.895 524.299C505.404 581.345 646.277 576.79 745.277 523.263C744.832 573.354 744.813 623.463 745.241 673.572C691.913 675.199 638.586 676.49 585.241 677.108ZM190.777 665.981C233.15 645.999 273.059 619.145 310.022 593.054C328.759 579.817 346.404 565.626 362.441 550.299C367.504 592.299 371.695 634.463 374.995 676.763C313.432 675.308 251.877 672.126 190.777 665.981ZM1166.19 665.354C1010.8 641.09 885.622 523.163 853.85 368.845C847.168 336.363 792.332 334.935 786.75 368.845C773.568 448.89 692.286 475.526 622.413 490.081C562.713 502.535 435.732 496.281 443.332 406.817C444.341 400.863 445.177 394.817 445.741 388.626C449.259 349.935 384.132 340.69 377.395 379.381C376.541 384.317 375.922 389.117 375.422 393.845C366.268 465.572 305.941 513.345 248.895 550.39C189.432 589.008 126.641 631.445 52.9043 627.799C36.9043 627.008 26.7406 635.454 22.1952 646.654C-4.923 658.635 -10.7957 704.545 25.0679 711.635C141.441 734.645 260.541 743.299 379.595 746.099C384.986 844.272 385.777 942.772 381.568 1040.54C379.641 1085.32 449.241 1085.22 451.168 1040.54C455.35 943.117 454.577 844.972 449.241 747.135C490.022 747.408 530.741 747.226 571.277 746.845C629.577 746.29 687.85 744.899 746.113 743.117C747.75 842.317 751.041 941.508 756.095 1040.54C758.377 1085.11 827.977 1085.37 825.686 1040.54C820.595 940.745 817.295 840.799 815.668 740.826C919.85 737.126 1024 732.499 1128.2 728.872C1134.65 730.199 1141.14 731.426 1147.69 732.454C1191.5 739.29 1210.37 672.245 1166.19 665.354Z" fill="#F5F0F6"/>
<path d="M620.286 194.27C652.895 199.642 672.232 218.806 663.122 254.642C656.577 280.379 635.968 294.879 611.213 300.633C606.222 301.797 602.132 303.779 598.713 306.224C591.122 298.442 580.386 293.761 568.495 295.515C567.895 293.361 566.404 290.552 563.759 286.906C561.695 279.688 559.75 272.433 557.932 265.133C555.232 254.27 549.759 237.915 550.422 226.952C552.541 192.079 593.995 189.933 620.286 194.27ZM592.359 359.015C593.659 358.379 594.659 357.579 595.795 356.87C603.377 365.77 615.077 371.142 629.723 367.742C692.859 353.07 737.895 296.97 734.241 231.306C729.95 154.252 662.622 119.406 591.55 123.006C525.395 126.352 473.086 176.206 482.713 244.37C490.532 299.715 516.768 396.524 592.359 359.015Z" fill="#F5F0F6"/>
</svg>
